<svg width="355" height="232" viewBox="0 0 355 232" fill="none" xmlns="http://www.w3.org/2000/svg">
<g clip-path="url(#clip0_7_50)">
<path d="M355 0H0V232H355V0Z" fill="#B3DBAA"/>
<path d="M285 98H282V138H285V98Z" fill="#FFCEB6"/>
<path d="M181.958 140.961L180.781 139.84C174.89 139.41 165.938 137.205 160.268 130.675C159.937 130.294 159.633 129.894 159.359 129.475C158.851 128.712 158.493 127.871 158.304 126.99C157.34 122.279 162.562 118.85 165.021 118.289C168.115 117.591 173.439 118.498 175.584 118.923C176.172 119.041 176.524 119.119 176.524 119.119C176.907 119.146 177.293 119.146 177.676 119.119C177.94 119.104 178.223 119.086 178.527 119.064C178.624 119.064 178.722 119.055 178.825 119.045C178.884 119.045 178.94 119.045 179.001 119.037C180.169 118.961 181.341 118.974 182.506 119.078C182.839 119.11 183.186 119.155 183.543 119.21C183.738 119.242 183.934 119.279 184.134 119.317C184.296 119.35 184.457 119.386 184.623 119.425C184.745 119.453 184.867 119.484 184.989 119.516C185.239 119.58 185.488 119.648 185.737 119.726C185.748 119.731 185.76 119.733 185.772 119.736C185.887 119.771 186.002 119.808 186.117 119.85V119.844C187.91 120.463 189.572 121.373 191.025 122.531C192.379 123.599 193.871 124.711 195.421 125.82C197.495 127.298 199.674 128.77 201.805 130.11C201.805 130.11 202.578 130.248 203.731 130.384L203.746 130.271V117H232.013C236.622 126.137 243.844 142.715 248.963 156.012C254.287 169.838 271.398 193.988 274.869 202.059C279 211.654 279 217 279 217H218.204C218.231 214.891 217.992 212.786 217.49 210.729L219.706 201.485C217.985 201.526 215.276 201.485 215.276 201.485V201.494C214.964 201.431 213.414 201.07 207.094 199.533C197.453 197.189 176.548 172.788 176.548 172.788C174.437 171.867 170.735 167.563 168.545 164.858C167.452 163.51 166.787 161.903 166.624 160.22H166.589C166.589 160.22 155.605 159.038 149.703 157.284C149.703 157.284 140.302 154.986 137.682 153.932C137.682 153.932 121.256 148.246 117.105 146.007C112.954 143.768 114.916 134.383 123.225 136.627C128.119 137.944 132.432 139.28 132.632 139.345C134.504 140.6 136.751 141.273 139.057 141.269H151.213C151.213 141.269 165.38 144.146 168.044 144.698L168.39 144.716C168.671 143.516 169.123 142.357 169.734 141.269H181.712L181.958 140.961Z" fill="#FFCEB6"/>
<path d="M275.89 110.877C275.927 110.837 275.963 110.796 276 110.758C275.867 111.795 275.37 112.784 274.565 113.612C274.022 114.225 273.241 114.683 272.339 114.916C271.437 115.148 270.463 115.144 269.565 114.901L266.468 118L263 114.529L266.097 111.43C265.837 110.573 265.818 109.682 266.04 108.818C266.262 107.954 266.721 107.139 267.384 106.429C268.08 105.691 269.098 105.182 270.243 105C270.197 105.033 270.155 105.069 270.119 105.108C269.342 105.946 268.924 106.956 268.924 107.994C268.924 109.031 269.342 110.041 270.119 110.879C270.442 111.246 270.874 111.546 271.376 111.753C271.878 111.961 272.438 112.069 273.005 112.069C273.572 112.069 274.13 111.96 274.633 111.753C275.135 111.545 275.567 111.245 275.89 110.877Z" fill="#B3ECDC"/>
<path d="M273.148 124.869C273.702 125.606 274 126.496 274 127.41C274 128.324 273.702 129.214 273.148 129.95C272.919 130.275 272.611 130.539 272.254 130.722C271.896 130.904 271.499 131 271.095 131C270.692 131 270.294 130.904 269.936 130.722C269.578 130.539 269.272 130.275 269.041 129.95C268.491 129.234 268.195 128.362 268.195 127.466L268.159 127.515L264.327 122.773L261.306 119.027L258.608 115.684C257.825 115.946 256.976 115.952 256.189 115.701C255.401 115.451 254.72 114.956 254.245 114.294C253.547 113.399 253.116 112.333 253 111.214C253.032 111.255 253.06 111.299 253.096 111.343C253.377 111.74 253.753 112.065 254.19 112.289C254.628 112.513 255.115 112.63 255.609 112.63C256.104 112.63 256.591 112.513 257.028 112.289C257.466 112.065 257.842 111.74 258.123 111.343C258.8 110.44 259.165 109.35 259.165 108.23C259.165 107.111 258.8 106.02 258.123 105.117C258.091 105.076 258.058 105.037 258.022 105C259.016 105.197 259.9 105.746 260.504 106.542C261.082 107.308 261.483 108.187 261.677 109.119C261.872 110.051 261.856 111.013 261.631 111.939L264.328 115.282L267.349 119.027L271.177 123.769L271.14 123.818C271.534 123.835 271.92 123.938 272.267 124.12C272.615 124.301 272.916 124.557 273.148 124.869Z" fill="#B3ECDC"/>
<path d="M259 118L263 121.434L261.178 123L259 118Z" fill="#153C3C"/>
<path d="M260.411 118L262 123.921L259.634 127.215L259.594 127.163C259.596 128.136 259.309 129.083 258.777 129.862C258.555 130.213 258.259 130.5 257.914 130.698C257.57 130.896 257.186 131 256.797 131C256.408 131 256.024 130.896 255.679 130.698C255.335 130.5 255.038 130.213 254.817 129.862C254.286 129.06 254 128.094 254 127.102C254 126.111 254.286 125.145 254.817 124.343C255.041 124.005 255.332 123.727 255.668 123.529C256.003 123.331 256.375 123.218 256.755 123.199L256.716 123.145L260.411 118Z" fill="#B3ECDC"/>
<path d="M259 16H257V55H259V16Z" fill="#FFCEB6"/>
<path d="M243.537 34.2783C243.782 34.5361 243.938 34.8573 243.985 35.1996C244.032 35.5418 243.967 35.8895 243.8 36.1967L243.543 36.6389L241.195 40.6961C241.439 41.2006 241.583 41.7427 241.62 42.2952C241.756 44.2486 240.608 45.9073 239.062 45.9962C237.515 46.0856 236.148 44.5844 236.011 42.631C235.874 40.6776 237.023 39.0199 238.57 38.93C238.856 38.9115 239.143 38.948 239.414 39.0374L241.514 35.4174L242.027 34.5291C242.085 34.3962 242.177 34.2793 242.296 34.1889C242.416 34.099 242.557 34.0385 242.708 34.013C242.858 33.9881 243.014 33.999 243.159 34.0455C243.304 34.092 243.434 34.1719 243.537 34.2783Z" fill="#B3ECDC"/>
<path d="M232 117H204V70C204 70 208.121 71.1485 213.39 79.3598C218.659 87.5717 226.949 107.424 231.468 115.978C231.642 116.305 231.823 116.643 232 117Z" fill="#FFCEB6"/>
<path d="M216.053 201.02L216 201C216 201 218.447 201.044 220 201L218 211C217.223 206.329 216.057 201.238 216.004 201.006C216.02 201.012 216.036 201.017 216.053 201.02Z" fill="#153C3C"/>
<path d="M204 117V130.88L203.984 131C202.738 130.857 201.901 130.713 201.901 130.713C199.598 129.31 197.241 127.769 195 126.222L195.074 126.136C195.444 125.348 195.635 124.5 195.634 123.644V117.006L204 117Z" fill="#84A17D"/>
<path d="M196.341 41.2944V34.8142C196.341 33.208 195.656 31.6679 194.437 30.5321C193.218 29.3968 191.564 28.7584 189.84 28.7584H151.282C149.558 28.7584 147.904 29.3968 146.685 30.5321C145.466 31.6679 144.781 33.208 144.781 34.8142V48.0183C144.781 48.8135 144.95 49.601 145.276 50.3357C145.603 51.0704 146.082 51.7377 146.685 52.3003C147.289 52.8625 148.005 53.3085 148.794 53.6128C149.583 53.917 150.428 54.0735 151.282 54.0735H189.837C190.691 54.0735 191.536 53.917 192.325 53.6128C193.113 53.3085 193.83 52.8625 194.434 52.3003C195.037 51.7377 195.516 51.0704 195.843 50.3357C196.169 49.601 196.338 48.8135 196.338 48.0183L196.341 41.2944ZM136 80.054V24.8756C136 21.9914 137.23 19.2256 139.419 17.1862C141.609 15.1468 144.578 14.0009 147.673 14H149.072C149.072 16.1729 149.998 18.2568 151.648 19.7937C153.297 21.3301 155.534 22.1933 157.867 22.1933H179.746C182.079 22.1919 184.316 21.3287 185.966 19.7923C187.616 18.2564 188.544 16.1729 188.546 14H192.321C193.854 13.9995 195.373 14.2809 196.79 14.827C198.207 15.3735 199.494 16.1743 200.579 17.1843C201.663 18.1944 202.524 19.3931 203.111 20.7129C203.698 22.0327 204 23.447 204 24.8756V117.012H196.341V110.084C196.341 108.478 195.656 106.938 194.437 105.802C193.218 104.667 191.564 104.028 189.84 104.028H151.282C149.558 104.028 147.904 104.667 146.685 105.802C145.466 106.938 144.781 108.478 144.781 110.084V123.285C144.781 124.891 145.466 126.431 146.685 127.567C147.904 128.702 149.558 129.341 151.282 129.341H160.073C160.345 129.754 160.645 130.15 160.974 130.526C166.581 136.98 175.44 139.157 181.273 139.585L182.439 140.693L182.197 141H147.673C144.577 140.998 141.607 139.851 139.418 137.81C137.229 135.77 136 133.003 136 130.118V80.054ZM144.791 80.054V85.6518C144.791 87.2575 145.475 88.798 146.695 89.9334C147.914 91.0692 149.567 91.707 151.291 91.707H189.846C191.57 91.707 193.224 91.0692 194.442 89.9334C195.662 88.798 196.346 87.2575 196.346 85.6518V72.4504C196.346 70.8447 195.662 69.3042 194.442 68.1688C193.224 67.033 191.57 66.3952 189.846 66.3952H151.282C149.558 66.3952 147.904 67.033 146.685 68.1688C145.466 69.3042 144.781 70.8447 144.781 72.4504L144.791 80.054Z" fill="#84A17D"/>
<path d="M196 118.339V124.778C196 125.608 195.828 126.431 195.492 127.195L195.425 127.278C193.909 126.153 192.449 125.023 191.123 123.939C189.7 122.764 188.074 121.84 186.319 121.211C186.755 120.478 187.012 119.658 187.068 118.814C187.125 117.97 186.98 117.125 186.645 116.344C186.31 115.563 185.794 114.867 185.137 114.309C184.479 113.752 183.698 113.349 182.854 113.13C182.01 112.911 181.124 112.883 180.267 113.049C179.41 113.214 178.604 113.567 177.91 114.082C177.216 114.597 176.655 115.259 176.268 116.018C175.882 116.776 175.68 117.611 175.68 118.456C175.681 119.08 175.792 119.699 176.009 120.286C173.909 119.854 168.698 118.933 165.669 119.642C163.261 120.211 158.15 123.693 159.093 128.477C159.279 129.371 159.629 130.225 160.126 131H151.43C149.725 131 148.089 130.345 146.883 129.178C145.678 128.011 145 126.429 145 124.779V111.221C145 109.571 145.678 107.989 146.883 106.822C148.089 105.656 149.725 105 151.43 105H189.566C191.272 105 192.907 105.656 194.113 106.822C195.319 107.989 195.997 109.571 195.997 111.221V118.339H196Z" fill="#84A17D"/>
<path d="M145 79.4903V71.981C145 70.3946 145.678 68.8736 146.883 67.7518C148.09 66.6305 149.725 66 151.431 66H189.569C191.275 66 192.91 66.6305 194.117 67.7518C195.322 68.8736 196 70.3946 196 71.981V85.019C196 86.6054 195.322 88.1264 194.117 89.2482C192.91 90.3695 191.275 91 189.569 91H151.431C149.725 91 148.09 90.3695 146.883 89.2482C145.678 88.1264 145 86.6054 145 85.019V79.4903ZM163.551 79.6059C163.551 78.558 163.216 77.5337 162.59 76.6621C161.964 75.791 161.074 75.112 160.033 74.7113C158.991 74.3102 157.846 74.2055 156.741 74.4104C155.636 74.6148 154.621 75.1193 153.824 75.8603C153.027 76.6014 152.484 77.5459 152.264 78.5734C152.045 79.6014 152.157 80.667 152.588 81.6351C153.019 82.6037 153.749 83.4313 154.686 84.0137C155.622 84.5961 156.724 84.9075 157.851 84.9079C158.6 84.9079 159.341 84.7711 160.033 84.505C160.725 84.2385 161.354 83.8483 161.884 83.3556C162.413 82.8634 162.833 82.2787 163.12 81.6355C163.407 80.9919 163.555 80.3025 163.555 79.6059H163.551Z" fill="#84A17D"/>
<path d="M196 42.3783V49.0193C196 49.8048 195.833 50.5826 195.51 51.3078C195.187 52.0335 194.714 52.6929 194.117 53.2482C193.519 53.8039 192.811 54.2444 192.031 54.5449C191.25 54.8454 190.414 55 189.57 55H151.43C150.586 55 149.75 54.8454 148.969 54.5449C148.189 54.2444 147.481 53.8039 146.883 53.2482C146.286 52.6929 145.813 52.0335 145.49 51.3078C145.167 50.5826 145 49.8048 145 49.0193V35.9811C145 34.3947 145.678 32.8736 146.883 31.7518C148.089 30.63 149.725 30 151.43 30H189.566C191.272 30 192.907 30.63 194.113 31.7518C195.319 32.8736 195.997 34.3947 195.997 35.9811L196 42.3783ZM187.079 42.4939C187.079 41.4451 186.745 40.4203 186.118 39.5482C185.492 38.6761 184.602 37.9967 183.56 37.5956C182.519 37.194 181.373 37.0893 180.267 37.2937C179.161 37.4981 178.145 38.0031 177.348 38.7446C176.551 39.4861 176.008 40.4311 175.788 41.4596C175.569 42.488 175.681 43.554 176.113 44.5226C176.544 45.4917 177.275 46.3198 178.212 46.9022C179.15 47.4846 180.251 47.7956 181.379 47.7956C182.89 47.7947 184.339 47.2358 185.407 46.2414C186.476 45.2474 187.076 43.8994 187.077 42.4939H187.079Z" fill="#84A17D"/>
<path d="M149 14H188C187.998 16.1217 187.081 18.1559 185.451 19.6556C183.821 21.1558 181.611 21.9987 179.306 22H157.69C155.385 22 153.175 21.1572 151.545 19.657C149.916 18.1564 149 16.1217 149 14Z" fill="#153C3C"/>
<path d="M187 117.363C186.999 118.288 186.746 119.197 186.267 120L185.934 119.895C185.923 119.893 185.912 119.89 185.901 119.886C185.666 119.807 185.432 119.74 185.195 119.682C185.08 119.651 184.965 119.621 184.849 119.593C184.693 119.554 184.541 119.522 184.388 119.489C184.199 119.454 184.014 119.419 183.83 119.384C183.498 119.327 183.178 119.287 182.851 119.256C181.752 119.153 180.645 119.14 179.543 119.216C179.488 119.216 179.434 119.225 179.377 119.225C179.28 119.234 179.188 119.238 179.095 119.242C178.805 119.26 178.537 119.277 178.292 119.296C177.93 119.323 177.567 119.323 177.204 119.296C177.204 119.296 176.878 119.22 176.318 119.105C176.109 118.543 176.001 117.951 176.001 117.354C175.99 116.654 176.125 115.96 176.396 115.311C176.668 114.662 177.071 114.071 177.583 113.573C178.094 113.075 178.703 112.679 179.375 112.409C180.047 112.139 180.768 112 181.496 112C182.225 112 182.946 112.139 183.618 112.409C184.29 112.679 184.899 113.075 185.41 113.573C185.922 114.071 186.325 114.662 186.596 115.311C186.868 115.96 187.003 116.654 186.992 117.354L187 117.363Z" fill="#E6FFA0"/>
<path d="M181.5 47C184.537 47 187 44.7612 187 42C187 39.2388 184.537 37 181.5 37C178.463 37 176 39.2388 176 42C176 44.7612 178.463 47 181.5 47Z" fill="#E6FFA0"/>
<path d="M151 141H169C168.406 141.947 167.967 142.956 167.694 144L167.358 143.984C164.767 143.504 151 141 151 141Z" fill="#153C3C"/>
<path d="M157.495 74C158.781 73.9989 160.038 74.3795 161.108 75.093C162.177 75.8065 163.011 76.8217 163.504 78.0091C163.996 79.1971 164.126 80.5041 163.876 81.7654C163.625 83.0268 163.007 84.1853 162.098 85.095C161.189 86.004 160.03 86.6236 158.769 86.8748C157.508 87.1259 156.201 86.9976 155.013 86.5052C153.825 86.0135 152.809 85.18 152.095 84.1109C151.381 83.0418 151 81.7843 151 80.4985C151.001 78.7759 151.685 77.1239 152.903 75.9054C154.121 74.6868 155.772 74.0017 157.495 74Z" fill="#E6FFA0"/>
<path d="M144.627 14H148C144.917 14.0009 141.96 15.1459 139.779 17.1836C137.599 19.2213 136.374 21.9849 136.374 24.8667V80H133V24.8667C133 21.9849 134.226 19.2213 136.406 17.1836C138.586 15.1459 141.543 14.0009 144.627 14Z" fill="#153C3C"/>
<path d="M148 141H144.628C141.544 141 138.586 139.852 136.406 137.81C134.225 135.768 133 132.998 133 130.11V80H136.378V130.11C136.378 132.998 137.603 135.766 139.782 137.808C141.961 139.85 144.917 140.998 148 141Z" fill="#153C3C"/>
<path d="M128 111.113V124C128 124 122.825 123.211 115.786 122.169C108.748 121.127 108.743 113.618 112.504 111.113C116.265 108.608 127.516 111.113 127.516 111.113H128Z" fill="#FFCEB6"/>
<path d="M106 75.4437V82.5603H103.588C102.698 82.5603 102.25 83.7655 102.884 84.4748L104.59 86.3851L100.094 91.4186L98.3869 89.5082C97.7549 88.7999 96.6809 89.2993 96.6809 90.2978V93H90.3206V90.2978C90.3206 89.3002 89.2456 88.7999 88.6136 89.5082L86.9082 91.4186L82.4127 86.3851L84.1182 84.4748C84.7501 83.7655 84.3025 82.5603 83.4148 82.5603H81V75.4437H83.4148C84.3045 75.4437 84.7526 74.2345 84.1182 73.5293L82.4127 71.6158L86.9082 66.5823L88.6136 68.4918C89.2456 69.1965 90.3206 68.7007 90.3206 67.699V65H96.6809V67.7031C96.6809 68.7038 97.7549 69.201 98.3869 68.4958L100.092 66.5864L104.588 71.6158L102.882 73.5252C102.25 74.23 102.698 75.4397 103.586 75.4397L106 75.4437ZM97.2719 79.0027C97.2719 76.6669 95.5816 74.7746 93.503 74.7746C91.4249 74.7746 89.7286 76.6669 89.7286 79.0027C89.7286 81.3381 91.4189 83.2254 93.503 83.2254C95.5872 83.2254 97.2719 81.3295 97.2719 79.0027Z" fill="#B3ECDC"/>
<path d="M74 59H70V101H74V59Z" fill="#FFCEB6"/>
<path d="M74 59L113 62.0896V97.9104L74 101" stroke="#153C3C" stroke-width="3.704" stroke-linecap="round" stroke-linejoin="round"/>
<path d="M74 59H70V101H74V59Z" stroke="#153C3C" stroke-width="3.704" stroke-linecap="round" stroke-linejoin="round"/>
<path d="M257 16L222 22.959V58L257 54.3891" stroke="#153C3C" stroke-width="3.704" stroke-linecap="round" stroke-linejoin="round"/>
<path d="M259 16H257V55H259V16Z" stroke="#153C3C" stroke-width="3.704" stroke-linecap="round" stroke-linejoin="round"/>
<path d="M282 98L245 100.942V135.054L282 138" stroke="#153C3C" stroke-width="3.704" stroke-linecap="round" stroke-linejoin="round"/>
<path d="M285 98H282V138H285V98Z" stroke="#153C3C" stroke-width="3.704" stroke-linecap="round" stroke-linejoin="round"/>
<path d="M188 14H191.908C193.496 13.9995 195.068 14.283 196.535 14.8332C198.002 15.3839 199.335 16.1908 200.458 17.2085C201.581 18.2263 202.471 19.434 203.079 20.7639C203.687 22.0937 204 23.5188 204 24.9582V131" stroke="#153C3C" stroke-width="3.704" stroke-linecap="round" stroke-linejoin="round"/>
<path d="M145 141C141.817 141 138.765 139.853 136.515 137.813C134.264 135.773 133 133.006 133 130.12V24.8758C133 23.4472 133.311 22.0328 133.914 20.713C134.517 19.3932 135.401 18.1945 136.515 17.1844C137.629 16.1743 138.952 15.3735 140.408 14.827C141.864 14.2809 143.424 13.9995 145 14" stroke="#153C3C" stroke-width="3.704" stroke-linecap="round" stroke-linejoin="round"/>
<path d="M181 141H169.758H152.373H149" stroke="#153C3C" stroke-width="3.704" stroke-linecap="round" stroke-linejoin="round"/>
<path d="M148 141C144.817 140.998 141.765 139.851 139.515 137.811C137.265 135.771 136.001 133.005 136 130.12V24.8758C136.001 21.9915 137.265 19.2257 139.515 17.1862C141.766 15.1468 144.818 14.0009 148 14" stroke="#153C3C" stroke-width="3.704" stroke-linecap="round" stroke-linejoin="round"/>
<path d="M132.943 140C131.412 139.051 130.165 137.798 129.305 136.346C128.445 134.895 127.998 133.286 128 131.654V24.2541C127.999 22.9067 128.306 21.5728 128.901 20.3281C129.495 19.0838 130.367 17.9528 131.466 17.0007C132.566 16.048 133.871 15.2933 135.307 14.7784C136.743 14.2635 138.282 13.9991 139.836 14H149" stroke="#153C3C" stroke-width="3.704" stroke-linecap="round" stroke-linejoin="round"/>
<path d="M149 141H139.865C137.402 141.002 135 140.652 133 140" stroke="#153C3C" stroke-width="3.704" stroke-linecap="round" stroke-linejoin="round"/>
<path d="M188 14C187.998 16.1217 187.081 18.1559 185.451 19.6556C183.821 21.1558 181.611 21.9987 179.306 22H157.69C155.385 22 153.175 21.1572 151.545 19.657C149.916 18.1564 149 16.1217 149 14H188Z" stroke="#153C3C" stroke-width="3.704" stroke-linecap="round" stroke-linejoin="round"/>
<path d="M189.57 55H151.431C149.725 55 148.09 54.3695 146.883 53.2481C145.678 52.1262 145 50.605 145 49.0185V35.9815C145 34.395 145.678 32.8738 146.883 31.7519C148.09 30.6301 149.725 30 151.431 30H189.569C191.275 30 192.91 30.6301 194.117 31.7519C195.322 32.8738 196 34.395 196 35.9815V49.0207C195.999 50.6063 195.322 52.1271 194.116 53.2485C192.91 54.3695 191.275 54.9995 189.57 55Z" stroke="#153C3C" stroke-width="3.704" stroke-linecap="round" stroke-linejoin="round"/>
<path d="M189.57 91H151.431C149.725 91 148.09 90.3699 146.883 89.2481C145.678 88.1262 145 86.605 145 85.0189V71.9815C145 70.395 145.678 68.8738 146.883 67.7519C148.09 66.6305 149.725 66 151.431 66H189.569C191.275 66 192.91 66.6305 194.117 67.7519C195.322 68.8738 196 70.395 196 71.9815V85.0207C195.999 86.6068 195.322 88.1271 194.116 89.2485C192.91 90.3699 191.275 90.9995 189.57 91Z" stroke="#153C3C" stroke-width="3.704" stroke-linecap="round" stroke-linejoin="round"/>
<path d="M160.132 131H151.431C149.725 131 148.09 130.345 146.883 129.178C145.678 128.011 145 126.429 145 124.779V111.221C145 109.571 145.678 107.989 146.883 106.822C148.09 105.656 149.725 105 151.431 105H189.569C191.275 105 192.91 105.656 194.117 106.822C195.322 107.989 196 109.571 196 111.221V124.782C196 125.612 195.828 126.434 195.492 127.199" stroke="#153C3C" stroke-width="3.704" stroke-linecap="round" stroke-linejoin="round"/>
<path d="M116 80H127.919H131.659H135.226H144.485H149" stroke="#153C3C" stroke-width="3.704" stroke-linecap="round" stroke-linejoin="round"/>
<path d="M176.042 118.905C173.941 118.473 168.726 117.55 165.695 118.26C163.286 118.83 158.171 122.316 159.115 127.106C159.301 128.001 159.651 128.857 160.149 129.633C160.417 130.058 160.715 130.466 161.039 130.853C166.59 137.491 175.359 139.731 181.132 140.171L182.286 141.311C185.092 144.098 192.203 151.146 194.095 153.114C194.095 153.114 199.612 174.05 205.713 179.957C213.969 187.955 218.695 190.235 224 191" stroke="#153C3C" stroke-width="3.704" stroke-linecap="round" stroke-linejoin="round"/>
<path d="M179 119C178.638 119 178.305 119 178 119" stroke="#153C3C" stroke-width="3.704" stroke-linecap="round" stroke-linejoin="round"/>
<path d="M185 119C184.534 119 184.087 119 183.63 119C182.091 119 180.542 119 179 119" stroke="#153C3C" stroke-width="3.704" stroke-linecap="round" stroke-linejoin="round"/>
<path d="M187 120C186.667 120 186.334 120 186 120" stroke="#153C3C" stroke-width="3.704" stroke-linecap="round" stroke-linejoin="round"/>
<path d="M210 135C206.952 133.652 204.048 131.991 201.335 130.043C199.431 128.745 197.483 127.32 195.63 125.889C194.245 124.816 192.912 123.739 191.702 122.705C190.403 121.584 188.917 120.703 187.315 120.104L187 120" stroke="#153C3C" stroke-width="3.704" stroke-linecap="round" stroke-linejoin="round"/>
<path d="M203 131C203 131 203.731 131 204.821 131C207.076 131 210.884 131 213 131" stroke="#153C3C" stroke-width="3.704" stroke-linecap="round" stroke-linejoin="round"/>
<path d="M179 119C177.669 120.399 171.246 125.084 172.073 131" stroke="#153C3C" stroke-width="3.704" stroke-linecap="round" stroke-linejoin="round"/>
<path d="M159 128.573C161.397 130.592 167.287 131.819 169.593 130.362C169.593 130.362 170.951 122.588 174 120" stroke="#153C3C" stroke-width="3.704" stroke-linecap="round" stroke-linejoin="round"/>
<path d="M279 217C279 217 279 211.712 274.882 202.231C271.423 194.252 254.37 170.378 249.064 156.711C243.963 143.566 236.762 127.172 232.171 118.146C231.991 117.781 231.811 117.434 231.636 117.095C227.089 108.332 218.754 88.0022 213.447 79.5865C208.142 71.1709 204 70 204 70" stroke="#153C3C" stroke-width="3.704" stroke-linecap="round" stroke-linejoin="round"/>
<path d="M216.04 201.019L216 201V201.009C216.04 201.23 216.923 206.082 217.511 210.535C217.854 212.655 218.017 214.826 217.999 217" stroke="#153C3C" stroke-width="3.704" stroke-linecap="round" stroke-linejoin="round"/>
<path d="M167.202 158C167.045 158.717 166.979 159.447 167.006 160.177C167.006 160.404 167.021 160.63 167.04 160.856C167.204 162.492 167.873 164.055 168.971 165.366C171.171 167.995 174.891 172.181 177.012 173.076C177.012 173.076 198.018 196.802 207.705 199.083C214.056 200.578 215.613 200.928 215.926 200.99C215.944 200.994 215.962 200.997 215.98 200.999C215.987 201 215.993 201 216 200.999" stroke="#153C3C" stroke-width="3.704" stroke-linecap="round" stroke-linejoin="round"/>
<path d="M167 161C167 161 155.928 159.765 149.98 157.933C149.98 157.933 140.504 155.533 137.862 154.433C137.862 154.433 121.306 148.494 117.122 146.156C112.938 143.817 114.915 134.016 123.291 136.359C128.224 137.736 132.57 139.131 132.773 139.198" stroke="#153C3C" stroke-width="3.704" stroke-linecap="round" stroke-linejoin="round"/>
<path d="M137 144C137 144 136.198 146.666 136 148" stroke="#153C3C" stroke-width="3.704" stroke-linecap="round" stroke-linejoin="round"/>
<path d="M151 147C151 147 151 150.032 151 151" stroke="#153C3C" stroke-width="3.704" stroke-linecap="round" stroke-linejoin="round"/>
<path d="M216 201C216 201 218.447 201.044 220 201L218 211" stroke="#153C3C" stroke-width="3.704" stroke-linecap="round" stroke-linejoin="round"/>
<path d="M127.516 111.114C127.516 111.114 116.254 108.608 112.501 111.114C108.748 113.619 108.744 121.127 115.784 122.169C122.825 123.211 128 124 128 124" stroke="#153C3C" stroke-width="3.704" stroke-linecap="round" stroke-linejoin="round"/>
<path d="M169 141C168.638 142.144 168.371 143.364 168.204 144.626C168.096 145.406 168.027 146.2 168 147" stroke="#153C3C" stroke-width="3.704" stroke-linecap="round" stroke-linejoin="round"/>
<path d="M151 141C151 141 165.309 143.517 168 144" stroke="#153C3C" stroke-width="3.704" stroke-linecap="round" stroke-linejoin="round"/>
<path d="M164 80.5012C164 81.787 163.619 83.0433 162.904 84.1123C162.19 85.1807 161.175 86.0135 159.987 86.5054C158.8 86.9974 157.493 87.1258 156.232 86.8751C154.971 86.6244 153.813 86.0057 152.904 85.0968C151.995 84.1879 151.376 83.03 151.125 81.7692C150.874 80.5084 151.003 79.2015 151.494 78.0141C151.985 76.8262 152.818 75.8111 153.887 75.0968C154.956 74.3819 156.212 74.0006 157.497 74C158.352 74 159.197 74.1679 159.986 74.4947C160.775 74.821 161.492 75.3002 162.096 75.9039C162.699 76.5076 163.178 77.2242 163.505 78.013C163.832 78.8018 164 79.6473 164 80.5012Z" stroke="#153C3C" stroke-width="3.704" stroke-linecap="round" stroke-linejoin="round"/>
<path d="M217 41H203.996H196.189H190" stroke="#153C3C" stroke-width="3.704" stroke-linecap="round" stroke-linejoin="round"/>
<path d="M181.5 47C184.537 47 187 44.7612 187 42C187 39.2388 184.537 37 181.5 37C178.463 37 176 39.2388 176 42C176 44.7612 178.463 47 181.5 47Z" stroke="#153C3C" stroke-width="3.704" stroke-linecap="round" stroke-linejoin="round"/>
<path d="M241 117H231.968H203.818H196.11H190" stroke="#153C3C" stroke-width="3.704" stroke-linecap="round" stroke-linejoin="round"/>
<path d="M176.316 119.09C176.872 119.206 177.204 119.283 177.204 119.283C177.566 119.309 177.93 119.309 178.292 119.283C178.541 119.268 178.809 119.25 179.096 119.229C179.188 119.229 179.28 119.22 179.377 119.21C179.433 119.21 179.486 119.21 179.544 119.202C180.646 119.127 181.754 119.141 182.854 119.242C183.168 119.274 183.496 119.318 183.834 119.372C184.017 119.404 184.203 119.44 184.392 119.478C184.544 119.509 184.697 119.545 184.853 119.583C184.969 119.611 185.084 119.641 185.199 119.673C185.435 119.735 185.671 119.803 185.906 119.879C185.916 119.883 185.927 119.886 185.939 119.888C186.047 119.923 186.156 119.959 186.265 120V119.995C186.686 119.286 186.933 118.493 186.988 117.677C187.043 116.862 186.903 116.044 186.58 115.289C186.257 114.534 185.759 113.86 185.125 113.321C184.49 112.783 183.736 112.392 182.922 112.181C182.107 111.97 181.253 111.943 180.426 112.103C179.599 112.262 178.821 112.604 178.152 113.102C177.482 113.6 176.94 114.24 176.567 114.973C176.194 115.707 176 116.513 176 117.331C176.001 117.931 176.109 118.526 176.316 119.09Z" stroke="#153C3C" stroke-width="3.704" stroke-linecap="round" stroke-linejoin="round"/>
<path d="M106 75.4437H103.588C102.698 75.4437 102.25 74.2345 102.884 73.5293L104.588 71.6158L100.092 66.5823L98.3869 68.4918C97.7549 69.1965 96.6809 68.7007 96.6809 67.699V65H90.3206V67.7031C90.3206 68.7038 89.2456 69.201 88.6136 68.4958L86.9082 66.5864L82.4127 71.6158L84.1182 73.5293C84.7501 74.2345 84.3025 75.4437 83.4148 75.4437H81V82.5603H83.4148C84.3045 82.5603 84.7526 83.7655 84.1182 84.4748L82.4127 86.3851L86.9082 91.4186L88.6136 89.5082C89.2456 88.7999 90.3206 89.2993 90.3206 90.2978V93H96.6809V90.2978C96.6809 89.3002 97.7549 88.7999 98.3869 89.5082L100.092 91.4186L104.588 86.3851L102.882 84.4748C102.25 83.7655 102.698 82.5603 103.586 82.5603H105.998V75.4437H106Z" stroke="#153C3C" stroke-width="3.704" stroke-linecap="round" stroke-linejoin="round"/>
<path d="M97 79.0032C97 81.7603 95.2074 84 93.0029 84C90.799 84 89 81.7603 89 79.0032C89 76.2456 90.7926 74 93.0029 74C95.2133 74 97 76.2392 97 79.0032Z" stroke="#153C3C" stroke-width="3.704" stroke-linecap="round" stroke-linejoin="round"/>
<path d="M242 36.4804C241.099 36.118 240.112 35.9563 239.125 36.0101C236.965 36.1345 235.089 37.5116 233.805 39.5029C232.462 41.6716 231.847 44.1375 232.032 46.608C232.041 46.7363 232.051 46.8696 232.065 47" stroke="#153C3C" stroke-width="3.704" stroke-linecap="round" stroke-linejoin="round"/>
<path d="M247 46C247 45.8663 246.991 45.7339 246.98 45.5954C246.849 43.3945 246.006 41.2705 244.549 39.4677C244.1 38.9272 243.58 38.4348 243 38" stroke="#153C3C" stroke-width="3.704" stroke-linecap="round" stroke-linejoin="round"/>
<path d="M247.976 45.8584L253 45.5734C252.991 45.4356 252.991 45.2973 252.98 45.1537C252.761 41.5268 251.388 38.026 249.017 35.0491C246.292 31.7554 242.45 29.7829 238.34 30.0191C234.387 30.2466 230.982 32.7127 228.759 36.2915C226.68 39.761 225.745 43.6706 226.06 47.5803C226.07 47.7222 226.085 47.8604 226.095 48L231.119 47.7158" stroke="#153C3C" stroke-width="3.704" stroke-linecap="round" stroke-linejoin="round"/>
<path d="M243.543 36.6409L243.8 36.1994C243.968 35.8923 244.032 35.5446 243.985 35.2025C243.938 34.8599 243.782 34.5393 243.537 34.2811C243.434 34.1742 243.304 34.0933 243.158 34.0463C243.013 33.9994 242.857 33.9879 242.705 34.0129C242.554 34.0378 242.412 34.0988 242.293 34.1897C242.173 34.2806 242.08 34.3984 242.023 34.5323L241.511 35.4203L239.412 39.0392C239.141 38.9498 238.854 38.9128 238.568 38.9313C237.022 39.0252 235.875 40.6833 236.011 42.6311C236.147 44.5794 237.515 46.0897 239.06 45.9958C240.604 45.9025 241.753 44.2453 241.617 42.296C241.58 41.7437 241.435 41.2018 241.192 40.6968L243.543 36.6409Z" stroke="#153C3C" stroke-width="3.704" stroke-linecap="round" stroke-linejoin="round"/>
<path d="M239 30V36" stroke="#153C3C" stroke-width="3.704" stroke-linecap="round" stroke-linejoin="round"/>
<path d="M229 36L233 39" stroke="#153C3C" stroke-width="3.704" stroke-linecap="round" stroke-linejoin="round"/>
<path d="M248 34L245 39" stroke="#153C3C" stroke-width="3.704" stroke-linecap="round" stroke-linejoin="round"/>
<path d="M266.47 118L269.565 114.901C270.463 115.144 271.437 115.149 272.339 114.917C273.241 114.684 274.023 114.227 274.567 113.612C275.371 112.784 275.867 111.796 276 110.758C275.963 110.796 275.927 110.837 275.89 110.878C275.567 111.247 275.136 111.547 274.633 111.755C274.13 111.963 273.571 112.071 273.003 112.071C272.436 112.071 271.876 111.963 271.373 111.755C270.871 111.547 270.439 111.247 270.116 110.878C269.341 110.041 268.923 109.03 268.923 107.994C268.923 106.956 269.341 105.946 270.116 105.108C270.153 105.07 270.195 105.033 270.24 105C269.096 105.182 268.078 105.691 267.382 106.429C266.719 107.139 266.261 107.954 266.039 108.818C265.817 109.682 265.836 110.573 266.096 111.43L263 114.529" stroke="#153C3C" stroke-width="3.704" stroke-linecap="round" stroke-linejoin="round"/>
<path d="M260.185 118L256.62 123.147L256.658 123.201C256.291 123.22 255.932 123.332 255.609 123.53C255.285 123.728 255.004 124.007 254.787 124.345C254.276 125.146 254 126.111 254 127.102C254 128.093 254.276 129.059 254.787 129.861C255.001 130.212 255.287 130.5 255.62 130.698C255.952 130.896 256.322 131 256.698 131C257.074 131 257.444 130.896 257.776 130.698C258.109 130.5 258.395 130.212 258.608 129.861C259.122 129.084 259.399 128.136 259.397 127.164L259.435 127.217L261.718 123.923L263 122.069" stroke="#153C3C" stroke-width="3.704" stroke-linecap="round" stroke-linejoin="round"/>
<path d="M264.328 115.282L261.631 111.938C261.856 111.013 261.872 110.051 261.677 109.119C261.483 108.187 261.083 107.308 260.504 106.542C259.901 105.746 259.016 105.197 258.022 105C258.057 105.037 258.091 105.076 258.123 105.117C258.8 106.02 259.165 107.11 259.165 108.23C259.165 109.349 258.8 110.44 258.123 111.343C257.842 111.74 257.466 112.065 257.028 112.289C256.591 112.513 256.103 112.63 255.609 112.63C255.115 112.63 254.628 112.513 254.19 112.289C253.753 112.065 253.377 111.74 253.096 111.343C253.06 111.299 253.031 111.255 253 111.214C253.116 112.333 253.547 113.399 254.245 114.293C254.72 114.956 255.401 115.451 256.188 115.701C256.976 115.952 257.825 115.946 258.608 115.684L261.306 119.027L264.327 122.773L268.159 127.515L268.196 127.466C268.195 128.362 268.492 129.234 269.042 129.95C269.272 130.275 269.579 130.539 269.936 130.722C270.294 130.904 270.692 131 271.095 131C271.499 131 271.896 130.904 272.254 130.722C272.612 130.539 272.919 130.275 273.149 129.95C273.702 129.214 274 128.323 274 127.41C274 126.496 273.702 125.606 273.149 124.869C272.917 124.557 272.617 124.301 272.27 124.118C271.922 123.936 271.538 123.832 271.144 123.815L271.18 123.766L267.353 119.024L264.328 115.282Z" stroke="#153C3C" stroke-width="3.704" stroke-linecap="round" stroke-linejoin="round"/>
<path d="M259 118L262 123" stroke="#153C3C" stroke-width="3.704" stroke-linecap="round" stroke-linejoin="round"/>
</g>
<defs>
<clipPath id="clip0_7_50">
<rect width="355" height="232" fill="white"/>
</clipPath>
</defs>
</svg>
