<svg width="355" height="232" viewBox="0 0 355 232" fill="none" xmlns="http://www.w3.org/2000/svg">
<g clip-path="url(#clip0_7_661)">
<path d="M355 0H0V232H355V0Z" fill="#B3ECDC"/>
<path d="M303 63V70H204V63H303ZM223.311 66.7902C223.31 66.4666 223.214 66.1506 223.034 65.8819C222.853 65.6131 222.597 65.4035 222.297 65.2798C221.997 65.156 221.666 65.1239 221.349 65.1869C221.03 65.2499 220.737 65.4057 220.508 65.6348C220.278 65.8634 220.122 66.155 220.059 66.472C219.995 66.7891 220.028 67.1181 220.152 67.4167C220.276 67.7159 220.486 67.9711 220.756 68.1513C221.026 68.331 221.343 68.4271 221.668 68.4277C221.884 68.4288 222.1 68.387 222.3 68.305C222.5 68.223 222.683 68.1019 222.836 67.9488C222.989 67.7962 223.11 67.6149 223.193 67.4151C223.276 67.2153 223.317 67.0009 223.316 66.7848L223.311 66.7902ZM216.848 66.7902C216.848 66.4666 216.751 66.1506 216.571 65.8819C216.391 65.6131 216.134 65.4035 215.835 65.2798C215.535 65.156 215.205 65.1239 214.886 65.1869C214.568 65.2499 214.276 65.4057 214.046 65.6343C213.816 65.8629 213.66 66.1539 213.597 66.471C213.533 66.788 213.565 67.117 213.689 67.4162C213.813 67.7148 214.023 67.9705 214.292 68.1508C214.562 68.3305 214.879 68.4271 215.204 68.4277C215.421 68.4288 215.636 68.387 215.836 68.305C216.037 68.223 216.219 68.1019 216.373 67.9494C216.526 67.7962 216.648 67.6149 216.73 67.4151C216.812 67.2153 216.855 67.0009 216.854 66.7848L216.848 66.7902ZM210.384 66.7902C210.384 66.4666 210.288 66.1506 210.107 65.8819C209.926 65.6131 209.67 65.4035 209.37 65.2798C209.07 65.156 208.74 65.1239 208.422 65.1869C208.104 65.2499 207.811 65.4057 207.582 65.6348C207.352 65.8634 207.196 66.155 207.132 66.472C207.069 66.7891 207.102 67.1181 207.226 67.4167C207.35 67.7159 207.56 67.9711 207.83 68.1513C208.1 68.331 208.416 68.4271 208.741 68.4277C208.958 68.4293 209.174 68.388 209.375 68.3061C209.576 68.2241 209.759 68.1035 209.913 67.9504C210.066 67.7979 210.188 67.616 210.271 67.4157C210.354 67.2159 210.396 67.0014 210.395 66.7848L210.384 66.7902Z" fill="#153C3C"/>
<path d="M283 212H175.142L161.577 202.188L121 172.838L121.061 172.56C121.642 172.744 122.249 172.838 122.858 172.838H224.656C225.726 172.839 226.778 172.55 227.703 172L283 212ZM224.263 196.951H253.275L244.752 190.787L225.822 177.09H138.251L145.838 182.58L165.704 196.951H224.263ZM200.599 208.234H242.697L232.201 200.643H189.999L200.494 208.234H200.599Z" fill="#B3ECDC"/>
<path d="M254 197H224.926V196.831L217 191.261H245.275L245.458 191L254 197Z" fill="#B3ECDC"/>
<path d="M178.965 182.529L171.449 177H226.246L245 190.793L244.818 191.064H216.867L224.702 196.824V197H166.682L147 182.529H178.965Z" fill="#B3ECDC"/>
<path d="M243 208H201.46H201.356L191 201H232.54H232.644L243 208Z" fill="#84A17D"/>
<path d="M231 129.999V166.847C231 167.655 230.843 168.456 230.539 169.203C230.234 169.95 229.787 170.628 229.224 171.2C228.661 171.771 227.993 172.225 227.257 172.533C226.522 172.842 225.734 173.001 224.938 173H123.057C122.261 173.001 121.473 172.842 120.738 172.533C120.003 172.223 119.335 171.77 118.773 171.199C118.21 170.627 117.764 169.949 117.46 169.202C117.156 168.455 116.999 167.655 117 166.847V93.1568C117 91.5239 117.638 89.9586 118.774 88.8043C119.909 87.6499 121.45 87.0011 123.057 87H224.938C225.734 87 226.522 87.1587 227.258 87.4685C227.994 87.7777 228.662 88.2312 229.225 88.8032C229.788 89.3751 230.235 90.0543 230.539 90.8016C230.844 91.5494 231.001 92.3503 231 93.159V129.999ZM226.387 163.481V96.517C226.387 95.2343 225.885 94.0047 224.993 93.0981C224.1 92.191 222.89 91.6821 221.627 91.6821H126.368C125.106 91.6821 123.896 92.191 123.003 93.0981C122.111 94.0047 121.609 95.2343 121.609 96.517V163.481C121.609 164.763 122.111 165.993 123.003 166.9C123.896 167.806 125.106 168.316 126.368 168.316H221.626C222.889 168.316 224.099 167.806 224.992 166.9C225.884 165.993 226.385 164.763 226.385 163.481H226.387Z" fill="#B3ECDC"/>
<path d="M226 95.9204V117H225.106V116.646C225.106 110.629 221.868 107.688 217.909 107.688H217.486C217.23 107.689 216.985 107.583 216.803 107.394C216.622 107.205 216.52 106.949 216.519 106.682V105.093C217.138 104.773 217.66 104.278 218.025 103.664C218.39 103.05 218.584 102.342 218.585 101.619V99.4609C218.585 98.433 218.195 97.4473 217.5 96.7202C216.806 95.9936 215.863 95.5853 214.881 95.5853C213.899 95.5853 212.957 95.9936 212.262 96.7202C211.567 97.4473 211.177 98.433 211.177 99.4609V101.619C211.178 102.342 211.371 103.05 211.736 103.664C212.102 104.278 212.624 104.773 213.243 105.093V106.687C213.243 106.954 213.141 107.209 212.961 107.399C212.78 107.589 212.535 107.698 212.278 107.7C211.176 107.662 210.079 107.863 209.056 108.292C208.033 108.722 207.107 109.37 206.337 110.195C205.566 111.02 204.969 112.004 204.582 113.084C204.196 114.164 204.028 115.316 204.091 116.468H204V91H221.295C222.542 91 223.739 91.5182 224.621 92.4407C225.503 93.3633 225.999 94.6148 226 95.9204Z" fill="#84A17D"/>
<path d="M224.801 165.858L225 165.872C224.574 166.528 223.998 167.065 223.325 167.436C222.651 167.807 221.9 168.001 221.137 168H204V167.464H204.09C204.028 166.335 204.194 165.205 204.577 164.146C204.96 163.087 205.552 162.122 206.315 161.314C207.078 160.505 207.995 159.87 209.009 159.449C210.022 159.028 211.109 158.831 212.2 158.869C212.325 158.869 212.45 158.844 212.566 158.795C212.682 158.746 212.788 158.673 212.877 158.581C212.966 158.489 213.036 158.381 213.085 158.261C213.133 158.141 213.158 158.012 213.158 157.882V156.319C212.544 156.006 212.027 155.521 211.665 154.919C211.303 154.317 211.112 153.622 211.111 152.914V150.8C211.111 149.792 211.498 148.825 212.186 148.113C212.874 147.4 213.807 147 214.78 147C215.753 147 216.686 147.4 217.375 148.113C218.062 148.825 218.449 149.792 218.449 150.8V152.914C218.449 153.622 218.257 154.317 217.895 154.919C217.534 155.521 217.016 156.006 216.402 156.319V157.885C216.403 158.147 216.505 158.398 216.684 158.583C216.864 158.768 217.107 158.872 217.36 158.872H217.78C221.282 158.868 224.213 161.17 224.801 165.858Z" fill="#153C3C"/>
<path d="M225 141.503V142H204V141.317H204.091C204.029 140.196 204.195 139.075 204.58 138.024C204.964 136.973 205.559 136.015 206.325 135.212C207.092 134.41 208.013 133.779 209.03 133.361C210.048 132.943 211.14 132.747 212.236 132.785C212.491 132.785 212.736 132.681 212.917 132.497C213.096 132.313 213.197 132.064 213.198 131.804V130.253C212.581 129.942 212.061 129.461 211.698 128.863C211.335 128.265 211.142 127.576 211.142 126.871V124.772C211.142 123.772 211.53 122.812 212.221 122.105C212.912 121.397 213.85 121 214.827 121C215.804 121 216.742 121.397 217.433 122.105C218.124 122.812 218.512 123.772 218.512 124.772V126.875C218.512 127.579 218.319 128.269 217.956 128.867C217.593 129.465 217.073 129.946 216.456 130.258V131.8C216.457 132.061 216.559 132.31 216.739 132.494C216.92 132.678 217.164 132.781 217.418 132.781H217.84C221.778 132.785 225 135.651 225 141.503Z" fill="#153C3C"/>
<path d="M225 116.653V117H204V116.464H204.091C204.03 115.336 204.197 114.207 204.582 113.149C204.967 112.091 205.562 111.128 206.328 110.32C207.094 109.512 208.015 108.878 209.033 108.457C210.05 108.037 211.14 107.839 212.236 107.877C212.491 107.877 212.735 107.773 212.917 107.588C213.096 107.403 213.197 107.152 213.198 106.891V105.321C212.581 105.008 212.062 104.522 211.699 103.92C211.335 103.319 211.142 102.625 211.142 101.916V99.7996C211.142 98.7918 211.53 97.8255 212.221 97.1132C212.912 96.4003 213.85 96 214.827 96C215.804 96 216.742 96.4003 217.433 97.1132C218.124 97.8255 218.512 98.7918 218.512 99.7996V101.916C218.512 102.625 218.319 103.319 217.955 103.92C217.592 104.522 217.073 105.008 216.456 105.321V106.884C216.457 107.146 216.559 107.398 216.739 107.583C216.92 107.768 217.164 107.871 217.418 107.871H217.84C221.778 107.877 225 110.758 225 116.653Z" fill="#153C3C"/>
<path d="M215.496 65C215.793 64.9995 216.084 65.0866 216.331 65.2514C216.578 65.4157 216.771 65.6501 216.885 65.9239C216.999 66.1982 217.029 66.5003 216.971 66.7916C216.914 67.0828 216.771 67.3501 216.561 67.5601C216.351 67.7702 216.084 67.9136 215.793 67.9713C215.501 68.0291 215.199 67.9992 214.925 67.8857C214.651 67.7717 214.417 67.5791 214.252 67.3322C214.087 67.0847 214 66.7945 214 66.4979C214.001 66.1006 214.158 65.7203 214.439 65.4395C214.719 65.1588 215.099 65.001 215.496 65Z" fill="#FFCEB6"/>
<path d="M208.997 65C209.393 64.9995 209.78 65.0871 210.109 65.2519C210.439 65.4167 210.696 65.6506 210.847 65.9249C210.999 66.1992 211.039 66.5008 210.962 66.7921C210.885 67.0833 210.694 67.3506 210.414 67.5607C210.134 67.7707 209.778 67.9136 209.389 67.9713C209.001 68.0291 208.599 67.9992 208.233 67.8852C207.868 67.7717 207.555 67.5791 207.336 67.3322C207.116 67.0848 206.999 66.7946 207 66.4979C207 66.1006 207.211 65.7198 207.585 65.4391C207.96 65.1583 208.468 65.0005 208.997 65Z" fill="#B3ECDC"/>
<path d="M187 15V22H52V15H187ZM71.1875 18.7878C71.187 18.4645 71.0915 18.1488 70.9122 17.8803C70.7328 17.6118 70.4782 17.4024 70.1805 17.2787C69.8822 17.1556 69.5546 17.1231 69.2389 17.186C68.9226 17.2494 68.632 17.4051 68.4041 17.6335C68.1762 17.8618 68.0208 18.1531 67.9581 18.4699C67.8949 18.7872 67.9271 19.1154 68.0503 19.4143C68.174 19.7126 68.3823 19.9681 68.6506 20.1476C68.9183 20.3272 69.2334 20.4232 69.5556 20.4237C69.7699 20.4243 69.9826 20.3819 70.1805 20.3C70.3789 20.2176 70.5589 20.0972 70.7104 19.9453C70.862 19.7934 70.982 19.6128 71.0637 19.4143C71.1455 19.2157 71.1875 19.0026 71.1875 18.7878ZM64.7697 18.7878C64.7697 18.465 64.6737 18.1488 64.4943 17.8803C64.3155 17.6118 64.0609 17.4024 63.7632 17.2793C63.4655 17.1556 63.1378 17.1231 62.8216 17.186C62.5054 17.2489 62.2153 17.4046 61.9869 17.6329C61.759 17.8613 61.6036 18.1526 61.5409 18.4694C61.4776 18.7861 61.5098 19.1143 61.6325 19.4132C61.7557 19.7121 61.964 19.967 62.2317 20.1471C62.4994 20.3266 62.8145 20.4232 63.1367 20.4237C63.3516 20.4243 63.5636 20.3825 63.7621 20.3C63.9606 20.2181 64.1405 20.0977 64.2921 19.9458C64.4436 19.794 64.5641 19.6133 64.6459 19.4148C64.7282 19.2157 64.7702 19.0031 64.7697 18.7878ZM58.3508 18.7878C58.3508 18.4645 58.2548 18.1488 58.0754 17.8803C57.896 17.6118 57.6414 17.4024 57.3437 17.2787C57.046 17.1556 56.7184 17.1231 56.4021 17.186C56.0859 17.2494 55.7958 17.4051 55.5679 17.6335C55.3395 17.8618 55.1846 18.1531 55.1214 18.4699C55.0587 18.7872 55.0909 19.1154 55.2141 19.4143C55.3373 19.7126 55.5461 19.9681 55.8138 20.1476C56.0821 20.3272 56.3967 20.4232 56.7194 20.4237C56.9337 20.4243 57.1458 20.3819 57.3443 20.3C57.5422 20.2176 57.7221 20.0972 57.8737 19.9453C58.0253 19.7934 58.1452 19.6128 58.2275 19.4143C58.3093 19.2157 58.3513 19.0026 58.3508 18.7878Z" fill="#153C3C"/>
<path d="M183 118.013V122L180 120.039C180.308 119.368 180.752 118.824 181.282 118.466C181.812 118.109 182.407 117.952 183 118.013Z" fill="#FFCEB6"/>
<path d="M170.385 177L178 183H145.615L138 177H170.385Z" fill="#B3ECDC"/>
<path d="M156.571 51.2084C156.69 51.2994 156.789 51.4162 156.862 51.551C156.935 51.6859 156.981 51.8353 156.995 51.99C157.009 52.1446 156.993 52.3011 156.947 52.4482C156.9 52.5953 156.824 52.7307 156.725 52.8451L153.779 56.1389L150.733 59.5402L145.005 65.9504L144.667 66C144.536 65.8477 144.385 65.7163 144.219 65.6089C143.852 65.3643 143.433 65.2248 143 65.2038V65.1939L150.783 56.3712L155.201 51.3514C155.298 51.2405 155.416 51.1518 155.547 51.0911C155.678 51.0309 155.82 50.9994 155.963 51C156.181 51.0006 156.394 51.0736 156.571 51.2084Z" fill="#153C3C"/>
<path d="M150.002 105L153 106.595C152.414 108.538 150 107.9 150 107.9L150.002 105Z" fill="#FFCEB6"/>
<path d="M149 40.0124V44L145 42.0389C145.411 41.3692 146.002 40.8254 146.709 40.4681C147.415 40.11 148.208 39.9525 149 40.0124Z" fill="#FFCEB6"/>
<path d="M145.904 70.7573C146.387 72.091 144.897 73.44 144.897 73.44C143.757 72.6598 141.408 73.7252 140.733 75C138.682 74.7238 138.733 73.6584 139.451 72.6556C139.941 72.0032 140.554 71.4507 141.253 71.0282C142.858 70.0665 145.42 69.4251 145.904 70.7573Z" fill="#FFCEB6"/>
<path d="M144.406 68.2467C146.204 69.3916 145.992 70.8947 145.992 70.8947C145.516 69.4156 142.993 70.1277 141.411 71.1926C140.721 71.6617 140.119 72.2751 139.635 73L139.405 72.8253C139.221 72.8142 139.038 72.7827 138.859 72.7319C137.37 72.3159 138.255 70.8012 138.317 70.692C139.11 70.3538 139.86 69.9028 140.551 69.3502C140.75 69.1778 140.919 68.9646 141.048 68.7222L141.193 68.7461C141.193 68.7461 143.203 67.4797 144.406 68.2467Z" fill="#FFCEB6"/>
<path d="M140.077 75.1433C140.784 73.7851 143.242 72.6552 144.436 73.4848C145.631 74.3149 144.956 76.5747 142.129 79.8167C141.45 80.7178 140.581 81.454 139.586 81.9708C138.589 82.4882 137.492 82.7729 136.373 82.8048L134.36 86.943V87H124V86.9457L128.323 77.6788L132.335 69.9373C132.594 69.5122 132.966 69.1688 133.409 68.9472C135.176 67.9846 137.089 67.3279 139.07 67.004C139.285 66.9901 139.5 67.0124 139.708 67.0706C139.852 67.1148 139.984 67.1931 140.093 67.2983C140.202 67.4034 140.286 67.5326 140.337 67.6764C140.389 67.8196 140.406 67.9734 140.389 68.125C140.371 68.2766 140.319 68.4215 140.236 68.5495C140.099 68.7817 139.92 68.9858 139.708 69.1509C138.974 69.68 138.176 70.1118 137.334 70.4357C137.076 70.5403 136.833 70.6399 136.617 70.721L136.654 70.8245L129.968 77.982C129.868 78.0911 129.793 78.2203 129.746 78.3613C129.7 78.5022 129.683 78.6516 129.697 78.7992C129.712 78.9469 129.758 79.0901 129.83 79.2188C129.904 79.348 130.003 79.4593 130.122 79.5465C130.301 79.6757 130.515 79.7451 130.735 79.7446C130.879 79.7446 131.021 79.7149 131.152 79.6567C131.283 79.5991 131.402 79.5141 131.499 79.4078L137.742 72.7257L137.909 72.389C138.1 72.4382 138.294 72.4679 138.491 72.4785L138.734 72.6457C137.983 73.7175 137.932 74.8502 140.077 75.1433Z" fill="#FFCEB6"/>
<path d="M143.68 65.8329C144.508 66.9567 143.469 68.4801 143.469 68.4801C142.26 67.6736 140.247 69 140.247 69L140.102 68.9748C140.179 68.8349 140.229 68.6753 140.245 68.509C140.262 68.3426 140.245 68.1738 140.197 68.0167C140.148 67.859 140.07 67.7172 139.966 67.6018C139.863 67.4864 139.738 67.4005 139.602 67.352C139.406 67.2882 139.203 67.2636 139 67.279C139.314 66.6241 139.762 66.0723 140.304 65.6739C140.845 65.2762 141.464 65.0442 142.102 65C142.511 65.0221 142.909 65.1688 143.255 65.426C143.413 65.5377 143.556 65.6745 143.68 65.8329Z" fill="#FFCEB6"/>
<path d="M144 167.465V168H125.972C125.189 168.001 124.418 167.812 123.726 167.448C123.034 167.084 122.441 166.556 122 165.912L122.069 165.865C122.678 161.189 125.711 158.899 129.329 158.899H129.768C130.029 158.899 130.28 158.795 130.465 158.611C130.65 158.426 130.753 158.177 130.753 157.916V156.357C130.119 156.045 129.585 155.562 129.211 154.962C128.838 154.362 128.64 153.67 128.642 152.964V150.857C128.632 150.354 128.723 149.854 128.909 149.386C129.096 148.919 129.374 148.493 129.727 148.134C130.081 147.775 130.502 147.49 130.967 147.295C131.432 147.1 131.931 147 132.436 147C132.941 147 133.44 147.1 133.905 147.295C134.37 147.49 134.792 147.775 135.145 148.134C135.498 148.493 135.777 148.919 135.963 149.386C136.149 149.854 136.24 150.354 136.231 150.857V152.964C136.231 153.671 136.033 154.363 135.659 154.963C135.285 155.562 134.75 156.045 134.115 156.357V157.921C134.115 158.181 134.219 158.431 134.404 158.616C134.589 158.8 134.839 158.904 135.101 158.904C136.23 158.865 137.355 159.062 138.403 159.481C139.453 159.9 140.402 160.533 141.192 161.339C141.982 162.145 142.595 163.107 142.991 164.162C143.388 165.217 143.56 166.344 143.495 167.47L144 167.465Z" fill="#153C3C"/>
<path d="M144 142V168H143.493C143.558 166.828 143.385 165.654 142.986 164.555C142.586 163.455 141.97 162.454 141.175 161.614C140.379 160.775 139.423 160.115 138.367 159.678C137.311 159.241 136.179 159.037 135.042 159.077C134.779 159.077 134.526 158.969 134.34 158.777C134.154 158.585 134.049 158.324 134.049 158.053V156.43C134.689 156.105 135.227 155.602 135.603 154.977C135.98 154.352 136.18 153.631 136.18 152.895V150.7C136.161 149.667 135.75 148.683 135.035 147.959C134.321 147.236 133.36 146.83 132.359 146.83C131.358 146.83 130.397 147.236 129.682 147.959C128.968 148.683 128.557 149.667 128.539 150.7V152.895C128.538 153.63 128.737 154.351 129.112 154.976C129.488 155.601 130.026 156.105 130.665 156.43V158.057C130.665 158.329 130.56 158.59 130.374 158.782C130.188 158.974 129.936 159.082 129.672 159.082H129.23C125.59 159.082 122.534 161.471 121.922 166.338L121.852 166.387C121.296 165.554 120.998 164.566 121 163.555V142H144Z" fill="#84A17D"/>
<path d="M144 141.32V142H122V141.505C122 135.668 125.311 132.816 129.352 132.816H129.79C130.052 132.816 130.302 132.713 130.486 132.53C130.671 132.346 130.775 132.097 130.775 131.838V130.293C130.141 129.983 129.608 129.502 129.235 128.906C128.863 128.311 128.665 127.623 128.667 126.922V124.83C128.657 124.331 128.748 123.834 128.934 123.37C129.12 122.906 129.398 122.483 129.751 122.126C130.103 121.77 130.524 121.486 130.988 121.293C131.452 121.099 131.951 121 132.454 121C132.958 121 133.456 121.099 133.92 121.293C134.384 121.486 134.805 121.77 135.158 122.126C135.511 122.483 135.788 122.906 135.974 123.37C136.16 123.834 136.251 124.331 136.242 124.83V126.926C136.241 127.628 136.044 128.315 135.67 128.911C135.297 129.507 134.763 129.987 134.13 130.297V131.835C134.13 132.094 134.234 132.342 134.418 132.525C134.603 132.708 134.853 132.811 135.113 132.812C136.241 132.774 137.363 132.969 138.41 133.385C139.457 133.801 140.404 134.429 141.193 135.23C141.981 136.03 142.593 136.984 142.989 138.032C143.384 139.08 143.556 140.198 143.492 141.315L144 141.32Z" fill="#153C3C"/>
<path d="M144 116.466V117H122V116.654C122 110.775 125.311 107.903 129.352 107.903H129.79C130.051 107.902 130.301 107.799 130.486 107.615C130.67 107.43 130.774 107.18 130.775 106.92V105.359C130.141 105.047 129.608 104.563 129.236 103.963C128.863 103.363 128.666 102.672 128.667 101.966V99.8572C128.657 99.3543 128.748 98.8541 128.934 98.3864C129.12 97.9192 129.398 97.4934 129.751 97.1341C130.103 96.7747 130.524 96.4897 130.988 96.2949C131.452 96.1001 131.951 96 132.454 96C132.958 96 133.456 96.1001 133.92 96.2949C134.384 96.4897 134.805 96.7747 135.158 97.1341C135.511 97.4934 135.788 97.9192 135.974 98.3864C136.16 98.8541 136.251 99.3543 136.242 99.8572V101.966C136.241 102.672 136.044 103.364 135.67 103.964C135.297 104.563 134.763 105.047 134.13 105.359V106.917C134.13 107.178 134.233 107.427 134.418 107.612C134.602 107.796 134.853 107.9 135.113 107.9C136.241 107.862 137.363 108.058 138.41 108.477C139.457 108.897 140.405 109.529 141.193 110.335C141.982 111.142 142.593 112.103 142.989 113.158C143.385 114.214 143.556 115.34 143.492 116.466H144Z" fill="#153C3C"/>
<path d="M138 72.0977L137.857 72.4594L132.54 79.6377C132.457 79.7518 132.356 79.8432 132.244 79.9051C132.132 79.9675 132.011 80 131.889 80C131.702 80 131.519 79.9255 131.367 79.7867C131.265 79.6929 131.18 79.5734 131.118 79.4352C131.056 79.2964 131.017 79.1431 131.004 78.9839C130.992 78.8253 131.006 78.6648 131.046 78.5134C131.085 78.362 131.15 78.2232 131.235 78.106L136.935 70.417L136.903 70.3059C137.087 70.2187 137.294 70.1118 137.514 70C137.459 70.1118 136.651 71.6705 138 72.0977Z" fill="#153C3C"/>
<path d="M115 27L118 28.5948C117.42 30.5369 115.004 29.9001 115.004 29.9001L115 27Z" fill="#FFCEB6"/>
<path d="M117 95.2043V111H110.361V110.836L105.835 105.472C106.738 103.363 107.219 101.097 107.252 98.8015C107.252 96.1363 105.506 92.81 104 90.4315L110.361 86L117 95.2043Z" fill="#FFCEB6"/>
<path d="M103 22V74.8653L102.931 75C101.995 74.5975 101.01 74.3058 100 74.1317L100.043 73.9204V22H103Z" fill="#B3ECDC"/>
<path d="M93.7667 63.1482C94.3942 64.6273 93.6976 66.7776 92.374 66.9732C91.9044 67.0505 91.4256 66.9597 91 66.712C91.5456 65.7562 91.9621 64.7053 92.2353 63.5979C92.3973 63.1374 92.6619 62.6367 92.92 62C93.2866 62.2826 93.5795 62.6802 93.7667 63.1482Z" fill="#153C3C"/>
<path d="M88.8722 72.9072L94 74.5031C94 74.5031 91.1795 77.5835 83.5733 77.9866C78.8037 78.1429 74.0898 76.9327 70 74.5031L76.4594 71.8668L72.2698 67.5767C72.2979 67.5767 71.7179 63.0053 71.7461 63.0015C72.5435 62.9004 78.163 67.8288 78.6216 67.1775L79.8665 67.461C81.0867 68.2881 82.4211 68.9368 83.8288 69.3869L83.8752 69.4015C84.2836 69.5524 87.3552 70.6664 88.7514 71.0878H88.7767L88.79 71.3399L88.8722 72.9072Z" fill="#FFCEB6"/>
<path d="M90.1455 62.4988C90.0029 62.6083 89.8512 62.7041 89.6925 62.7839C89.6925 62.7839 88.1482 62.4213 87.5804 62.3683C87.1274 62.3255 84.558 62.4612 83.5698 62.5234C83.3278 62.533 83.1836 62.5427 83.1836 62.5427C83.8262 63.1346 84.5046 63.6802 85.2134 64.1763C85.5938 64.4762 86.0329 64.6774 86.4971 64.7647C86.9618 64.8519 87.4383 64.8228 87.8907 64.6791C88.7353 64.0713 89.4943 63.3375 90.1455 62.4988ZM70.6614 55.6871C71.3654 54.8569 72.3446 55.3147 72.9781 55.7789C73.6287 56.2852 74.4177 56.5434 75.22 56.5127C79.4507 56.2133 80.3444 49.4158 80.6094 47C80.6094 47 86.4089 47.6757 88.2817 48.6712C88.4607 48.7681 88.6413 48.8747 88.8159 48.9813C90.6546 50.1428 92.0135 52.0135 92.6171 54.2132L92.5717 54.3512C92.4547 54.7138 92.3516 54.955 92.3516 54.955C92.9045 56.2316 93.1102 57.6501 92.944 59.047C92.7747 60.0802 92.474 61.0831 92.0504 62.0279C91.6503 62.9419 91.2283 63.6557 90.9772 64.3137C90.5467 65.8936 89.8918 67.3926 89.036 68.7575C88.7849 69.0797 88.4826 69.3517 88.1429 69.5603C87.8207 69.7565 87.4671 69.8859 87.1001 69.9412C86.0943 70.0672 85.0745 69.9902 84.0949 69.7143C83.9068 69.6658 83.7087 69.6128 83.5249 69.5506L83.4795 69.5352C82.1173 69.0603 80.8252 68.3772 79.6441 67.506L77.5421 67.2067C77.9513 66.6696 78.1991 66.0111 78.2531 65.3189C78.3065 64.6273 78.1639 63.9334 77.8434 63.3307C77.071 62.0267 76.5138 61.5045 74.5545 62.4378C74.0812 62.7018 73.6907 63.1101 73.4321 63.6118L73.297 64.2681C71.9819 63.4527 69.0498 59.1913 70.3061 56.2926C70.3927 56.0708 70.5123 55.8667 70.6614 55.6871Z" fill="#FFCEB6"/>
<path d="M80.609 47.0763C80.6118 47.0841 80.6118 47.0924 80.609 47.1002C80.3196 49.6316 79.2615 57.0787 73.9774 56.3389C73.6051 56.2838 73.2544 56.1286 72.9622 55.89C72.3533 55.3999 71.1088 54.6178 70.2478 55.5757C70.0931 55.7509 69.9662 55.9495 69.8721 56.1642C68.5619 58.9927 71.0242 61.3117 72.3951 62.1071L73.4999 62.8714C73.2555 63.2908 73.1203 63.7658 73.1075 64.252C73.0941 64.7381 73.2032 65.2199 73.4247 65.6526C74.0002 67.288 75.3199 67.1027 76.3273 67.1272L76.1675 71.6328L69.6523 74.3434C66.8065 74.8245 64.0448 75.7195 61.4545 77C59.0256 70.2038 67.0185 58.9816 69.2421 52.3784C69.4753 51.6898 69.1897 46.6468 72.8548 42.4856C74.7121 40.9776 76.8877 39.918 79.2142 39.3884C79.4825 39.3183 79.7402 39.2555 79.9868 39.201C82.4207 38.7404 84.9369 39.0764 87.1677 40.1588C89.3985 41.2418 91.2268 43.0151 92.385 45.219C95.5208 51.6536 93.1242 54.1328 93.1242 54.1328C92.4958 51.9873 91.0804 50.1623 89.1652 49.0292C87.5016 47.6464 85.5341 46.6847 83.427 46.2241C80.5489 45.7569 80.5901 46.9116 80.609 47.0763Z" fill="#153C3C"/>
<path d="M89 49C88.8079 48.893 88.6106 48.7861 88.4133 48.6889C86.3602 47.6902 80.0037 47.0124 80.0037 47.0124C80.006 47.0044 80.006 46.9958 80.0037 46.9878C79.9838 46.818 79.9399 45.6306 82.9668 46.1156C85.1826 46.5903 87.2509 47.5792 89 49Z" fill="#153C3C"/>
<path d="M88.9105 69.0969L89 71H88.9752C87.5507 70.4997 84.4167 69.179 84 69C84.1982 69.0699 84.4071 69.1296 84.6013 69.1841C85.634 69.4946 86.7083 69.5811 87.7691 69.4394C88.1554 69.3772 88.5276 69.2316 88.8666 69.0109L88.9105 69.0969Z" fill="#153C3C"/>
<path d="M76.0549 66.9818C75.4217 67.054 74.7822 66.9096 74.2502 66.5744C73.7187 66.2391 73.3287 65.7348 73.1496 65.1507C73.0202 64.8023 72.9734 64.4309 73.0144 64.0628C73.0549 63.6953 73.1808 63.3409 73.3836 63.0258C73.5783 62.7146 73.8706 62.4701 74.219 62.3263C74.5194 62.1573 74.8544 62.0506 75.2016 62.014C75.5488 61.9779 75.9001 62.0118 76.2323 62.1141C76.5645 62.2164 76.8701 62.3848 77.1289 62.6085C77.3883 62.8317 77.5945 63.1046 77.7349 63.4098C77.9446 63.8462 78.0318 64.327 77.9897 64.805C77.9475 65.2836 77.7759 65.7436 77.4928 66.1401C77.3403 66.3649 77.1387 66.5558 76.903 66.7002C76.6667 66.8445 76.401 66.9392 76.1231 66.978C76.1006 66.9769 76.0798 66.9818 76.0549 66.9818Z" fill="#B3ECDC"/>
<path d="M70 97.5617L69.5882 111H56V97L70 97.5617Z" fill="#FFCEB6"/>
<path d="M62.9971 18C63.3924 17.9995 63.7796 18.0871 64.1094 18.2519C64.4384 18.4167 64.6952 18.6506 64.8471 18.9249C64.9989 19.1992 65.039 19.5008 64.9614 19.7921C64.8845 20.0833 64.6939 20.3506 64.4143 20.5607C64.1341 20.7707 63.7776 20.9136 63.3897 20.9713C63.0011 21.0291 62.5985 20.9992 62.2333 20.8852C61.8675 20.7717 61.5551 20.5791 61.3357 20.3317C61.1164 20.0848 60.9993 19.7946 61 19.4979C61.0007 19.1006 61.2114 18.7198 61.5852 18.4391C61.9598 18.1583 62.4674 18.0005 62.9971 18Z" fill="#FFCEB6"/>
<path d="M56.4975 18C56.7945 17.9995 57.085 18.0871 57.3318 18.2519C57.5791 18.4167 57.7718 18.6506 57.8851 18.9249C57.999 19.1992 58.0291 19.5008 57.9714 19.7921C57.9137 20.0833 57.7708 20.3506 57.5605 20.5607C57.3509 20.7707 57.083 20.9136 56.792 20.9713C56.5005 21.0291 56.199 20.9992 55.9246 20.8852C55.6507 20.7717 55.4164 20.5791 55.2513 20.3317C55.0868 20.0848 54.9995 19.7946 55 19.4979C55 19.1006 55.158 18.7198 55.439 18.4391C55.7194 18.1583 56.1002 18.0005 56.4975 18Z" fill="#B3ECDC"/>
<path d="M227.988 172.166C227.061 172.713 226.009 173.002 224.938 173H123.057C122.261 173.001 121.473 172.842 120.738 172.533C120.003 172.223 119.335 171.77 118.773 171.199C118.21 170.627 117.764 169.949 117.46 169.202C117.156 168.455 116.999 167.655 117 166.847V93.1568C117 91.5239 117.638 89.9586 118.774 88.8043C119.909 87.6499 121.45 87.0011 123.057 87H224.938C225.734 87 226.522 87.1587 227.258 87.4685C227.994 87.7777 228.662 88.2312 229.225 88.8032C229.788 89.3751 230.235 90.0543 230.539 90.8016C230.844 91.5494 231.001 92.3503 231 93.159V166.849C230.999 167.926 230.721 168.983 230.192 169.916C229.664 170.849 228.904 171.625 227.988 172.166Z" stroke="#153C3C" stroke-width="3.23435" stroke-linecap="round" stroke-linejoin="round"/>
<path d="M143.601 167.998H125.769C124.504 167.998 123.291 167.486 122.397 166.574C121.502 165.664 121 164.428 121 163.139V95.8579C121 94.5697 121.502 93.3337 122.397 92.4228C123.291 91.5119 124.504 91 125.769 91H221.231C222.496 91 223.708 91.5119 224.603 92.4228C225.497 93.3337 226 94.5697 226 95.8579V163.142C226 164.431 225.497 165.666 224.603 166.577C223.708 167.488 222.496 168 221.231 168H143.601V167.998Z" stroke="#153C3C" stroke-width="3.23435" stroke-linecap="round" stroke-linejoin="round"/>
<path d="M144 91V116.125V116.663V141.556V142.248V167.459V168" stroke="#153C3C" stroke-width="3.23435" stroke-linecap="round" stroke-linejoin="round"/>
<path d="M204 91V116.125V116.663V141.556V142.248V167.459V168" stroke="#153C3C" stroke-width="3.23435" stroke-linecap="round" stroke-linejoin="round"/>
<path d="M121 117H121.81H144" stroke="#153C3C" stroke-width="3.23435" stroke-linecap="round" stroke-linejoin="round"/>
<path d="M121 142H121.81H144" stroke="#153C3C" stroke-width="3.23435" stroke-linecap="round" stroke-linejoin="round"/>
<path d="M142.988 116.81C143.049 115.658 142.881 114.505 142.495 113.425C142.108 112.346 141.51 111.362 140.74 110.537C139.971 109.713 139.045 109.065 138.023 108.637C137.002 108.207 135.906 108.007 134.805 108.046C134.551 108.046 134.306 107.94 134.127 107.751C133.947 107.562 133.845 107.307 133.845 107.039V105.438C134.464 105.118 134.985 104.622 135.349 104.008C135.714 103.395 135.907 102.686 135.907 101.963V99.8042C135.889 98.7883 135.491 97.8209 134.8 97.1099C134.108 96.3983 133.177 96 132.208 96C131.24 96 130.309 96.3983 129.617 97.1099C128.926 97.8209 128.528 98.7883 128.51 99.8042V101.963C128.509 102.685 128.702 103.394 129.066 104.008C129.43 104.622 129.95 105.117 130.568 105.438V107.033C130.568 107.299 130.467 107.556 130.287 107.744C130.106 107.933 129.862 108.039 129.607 108.04H129.179C125.229 108.04 122 110.984 122 117" stroke="#153C3C" stroke-width="3.23435" stroke-linecap="round" stroke-linejoin="round"/>
<path d="M142.987 141.813C143.05 140.66 142.882 139.507 142.495 138.426C142.109 137.345 141.512 136.361 140.742 135.535C139.972 134.71 139.047 134.062 138.024 133.633C137.002 133.203 135.905 133.002 134.805 133.042C134.55 133.041 134.306 132.934 134.126 132.745C133.946 132.556 133.845 132.3 133.844 132.033V130.439C134.463 130.12 134.984 129.625 135.348 129.012C135.713 128.398 135.907 127.69 135.908 126.967V124.805C135.89 123.789 135.492 122.821 134.8 122.11C134.108 121.398 133.178 121 132.209 121C131.24 121 130.31 121.398 129.618 122.11C128.926 122.821 128.528 123.789 128.51 124.805V126.967C128.509 127.69 128.702 128.399 129.066 129.013C129.43 129.628 129.95 130.123 130.569 130.444V132.029C130.569 132.297 130.468 132.553 130.287 132.742C130.107 132.931 129.863 133.038 129.608 133.038H129.18C125.23 133.038 122 135.984 122 142" stroke="#153C3C" stroke-width="3.23435" stroke-linecap="round" stroke-linejoin="round"/>
<path d="M142.987 168C143.05 166.837 142.882 165.673 142.494 164.583C142.106 163.492 141.505 162.498 140.731 161.665C139.958 160.832 139.027 160.178 138 159.745C136.973 159.312 135.871 159.109 134.764 159.149C134.508 159.149 134.263 159.042 134.082 158.851C133.901 158.661 133.8 158.402 133.799 158.133V156.523C134.421 156.2 134.945 155.701 135.311 155.081C135.677 154.462 135.872 153.746 135.872 153.016V150.839C135.853 149.815 135.454 148.838 134.759 148.12C134.064 147.402 133.128 147 132.155 147C131.181 147 130.246 147.402 129.55 148.12C128.856 148.838 128.456 149.815 128.437 150.839V153.016C128.437 153.746 128.63 154.461 128.996 155.081C129.361 155.701 129.885 156.2 130.506 156.523V158.137C130.506 158.407 130.404 158.665 130.223 158.856C130.042 159.046 129.797 159.153 129.54 159.153H129.11C125.568 159.153 122.596 161.524 122 166.352" stroke="#153C3C" stroke-width="3.23435" stroke-linecap="round" stroke-linejoin="round"/>
<path d="M226 117H225.103H204" stroke="#153C3C" stroke-width="3.23435" stroke-linecap="round" stroke-linejoin="round"/>
<path d="M226 142H225.103H204" stroke="#153C3C" stroke-width="3.23435" stroke-linecap="round" stroke-linejoin="round"/>
<path d="M204.013 116.811C203.95 115.663 204.118 114.515 204.504 113.439C204.891 112.363 205.488 111.383 206.257 110.562C207.026 109.74 207.951 109.095 208.972 108.667C209.993 108.239 211.088 108.038 212.188 108.077C212.444 108.077 212.689 107.971 212.872 107.783C213.051 107.595 213.153 107.34 213.153 107.074V105.478C212.534 105.159 212.013 104.666 211.649 104.054C211.284 103.442 211.091 102.736 211.09 102.015V99.8635C211.09 98.8388 211.48 97.8562 212.173 97.1319C212.867 96.4071 213.808 96 214.789 96C215.769 96 216.71 96.4071 217.404 97.1319C218.098 97.8562 218.487 98.8388 218.487 99.8635V102.015C218.487 102.736 218.293 103.442 217.929 104.054C217.564 104.666 217.043 105.159 216.424 105.478V107.067C216.425 107.334 216.527 107.589 216.708 107.777C216.89 107.965 217.134 108.071 217.39 108.07H217.812C221.766 108.07 225 111.006 225 117" stroke="#153C3C" stroke-width="3.23435" stroke-linecap="round" stroke-linejoin="round"/>
<path d="M204.013 141.813C203.95 140.665 204.117 139.516 204.503 138.439C204.89 137.363 205.486 136.381 206.256 135.559C207.025 134.737 207.949 134.091 208.971 133.663C209.992 133.235 211.088 133.034 212.188 133.073C212.444 133.073 212.69 132.966 212.872 132.777C213.052 132.589 213.153 132.334 213.154 132.068V130.479C212.535 130.16 212.013 129.667 211.649 129.055C211.284 128.443 211.091 127.736 211.09 127.014V124.864C211.09 123.839 211.48 122.857 212.174 122.132C212.867 121.407 213.808 121 214.789 121C215.77 121 216.711 121.407 217.404 122.132C218.098 122.857 218.487 123.839 218.487 124.864V127.019C218.487 127.74 218.294 128.446 217.929 129.059C217.565 129.671 217.043 130.165 216.424 130.483V132.064C216.425 132.331 216.528 132.586 216.709 132.774C216.89 132.963 217.134 133.069 217.39 133.069H217.813C221.766 133.069 225 136.005 225 142" stroke="#153C3C" stroke-width="3.23435" stroke-linecap="round" stroke-linejoin="round"/>
<path d="M204.013 168C203.95 166.842 204.118 165.682 204.506 164.596C204.894 163.509 205.494 162.519 206.267 161.689C207.04 160.859 207.97 160.207 208.997 159.776C210.024 159.343 211.125 159.14 212.231 159.18C212.358 159.181 212.484 159.155 212.602 159.104C212.72 159.053 212.827 158.979 212.917 158.885C213.007 158.791 213.078 158.679 213.127 158.556C213.176 158.433 213.201 158.301 213.202 158.167V156.563C212.58 156.242 212.055 155.744 211.689 155.126C211.322 154.509 211.128 153.796 211.127 153.068V150.899C211.127 149.865 211.52 148.873 212.216 148.142C212.914 147.411 213.86 147 214.846 147C215.832 147 216.777 147.411 217.475 148.142C218.172 148.873 218.564 149.865 218.564 150.899V153.068C218.563 153.796 218.369 154.509 218.003 155.126C217.636 155.744 217.112 156.242 216.489 156.563V158.171C216.491 158.441 216.593 158.698 216.775 158.888C216.957 159.078 217.204 159.185 217.46 159.184H217.885C221.428 159.184 224.404 161.546 225 166.357" stroke="#153C3C" stroke-width="3.23435" stroke-linecap="round" stroke-linejoin="round"/>
<path d="M204 87.027V70.1321V63H303V70.1321V130H230.887" stroke="#153C3C" stroke-width="3.23435" stroke-linecap="round" stroke-linejoin="round"/>
<path d="M204 70H303" stroke="#153C3C" stroke-width="3.23435" stroke-linecap="round" stroke-linejoin="round"/>
<path d="M211 66.4978C211.001 66.7945 210.884 67.0847 210.665 67.3315C210.445 67.5784 210.134 67.7711 209.768 67.8851C209.403 67.9991 209.001 68.0289 208.613 67.9717C208.224 67.9139 207.868 67.7716 207.587 67.562C207.308 67.3525 207.116 67.0852 207.039 66.7945C206.961 66.5033 207.001 66.2016 207.151 65.9273C207.302 65.6531 207.559 65.4186 207.888 65.2539C208.216 65.0886 208.603 65.0005 208.999 65C209.261 65 209.521 65.0383 209.764 65.1135C210.007 65.1887 210.227 65.2987 210.413 65.438C210.599 65.5769 210.746 65.7422 210.847 65.9239C210.948 66.1055 211 66.3007 211 66.4978Z" stroke="#153C3C" stroke-width="3.23435" stroke-linecap="round" stroke-linejoin="round"/>
<path d="M217 66.4978C217 66.7945 216.913 67.0842 216.749 67.3316C216.584 67.5785 216.35 67.7712 216.076 67.8852C215.802 67.9987 215.501 68.029 215.21 67.9718C214.919 67.914 214.651 67.7717 214.441 67.5626C214.231 67.353 214.087 67.0857 214.029 66.795C213.971 66.5043 214 66.2027 214.113 65.9284C214.226 65.6541 214.418 65.4196 214.664 65.2544C214.911 65.0891 215.201 65.0005 215.498 65C215.695 64.9995 215.89 65.0378 216.072 65.113C216.254 65.1882 216.42 65.2982 216.559 65.4376C216.699 65.5764 216.809 65.7417 216.885 65.9239C216.961 66.1056 217 66.3007 217 66.4978Z" stroke="#153C3C" stroke-width="3.23435" stroke-linecap="round" stroke-linejoin="round"/>
<path d="M223 66.4978C223 66.7945 222.913 67.0847 222.748 67.3315C222.584 67.5784 222.35 67.7711 222.076 67.8851C221.802 67.9991 221.5 68.0289 221.209 67.9717C220.918 67.9139 220.651 67.7716 220.441 67.562C220.231 67.3525 220.087 67.0852 220.029 66.7945C219.971 66.5033 220 66.2016 220.114 65.9273C220.227 65.6531 220.419 65.4186 220.666 65.2539C220.912 65.0886 221.202 65.0005 221.499 65C221.696 64.9995 221.891 65.0378 222.073 65.113C222.255 65.1882 222.421 65.2982 222.56 65.4375C222.7 65.5764 222.81 65.7417 222.886 65.9239C222.961 66.1055 223 66.3007 223 66.4978Z" stroke="#153C3C" stroke-width="3.23435" stroke-linecap="round" stroke-linejoin="round"/>
<path d="M116.702 111H110.494H103.309H69.4315H56.1177H52V22.2005V15H187V22.2005V87.0053" stroke="#153C3C" stroke-width="3.23435" stroke-linecap="round" stroke-linejoin="round"/>
<path d="M52 22H100.558H103.309H187" stroke="#153C3C" stroke-width="3.23435" stroke-linecap="round" stroke-linejoin="round"/>
<path d="M58 19.4978C58.0005 19.7945 57.9127 20.0847 57.7487 20.3315C57.5841 20.5784 57.3499 20.7711 57.076 20.8851C56.8021 20.9991 56.5006 21.0289 56.2091 20.9717C55.9181 20.9139 55.6508 20.7716 55.4406 20.562C55.2304 20.3525 55.0874 20.0852 55.0292 19.7945C54.971 19.5033 55.0001 19.2016 55.1135 18.9273C55.2269 18.6531 55.419 18.4186 55.6653 18.2539C55.9121 18.0886 56.2021 18.0005 56.4986 18C56.8964 18 57.2776 18.1573 57.5596 18.438C57.841 18.7188 57.9995 19.1001 58 19.4978Z" stroke="#153C3C" stroke-width="3.23435" stroke-linecap="round" stroke-linejoin="round"/>
<path d="M65 19.4979C65.0007 19.7945 64.8836 20.0842 64.6643 20.3311C64.4456 20.5786 64.1332 20.7712 63.7681 20.8847C63.4029 20.9987 63.001 21.0291 62.6131 20.9718C62.2252 20.9141 61.8681 20.7717 61.5878 20.5626C61.3083 20.3531 61.117 20.0857 61.0394 19.795C60.9612 19.5043 61 19.2027 61.1511 18.9284C61.3016 18.6541 61.5577 18.4196 61.8861 18.2544C62.2145 18.0891 62.601 18.0005 62.997 18C63.2591 18 63.5193 18.0383 63.7621 18.1135C64.0048 18.1887 64.2255 18.2987 64.4115 18.4376C64.598 18.5769 64.7452 18.7422 64.8462 18.9239C64.9472 19.1056 64.9993 19.3007 65 19.4979Z" stroke="#153C3C" stroke-width="3.23435" stroke-linecap="round" stroke-linejoin="round"/>
<path d="M71 19.4978C71.0005 19.7945 70.9132 20.0847 70.7487 20.3315C70.5841 20.5784 70.3503 20.7711 70.0759 20.8851C69.802 20.9991 69.5005 21.0289 69.2095 20.9717C68.9181 20.9139 68.6507 20.7716 68.4405 20.562C68.2308 20.3525 68.0873 20.0852 68.0291 19.7945C67.9709 19.5033 68.0005 19.2016 68.1134 18.9273C68.2268 18.6531 68.4189 18.4186 68.6657 18.2539C68.912 18.0886 69.202 18.0005 69.499 18C69.8963 18 70.2781 18.1573 70.5595 18.438C70.841 18.7188 70.9995 19.1001 71 19.4978Z" stroke="#153C3C" stroke-width="3.23435" stroke-linecap="round" stroke-linejoin="round"/>
<path d="M161.575 202.121L121 173V174.607C120.999 175.7 121.258 176.777 121.754 177.748C122.25 178.718 122.968 179.554 123.849 180.185L172.056 214.786C174.066 216.224 176.465 216.998 178.925 217H278.131C278.771 217.001 279.404 216.873 279.995 216.625C280.585 216.378 281.122 216.014 281.574 215.556C282.027 215.098 282.385 214.554 282.629 213.955C282.874 213.357 283 212.715 283 212.067V211.861" stroke="#153C3C" stroke-width="3.23435" stroke-linecap="round" stroke-linejoin="round"/>
<path d="M227.63 172L283 212H175" stroke="#153C3C" stroke-width="3.23435" stroke-linecap="round" stroke-linejoin="round"/>
<path d="M220 82H287" stroke="#153C3C" stroke-width="3.23435" stroke-linecap="round" stroke-linejoin="round"/>
<path d="M232 97H287" stroke="#153C3C" stroke-width="3.23435" stroke-linecap="round" stroke-linejoin="round"/>
<path d="M232 113H287" stroke="#153C3C" stroke-width="3.23435" stroke-linecap="round" stroke-linejoin="round"/>
<path d="M91 153H117" stroke="#153C3C" stroke-width="3.23435" stroke-linecap="round" stroke-linejoin="round"/>
<path d="M233 153H266" stroke="#153C3C" stroke-width="3.23435" stroke-linecap="round" stroke-linejoin="round"/>
<path d="M162 202L175 211.644V216" stroke="#153C3C" stroke-width="3.23435" stroke-linecap="round" stroke-linejoin="round"/>
<path d="M201.471 208L191 201H233" stroke="#84A17D" stroke-width="3.23435" stroke-linecap="round" stroke-linejoin="round"/>
<path d="M232.529 201L243 208H201" stroke="#153C3C" stroke-width="3.23435" stroke-linecap="round" stroke-linejoin="round"/>
<path d="M254 197H224.743H165.685L145.651 182.529L138 177H170.537H226.315L245.405 190.793L254 197Z" stroke="#153C3C" stroke-width="3.23435" stroke-linecap="round" stroke-linejoin="round"/>
<path d="M147 183H178.971H222" stroke="#153C3C" stroke-width="3.23435" stroke-linecap="round" stroke-linejoin="round"/>
<path d="M169 191H216.67H245" stroke="#153C3C" stroke-width="3.23435" stroke-linecap="round" stroke-linejoin="round"/>
<path d="M171 177L178.344 182.386L186 188" stroke="#153C3C" stroke-width="3.23435" stroke-linecap="round" stroke-linejoin="round"/>
<path d="M208 186L215.834 191.387L224 197" stroke="#153C3C" stroke-width="3.23435" stroke-linecap="round" stroke-linejoin="round"/>
<path d="M184.997 137C186.311 137.001 187.611 137.245 188.825 137.72C190.039 138.196 191.142 138.892 192.07 139.771C192.999 140.649 193.735 141.692 194.238 142.839C194.74 143.986 194.998 145.216 194.998 146.458C195.001 146.488 195.001 146.518 194.998 146.549C194.998 149.056 193.945 151.459 192.07 153.232C190.195 155.004 187.652 156 185 156C182.348 156 179.806 155.004 177.931 153.232C176.055 151.459 175.002 149.056 175.002 146.549C174.999 146.518 174.999 146.488 175.002 146.458C175.002 143.951 176.054 141.546 177.928 139.772C179.803 137.999 182.346 137.002 184.997 137Z" stroke="#153C3C" stroke-width="3.23435" stroke-linecap="round" stroke-linejoin="round"/>
<path d="M185 130V136.356V146.482V156.409V162" stroke="#153C3C" stroke-width="3.23435" stroke-linecap="round" stroke-linejoin="round"/>
<path d="M200 146H194.392H185.001H175.609H170" stroke="#153C3C" stroke-width="3.23435" stroke-linecap="round" stroke-linejoin="round"/>
<path d="M150 56.3866C150.061 53.8772 151.141 51.49 153.01 49.736C154.879 47.9821 157.387 47 159.999 47C162.611 47 165.119 47.9821 166.988 49.736C168.856 51.49 169.937 53.8772 169.998 56.3866C170.001 56.4194 170.001 56.4522 169.998 56.4849C169.974 58.7493 169.119 60.9329 167.583 62.6508C166.048 64.3682 163.931 65.5102 161.605 65.8748C159.28 66.2389 156.894 65.8028 154.871 64.6428C152.847 63.4827 151.315 61.6731 150.543 59.5332" stroke="#153C3C" stroke-width="3.23435" stroke-linecap="round" stroke-linejoin="round"/>
<path d="M159 40V46.3581V56.483V66.4047V72" stroke="#153C3C" stroke-width="3.23435" stroke-linecap="round" stroke-linejoin="round"/>
<path d="M151 56H150.463H144" stroke="#153C3C" stroke-width="3.23435" stroke-linecap="round" stroke-linejoin="round"/>
<path d="M175 56H169.337H159.851H154" stroke="#153C3C" stroke-width="3.23435" stroke-linecap="round" stroke-linejoin="round"/>
<path d="M150 108.23V114.59L165.064 112.761L183 110.584V118.69V122L179.831 120.366L165.064 112.761L153.449 106.776L150 105V108.23Z" stroke="#153C3C" stroke-width="3.23435" stroke-linecap="round" stroke-linejoin="round"/>
<path d="M115 30.2297V36.5934L130.525 34.7615L149 32.5825V40.6904V44L145.734 42.3659L130.525 34.7615L118.552 28.7761L115 27V30.2297Z" stroke="#153C3C" stroke-width="3.23435" stroke-linecap="round" stroke-linejoin="round"/>
<path d="M170 142H158V137.078V130H165.079H170V142Z" stroke="#153C3C" stroke-width="3.23435" stroke-linecap="round" stroke-linejoin="round"/>
<path d="M165 137H158.511H154V126H165V130.512V137Z" stroke="#153C3C" stroke-width="3.23435" stroke-linecap="round" stroke-linejoin="round"/>
<path d="M154 126L158 130" stroke="#153C3C" stroke-width="3.23435" stroke-linecap="round" stroke-linejoin="round"/>
<path d="M165 126L170 130" stroke="#153C3C" stroke-width="3.23435" stroke-linecap="round" stroke-linejoin="round"/>
<path d="M165 137L170 142" stroke="#153C3C" stroke-width="3.23435" stroke-linecap="round" stroke-linejoin="round"/>
<path d="M154 137L158 142" stroke="#153C3C" stroke-width="3.23435" stroke-linecap="round" stroke-linejoin="round"/>
<path d="M128 68H117V63.4878V57H123.489H128V68Z" stroke="#153C3C" stroke-width="3.23435" stroke-linecap="round" stroke-linejoin="round"/>
<path d="M123 63H116.511H112V52H123V56.5122V63Z" stroke="#153C3C" stroke-width="3.23435" stroke-linecap="round" stroke-linejoin="round"/>
<path d="M112 52L117 57" stroke="#153C3C" stroke-width="3.23435" stroke-linecap="round" stroke-linejoin="round"/>
<path d="M123 52L128 57" stroke="#153C3C" stroke-width="3.23435" stroke-linecap="round" stroke-linejoin="round"/>
<path d="M123 63L128 68" stroke="#153C3C" stroke-width="3.23435" stroke-linecap="round" stroke-linejoin="round"/>
<path d="M112 63L117 68" stroke="#153C3C" stroke-width="3.23435" stroke-linecap="round" stroke-linejoin="round"/>
<path d="M100 22V74" stroke="#153C3C" stroke-width="3.23435" stroke-linecap="round" stroke-linejoin="round"/>
<path d="M103 22V75" stroke="#153C3C" stroke-width="3.23435" stroke-linecap="round" stroke-linejoin="round"/>
<path d="M69.4172 94.6351V97L55.5272 96.4446L54 96.3845C54 96.3845 54.1027 85.4849 56.9615 80.556C58.0304 78.9273 59.5244 77.6263 61.2796 76.7968C63.8508 75.525 66.592 74.6354 69.4172 74.1572C73.5095 76.6347 78.2256 77.8679 82.9975 77.709C90.6073 77.2976 93.4286 74.1572 93.4286 74.1572C95.7795 73.892 98.1552 73.9626 100.486 74.3674C101.438 74.5411 102.366 74.8312 103.248 75.2316C103.92 75.5349 104.54 75.9453 105.083 76.4471C107.729 79.2119 110.05 82.2739 112 85.5737L110.585 86.5642L104.566 90.7761" stroke="#153C3C" stroke-width="3.23435" stroke-linecap="round" stroke-linejoin="round"/>
<path d="M56 97V111" stroke="#153C3C" stroke-width="3.23435" stroke-linecap="round" stroke-linejoin="round"/>
<path d="M70 94V111" stroke="#153C3C" stroke-width="3.23435" stroke-linecap="round" stroke-linejoin="round"/>
<path d="M102 88C102 88 102.747 89.1822 103.598 90.8808C104.711 93.1095 105.997 96.2262 106 98.7235C105.976 100.874 105.621 102.998 104.953 104.974C104.367 106.781 103.581 108.474 102.62 110" stroke="#153C3C" stroke-width="3.23435" stroke-linecap="round" stroke-linejoin="round"/>
<path d="M80 56C80.7224 55.6045 81.4563 55.3172 82.1964 55.1397C82.7989 54.8794 83.4221 54.9842 84 55.4423" stroke="#153C3C" stroke-width="3.23435" stroke-linecap="round" stroke-linejoin="round"/>
<path d="M84.8141 63.1673C85.0075 63.1577 85.2191 63.147 85.433 63.1359C85.6468 63.1249 85.8573 63.1137 86.0489 63.1034C86.5198 63.0784 87.0212 63.0503 87.4661 63.0277C87.9112 63.005 88.089 62.9997 87.9583 63.0087" stroke="#153C3C" stroke-width="3.23435" stroke-linecap="round" stroke-linejoin="round"/>
<path d="M84 69C82.2235 68.5326 80.5397 67.859 79 67" stroke="#153C3C" stroke-width="3.23435" stroke-linecap="round" stroke-linejoin="round"/>
<path d="M92 62C91.6258 62.9166 91.2301 63.6336 90.9932 64.2933C90.5894 65.8788 89.9763 67.383 89.1744 68.7528C88.9365 69.0772 88.6504 69.3502 88.3293 69.559C88.0278 69.7558 87.6967 69.8851 87.3531 69.9406C86.4094 70.0677 85.4536 69.9904 84.535 69.7129C84.3576 69.6643 84.1728 69.6116 84 69.5493" stroke="#153C3C" stroke-width="3.23435" stroke-linecap="round" stroke-linejoin="round"/>
<path d="M92.5516 54C92.4293 54.3785 92.3216 54.6292 92.3216 54.6292C92.8999 55.9596 93.1149 57.4379 92.9418 58.8936C92.7615 59.9703 92.4444 61.0154 92 62" stroke="#153C3C" stroke-width="3.23435" stroke-linecap="round" stroke-linejoin="round"/>
<path d="M91 53.0319C90.7261 52.9628 90.4494 53.0062 90.1802 53.1586C89.7789 53.357 89.3841 53.6386 89 54" stroke="#153C3C" stroke-width="3.23435" stroke-linecap="round" stroke-linejoin="round"/>
<path d="M89 69V70.8752V71.1697V73" stroke="#153C3C" stroke-width="3.23435" stroke-linecap="round" stroke-linejoin="round"/>
<path d="M94 74L89 73" stroke="#153C3C" stroke-width="3.23435" stroke-linecap="round" stroke-linejoin="round"/>
<path d="M76 67L75.8564 71.3706L70 74" stroke="#153C3C" stroke-width="3.23435" stroke-linecap="round" stroke-linejoin="round"/>
<path d="M73.8267 55.9829C73.8267 55.9829 71.911 54.228 70.7194 55.408C70.563 55.5668 70.4347 55.7462 70.3396 55.9402C69.0152 58.4952 71.8446 61.3009 74 62" stroke="#153C3C" stroke-width="3.23435" stroke-linecap="round" stroke-linejoin="round"/>
<path d="M77.4892 66.1401C77.7749 65.7444 77.9475 65.2841 77.9896 64.8046C78.0323 64.3257 77.9429 63.844 77.731 63.4078C77.5902 63.1034 77.3835 62.8309 77.1243 62.6081C76.8652 62.3848 76.5598 62.2167 76.2285 62.1144C75.8966 62.012 75.5462 61.9781 75.1998 62.0137C74.8535 62.0498 74.5187 62.1554 74.218 62.3235C73.8716 62.4702 73.5801 62.7148 73.3833 63.0235C73.1807 63.3388 73.0548 63.6935 73.0144 64.0618C72.9734 64.4297 73.0202 64.8013 73.1495 65.15C73.3308 65.7329 73.721 66.2365 74.252 66.5714C74.7825 66.907 75.4203 67.0526 76.0524 66.983C76.072 66.983 76.0911 66.983 76.1107 66.983C76.3901 66.9442 76.6573 66.8489 76.8952 66.7039C77.133 66.5583 77.3356 66.3662 77.4892 66.1401Z" stroke="#153C3C" stroke-width="3.23435" stroke-linecap="round" stroke-linejoin="round"/>
<path d="M91 66.7109C91.4251 66.9607 91.9042 67.0515 92.3737 66.972C93.6967 66.7759 94.3936 64.6235 93.7676 63.1471C93.5805 62.6775 93.2858 62.2799 92.916 62" stroke="#153C3C" stroke-width="3.23435" stroke-linecap="round" stroke-linejoin="round"/>
<path d="M84 69L84.0471 69.0172C84.4619 69.1947 87.5818 70.5045 89 71" stroke="#153C3C" stroke-width="3.23435" stroke-linecap="round" stroke-linejoin="round"/>
<path d="M80.0037 46.9833C79.9838 46.8142 79.9406 45.6323 82.9606 46.1151C85.1736 46.5871 87.2393 47.5715 88.9854 48.9863L89 49" stroke="#153C3C" stroke-width="3.23435" stroke-linecap="round" stroke-linejoin="round"/>
<path d="M75 43.0038C75 43.0038 79.4154 42.7239 79.9985 46.9762C80.0005 46.9843 80.0005 46.9924 79.9985 47" stroke="#153C3C" stroke-width="3.23435" stroke-linecap="round" stroke-linejoin="round"/>
<path d="M73.445 55.7271C79.614 58.0073 80.3103 49.4439 80.6147 46.8832C80.6147 46.8832 86.6491 47.525 88.6071 48.4707C88.7952 48.5628 88.9827 48.664 89.1653 48.7653C91.0805 49.8686 92.4958 51.6456 93.1242 53.7351C93.1242 53.7351 95.5208 51.3217 92.3851 45.0553C91.2263 42.9095 89.3985 41.1828 87.1678 40.1283C84.937 39.0743 82.4208 38.7472 79.9869 39.1957C79.7381 39.2487 79.481 39.3099 79.2144 39.3782C76.8874 39.8938 74.7123 40.9256 72.855 42.3939C69.19 46.4456 69.4755 51.3558 69.2423 52.0263C67.0189 58.4557 59.0259 69.3854 61.4543 76" stroke="#153C3C" stroke-width="3.23435" stroke-linecap="round" stroke-linejoin="round"/>
<path d="M138.64 69.6175C139.564 69.2765 140.44 68.8218 141.245 68.2647C141.478 68.0909 141.675 67.876 141.826 67.6315C141.916 67.4967 141.974 67.3441 141.993 67.1845C142.012 67.0249 141.993 66.8629 141.937 66.7122C141.88 66.5608 141.788 66.4248 141.668 66.314C141.548 66.2033 141.404 66.1209 141.245 66.0743C141.018 66.0131 140.781 65.9895 140.546 66.0043C138.372 66.3453 136.271 67.0367 134.332 68.0503C133.846 68.2829 133.437 68.6446 133.153 69.0927L128.747 77.2439L124 87" stroke="#153C3C" stroke-width="3.23435" stroke-linecap="round" stroke-linejoin="round"/>
<path d="M111 87L117 96" stroke="#153C3C" stroke-width="3.23435" stroke-linecap="round" stroke-linejoin="round"/>
<path d="M106 103L111 110" stroke="#153C3C" stroke-width="3.23435" stroke-linecap="round" stroke-linejoin="round"/>
<path d="M135 87L136.893 82.7836C137.944 82.7511 138.976 82.4604 139.912 81.9338C140.848 81.4072 141.665 80.6571 142.303 79.7389C144.961 76.4355 145.59 74.1313 144.473 73.2872C143.355 72.4431 141.039 73.5961 140.374 74.9771C139.709 76.358 140.22 78.2417 143.447 75.5954" stroke="#153C3C" stroke-width="3.23435" stroke-linecap="round" stroke-linejoin="round"/>
<path d="M144.994 74C144.994 74 145.17 70.8852 143.673 68.5124C142.67 66.9229 141 69.539 141 69.539" stroke="#153C3C" stroke-width="3.23435" stroke-linecap="round" stroke-linejoin="round"/>
<path d="M145 66L150.729 59.5713L153.775 56.1597L156.722 52.8564C156.91 52.6421 157.009 52.3571 156.999 52.0644C156.989 51.7711 156.87 51.4948 156.668 51.2952C156.465 51.0961 156.197 50.9902 155.921 51.0007C155.645 51.0113 155.384 51.1383 155.196 51.3531L150.777 56.3874L143 65.2408" stroke="#153C3C" stroke-width="3.23435" stroke-linecap="round" stroke-linejoin="round"/>
<path d="M141.379 66L131.41 77.2337C131.262 77.4049 131.15 77.6077 131.08 77.8289C131.011 78.0502 130.986 78.2846 131.008 78.5163C131.029 78.7481 131.097 78.9728 131.206 79.1748C131.316 79.3776 131.463 79.5523 131.64 79.6892C131.908 79.892 132.227 80.0009 132.555 80C132.769 80 132.98 79.9535 133.175 79.8622C133.371 79.7717 133.547 79.6383 133.693 79.4715L143 68.984" stroke="#153C3C" stroke-width="3.23435" stroke-linecap="round" stroke-linejoin="round"/>
</g>
<defs>
<clipPath id="clip0_7_661">
<rect width="355" height="232" fill="white"/>
</clipPath>
</defs>
</svg>
