<svg width="355" height="232" viewBox="0 0 355 232" fill="none" xmlns="http://www.w3.org/2000/svg">
<g clip-path="url(#clip0_7_575)">
<path d="M355 0H0V232H355V0Z" fill="#E6FFA0"/>
<path d="M162.097 141.991C161.964 141.403 161.967 140.792 162.109 140.205C163.214 135.387 163.047 128.277 164.15 122.496C165.253 116.715 168.889 117.365 172.909 115.98C175.476 115.092 177.877 113.728 180.611 112.476C182.239 111.709 183.925 111.066 185.652 110.553C190.771 109.067 203.619 114.408 209.842 115.39C211.312 115.621 212.762 115.968 214.175 116.43L214.203 116.345C214.203 116.345 242.583 97.1676 250.002 91.9156C257.422 86.6636 272.653 76 272.653 76L290 115.389C290 115.389 255.941 137.583 250.9 141.959C245.86 146.334 234.774 151.896 234.774 151.896L234.685 151.875C234.008 154.93 231.757 158.416 225.551 161.871L225.176 162C224.15 159.67 222.851 157.466 221.307 155.433C215.117 144.207 189.873 127.573 187.69 127.931C185.508 128.289 179.48 129.071 179.48 129.071C179.037 130.384 177.184 131.119 177.184 131.119H177.026C177.056 135.09 175.672 138.946 173.116 142.015C169.077 147.038 162.928 145.613 162.097 141.991Z" fill="#FFCEB6"/>
<path d="M232.511 43.5873C232.913 45.3754 233.068 47.2071 232.973 49.0348C232.953 49.3549 232.865 49.667 232.713 49.9515C232.561 50.2356 232.35 50.486 232.092 50.6855C231.834 50.8849 231.536 51.0295 231.218 51.1096C230.898 51.1898 230.566 51.2037 230.241 51.1502L221.709 49.78C221.186 49.6985 220.707 49.4463 220.351 49.0649C219.995 48.6831 219.784 48.195 219.751 47.6808C219.718 46.3146 219.211 44.9998 218.313 43.9489C217.946 43.5342 217.534 43.1595 217.086 42.8304L214.63 57.3046L218.137 59.3686C222.96 62.1351 226.059 65.3443 227.435 68.9969C228.81 72.6455 229.175 76.5818 228.492 80.411C228.06 83.1068 227.076 85.6914 225.599 88.0112C224.192 90.2207 222.376 92.1583 220.244 93.7257C218.086 95.2972 215.62 96.4224 212.998 97.0316C211.296 97.4378 209.546 97.6251 207.795 97.5891L206.62 104.52C206.554 104.904 206.412 105.272 206.201 105.602C205.99 105.933 205.713 106.219 205.388 106.446C205.063 106.673 204.695 106.835 204.305 106.923C203.916 107.011 203.512 107.024 203.118 106.96C202.723 106.897 202.345 106.759 202.006 106.553C201.666 106.347 201.371 106.079 201.138 105.762C200.906 105.446 200.739 105.088 200.648 104.709C200.557 104.33 200.544 103.937 200.609 103.553L201.771 96.7074C197.58 95.6241 193.875 93.2223 191.232 89.8772C189.946 88.2967 188.938 86.5199 188.25 84.6184C188.039 84.0528 187.85 83.472 187.685 82.869C187.256 81.3007 187.026 79.6865 187.001 78.0632C186.988 77.536 187.096 77.0123 187.315 76.5296C187.534 76.0473 187.859 75.6178 188.269 75.2715C188.678 74.9253 189.16 74.6709 189.682 74.5263C190.203 74.3822 190.751 74.3512 191.286 74.4363L194.891 75.0194L197.448 75.4287C198.206 75.5529 198.905 75.9042 199.448 76.4328C199.991 76.9619 200.351 77.6422 200.478 78.3793C200.656 79.3997 200.96 80.3952 201.384 81.3449C201.887 82.4665 202.802 83.3657 203.95 83.8664L206.719 67.5394L203.659 65.8481C199.863 63.8349 196.73 60.8185 194.621 57.147C192.636 53.4578 192.004 49.2207 192.829 45.1349C193.262 42.4332 194.269 39.8495 195.786 37.5477C197.231 35.3553 199.114 33.4687 201.324 31.9999C203.434 30.5302 205.838 29.5076 208.381 28.9979C210.006 28.6678 211.666 28.5269 213.325 28.5768L214.358 22.481C214.49 21.7056 214.933 21.0126 215.59 20.5547C215.915 20.3282 216.283 20.1661 216.672 20.0774C217.062 19.9892 217.466 19.9761 217.86 20.0396C218.255 20.1031 218.633 20.2418 218.973 20.4471C219.313 20.6524 219.607 20.9212 219.84 21.2378C220.073 21.5539 220.24 21.9118 220.331 22.291C220.422 22.6701 220.435 23.0628 220.37 23.4468L219.34 29.5274C220.989 30.0083 222.565 30.6981 224.028 31.5802C226.202 32.8784 228.069 34.6106 229.504 36.6625C230.952 38.7626 231.973 41.113 232.511 43.5873ZM215.426 78.5833C215.761 76.893 215.519 75.1423 214.738 73.5978C214.138 72.5379 213.314 71.6139 212.32 70.8876L210.022 84.4275C210.766 84.2235 211.48 83.9272 212.147 83.5454C213.05 83.0203 213.816 82.2994 214.385 81.4385C214.953 80.5776 215.31 79.6005 215.426 78.5833ZM209.02 53.9527L211.141 41.4507C210.137 41.6196 209.198 42.0505 208.426 42.6976C207.051 43.8129 206.142 45.3781 205.868 47.099C205.661 48.3665 205.775 49.6642 206.201 50.8786C206.789 52.1633 207.774 53.2381 209.02 53.9527Z" fill="#84A17D"/>
<path d="M162.145 141.711C162.977 145.298 169.143 146.706 173.185 141.736C175.748 138.696 177.134 134.877 177.105 130.944H177.264C177.264 130.944 179.121 130.217 179.565 128.916C179.565 128.916 185.603 128.141 187.796 127.787C189.988 127.433 215.29 143.907 221.496 155.025C223.044 157.039 224.346 159.222 225.375 161.529C226.048 163.224 226.305 164.838 225.494 165.773C222.696 169.012 219.276 168.059 216.875 165.367C216.757 165.236 216.638 165.096 216.519 164.953C214.105 161.951 207.912 154.623 207.912 154.623L202.744 151.499C203.95 152.598 205.081 153.77 206.133 155.01C207.517 156.847 212.959 162.259 215.403 165.969C216.032 166.772 216.445 167.715 216.604 168.712C216.553 169.442 216.324 170.149 215.936 170.775C215.548 171.401 215.013 171.928 214.375 172.312C213.736 172.697 213.013 172.928 212.265 172.986C211.516 173.043 210.764 172.927 210.072 172.646C209.985 172.611 209.903 172.569 209.826 172.518C207.756 171.27 197.571 162.372 195.99 160.921C195.675 160.349 195.24 159.847 194.713 159.449C194.395 159.2 194.057 158.976 193.7 158.782L193.685 158.769C191.006 157.286 188.075 157.843 185.543 159.771C182.751 161.906 183.976 160.645 182.768 161.871C182.664 160.907 182.241 160.003 181.563 159.294C179.061 156.558 175.668 156.423 172.475 158.097C170.011 159.476 167.634 160.998 165.356 162.654L156.064 163.52L155.983 163.505C156.211 161.895 155.852 160.258 154.97 158.878C152.951 155.911 149.921 156.217 148.324 156.309C148.062 156.326 147.803 156.371 147.552 156.445L147.532 156.309C146.295 155.717 145.096 155.05 143.944 154.313C142.433 153.394 140.793 152.337 139.481 151.478C138.037 150.532 137 149.832 137 149.832C137.097 138.36 137.955 126.905 139.567 115.54L141.662 116.332C145.058 117.616 151.475 120.034 152.296 120.316C152.689 120.518 153.126 120.623 153.57 120.623C154.014 120.623 154.451 120.518 154.844 120.316C156.007 119.887 169.683 112.873 172.447 112.233C175.211 111.593 180.697 112.475 180.697 112.475C177.953 113.72 175.546 115.071 172.977 115.945C168.952 117.318 165.298 116.669 164.195 122.398C163.093 128.128 163.257 135.166 162.15 139.938C162.01 140.521 162.008 141.128 162.145 141.711Z" fill="#FFCEB6"/>
<path d="M216.622 165.013C216.748 165.151 216.874 165.286 217 165.413C217 165.413 215.474 166.04 215.444 165.998C212.847 162.409 207.068 157.174 205.599 155.397C204.482 154.197 203.28 153.063 202 152L207.488 155.022C207.488 155.022 214.059 162.109 216.622 165.013Z" fill="#FFCEB6"/>
<path d="M210 173.024L209.703 173.44C209.591 174 209.344 174.527 208.981 174.98C208.619 175.433 208.151 175.798 207.614 176.048C206.853 176.505 206 176.807 205.11 176.933C204.22 177.059 203.312 177.007 202.444 176.781C201.666 176.421 200.915 176.009 200.197 175.549L199.048 175.429C199.628 174.916 200.141 174.338 200.576 173.708C202.208 171.077 202.151 169.448 200.351 168.079C199.675 167.467 198.842 167.036 197.936 166.828C197.031 166.621 196.084 166.644 195.191 166.895L195 166.784C195.097 166.63 195.181 166.47 195.251 166.304C195.681 165.484 195.915 164.582 195.937 163.665C195.958 162.748 195.767 161.838 195.377 161C197.046 162.498 207.808 171.729 210 173.024Z" fill="#FFCEB6"/>
<path d="M202 176.282C200.566 178 198.605 179.233 196.399 179.806C195.934 179.967 195.439 180.029 194.947 179.987C194.456 179.946 193.98 179.8 193.551 179.563L193 179.555C195.037 178.159 196.978 176.637 198.812 175L199.891 175.114C200.565 175.55 201.27 175.94 202 176.282Z" fill="#FFCEB6"/>
<path d="M200.669 168.429C202.381 169.832 202.43 171.504 200.883 174.198C200.47 174.844 199.982 175.436 199.431 175.961C197.573 177.729 195.607 179.372 193.544 180.88C192.859 181.391 192.421 181.703 192.421 181.703C185.667 185.791 182.673 186.698 180.257 185.528C179.509 185.22 178.837 184.741 178.294 184.128C177.751 183.515 177.349 182.782 177.119 181.986L177 181.707C179.711 180.484 182.337 179.07 184.86 177.477C184.86 177.477 193.693 170.398 195.579 167.098L195.76 167.212C196.61 166.954 197.511 166.931 198.373 167.145C199.234 167.358 200.026 167.801 200.669 168.429Z" fill="#FFCEB6"/>
<path d="M195.489 161.053C195.845 161.876 196.018 162.77 195.998 163.671C195.979 164.571 195.766 165.456 195.375 166.262C195.311 166.425 195.235 166.582 195.147 166.733C193.342 169.896 184.896 176.679 184.896 176.679C182.483 178.205 179.97 179.56 177.378 180.732C172.013 183.037 170.764 181.675 168.837 180.74C167.001 179.739 165.622 178.031 165 175.986V175.929C166.595 175.807 168.153 175.366 169.587 174.633C169.587 174.633 180.055 168.86 181.628 166.198C182.447 164.974 182.853 163.505 182.785 162.019C183.946 160.771 182.769 162.055 185.453 159.88C187.886 157.916 190.704 157.349 193.277 158.86L193.292 158.873C193.634 159.071 193.96 159.298 194.265 159.553C194.771 159.959 195.187 160.471 195.489 161.053Z" fill="#FFCEB6"/>
<path d="M165.929 163.486C168.164 161.879 170.495 160.401 172.911 159.061C176.038 157.436 179.361 157.567 181.813 160.224C182.477 160.912 182.891 161.79 182.992 162.725C183.062 164.142 182.648 165.542 181.813 166.709C180.209 169.246 169.54 174.75 169.54 174.75C168.078 175.449 166.491 175.869 164.865 175.986C161.773 176.085 158.687 175.667 155.743 174.75C152.532 173.947 151 168.149 151 168.149C152.229 167.956 153.426 167.606 154.559 167.107C155.138 166.857 155.643 166.469 156.026 165.981C156.409 165.492 156.659 164.919 156.751 164.312L156.83 164.327L165.929 163.486Z" fill="#FFCEB6"/>
<path d="M179.236 17L180 20.6613L134.464 29.9478L146.809 89.2473L143.107 90L142.343 86.3357L130 27.0407L175.533 17.7541L179.236 17Z" fill="#84A17D"/>
<path d="M176 17.6642L129.557 26.9508L142.147 86.2429L138.37 87L125 24.0388L175.224 14L176 17.6642Z" fill="#153C3C"/>
<path d="M148.133 157.076C148.395 157.005 148.665 156.961 148.939 156.944C150.604 156.859 153.76 156.557 155.873 159.443C156.794 160.786 157.168 162.379 156.93 163.946C156.832 164.553 156.566 165.129 156.158 165.618C155.75 166.108 155.212 166.496 154.596 166.747C153.388 167.247 152.113 167.598 150.804 167.792C147.895 168.236 144.87 167.997 143.541 166.809C141.31 164.809 138.91 160.212 144.121 155.357L144.369 155C145.572 155.717 146.822 156.366 148.113 156.943L148.133 157.076Z" fill="#FFCEB6"/>
<path d="M141 113.619L140.954 113.656C140.908 113.597 140.851 113.549 140.784 113.515C140.717 113.481 140.644 113.461 140.568 113.458C140.492 113.454 140.417 113.467 140.347 113.495C140.278 113.523 140.215 113.565 140.164 113.619C139.843 114.254 139.647 114.941 139.586 115.645C137.936 127.179 137.058 138.804 136.958 150.448C137.011 153.13 137.233 154.899 137.68 155.137C137.959 155.323 138.304 155.396 138.638 155.338L138.655 155.391C137.409 156.19 134.085 156.593 133.181 154.056C132.958 151.998 132.941 149.925 133.131 147.864C133.562 137.884 135.246 119.098 136.172 113.951C136.222 113.503 136.337 113.063 136.515 112.647C137.514 111.384 140.883 112.11 141 113.619Z" fill="#84A17D"/>
<path d="M135.777 114.113L136 114.154C135.101 119.297 133.468 138.044 133.054 148H132.936C132.936 148 125.954 144.883 122.405 144.463C117.261 143.86 65 119.727 65 119.727L84.9965 81L132.527 112.505L135.777 114.113Z" fill="#FFCEB6"/>
<path d="M273 76L290 116" stroke="#FFCEB6" stroke-width="3.39567" stroke-linecap="round" stroke-linejoin="round"/>
<path d="M65 120L85 81" stroke="#FFCEB6" stroke-width="3.39567" stroke-linecap="round" stroke-linejoin="round"/>
<path d="M231 202.957C218.474 211.128 203.998 215.913 189.016 216.836C174.034 217.758 159.068 214.785 145.612 208.213C132.156 201.641 120.678 191.7 112.324 179.38C103.97 167.06 99.0312 152.793 98 138" stroke="#153C3C" stroke-width="3.39567" stroke-linecap="round" stroke-linejoin="round"/>
<path d="M270 135C269.637 147.104 266.592 158.991 261.071 169.859C255.551 180.728 247.684 190.324 238 198" stroke="#153C3C" stroke-width="3.39567" stroke-linecap="round" stroke-linejoin="round"/>
<path d="M222 189.625C212.636 195.82 201.898 199.619 190.727 200.688C179.556 201.758 168.294 200.065 157.928 195.758C147.563 191.451 138.411 184.663 131.275 175.987C124.139 167.312 119.237 157.015 117 146" stroke="#153C3C" stroke-width="3.39567" stroke-linecap="round" stroke-linejoin="round"/>
<path d="M251 146C247.991 161.704 239.496 175.862 227 186" stroke="#153C3C" stroke-width="3.39567" stroke-linecap="round" stroke-linejoin="round"/>
<path d="M230 83C234.154 86.57 237.847 90.598 241 95" stroke="#153C3C" stroke-width="3.39567" stroke-linecap="round" stroke-linejoin="round"/>
<path d="M123 103C126.102 96.7465 130.15 91.0122 135 86" stroke="#153C3C" stroke-width="3.39567" stroke-linecap="round" stroke-linejoin="round"/>
<path d="M226 58C236.62 63.9704 245.829 72.1559 253 82" stroke="#153C3C" stroke-width="3.39567" stroke-linecap="round" stroke-linejoin="round"/>
<path d="M108 92C113.453 81.9632 120.939 73.1166 130 66" stroke="#153C3C" stroke-width="3.39567" stroke-linecap="round" stroke-linejoin="round"/>
<path d="M215 117C215 117 243.163 97.5102 250.526 92.1729C257.888 86.836 273 76 273 76" stroke="#153C3C" stroke-width="3.39567" stroke-linecap="round" stroke-linejoin="round"/>
<path d="M235 152C235 152 246.039 146.512 251.06 142.201C256.081 137.89 290 116 290 116" stroke="#153C3C" stroke-width="3.39567" stroke-linecap="round" stroke-linejoin="round"/>
<path d="M65 120C65 120 117.311 143.906 122.459 144.498C126.011 144.913 133 148 133 148" stroke="#153C3C" stroke-width="3.39567" stroke-linecap="round" stroke-linejoin="round"/>
<path d="M136 114L132.734 112.399L85 81" stroke="#153C3C" stroke-width="3.39567" stroke-linecap="round" stroke-linejoin="round"/>
<path d="M141 115.893C140.94 114.949 140.708 114.03 140.319 113.199C140.281 113.141 140.233 113.092 140.178 113.058C140.122 113.024 140.061 113.004 139.999 113.001C139.936 112.997 139.873 113.01 139.815 113.038C139.757 113.066 139.705 113.108 139.663 113.162C139.396 113.799 139.234 114.487 139.183 115.193C137.812 126.755 137.083 138.407 137 150.079C137.044 152.768 137.228 154.541 137.6 154.78C137.832 154.966 138.118 155.038 138.395 154.981C139.305 154.706 139.011 152.097 139.011 152.097" stroke="#153C3C" stroke-width="3.39567" stroke-linecap="round" stroke-linejoin="round"/>
<path d="M141 113.617C140.878 112.109 137.511 111.386 136.518 112.645C136.34 113.062 136.224 113.5 136.175 113.948C135.246 119.102 133.559 137.888 133.131 147.864C132.941 149.925 132.958 151.998 133.181 154.056C134.081 156.593 137.408 156.19 138.66 155.391" stroke="#153C3C" stroke-width="3.39567" stroke-linecap="round" stroke-linejoin="round"/>
<path d="M139 115.695L141.14 116.521C144.607 117.861 151.161 120.385 151.998 120.68C152.4 120.89 152.846 121 153.299 121C153.753 121 154.199 120.89 154.6 120.68C155.787 120.232 169.753 112.911 172.575 112.243C175.398 111.575 181 112.495 181 112.495" stroke="#153C3C" stroke-width="3.39567" stroke-linecap="round" stroke-linejoin="round"/>
<path d="M137 150C137 150 137.985 150.756 139.356 151.779C140.596 152.707 142.159 153.849 143.593 154.842C144.688 155.639 145.826 156.359 147 157" stroke="#153C3C" stroke-width="3.39567" stroke-linecap="round" stroke-linejoin="round"/>
<path d="M234.455 145C234.455 146.634 235.442 149.266 234.759 152.361C234.11 155.308 231.952 158.668 226 162" stroke="#153C3C" stroke-width="3.39567" stroke-linecap="round" stroke-linejoin="round"/>
<path d="M220 119.028C218.263 117.857 216.369 116.943 214.375 116.317C212.956 115.842 211.502 115.484 210.026 115.246C203.779 114.238 190.877 108.738 185.743 110.267C184.009 110.795 182.317 111.457 180.682 112.246C177.935 113.54 175.524 114.944 172.951 115.853C168.92 117.279 165.262 116.605 164.158 122.561C163.055 128.516 163.218 135.831 162.11 140.791C161.968 141.394 161.963 142.024 162.098 142.629C162.931 146.357 169.105 147.82 173.152 142.654C175.719 139.495 177.107 135.526 177.077 131.438C177.069 130.285 176.94 129.137 176.693 128.011" stroke="#153C3C" stroke-width="3.39567" stroke-linecap="round" stroke-linejoin="round"/>
<path d="M177 132.135C177 132.135 178.89 131.413 179.342 130.124C179.342 130.124 185.484 129.356 187.715 129.006C189.946 128.655 215.687 144.982 222 156" stroke="#153C3C" stroke-width="3.39567" stroke-linecap="round" stroke-linejoin="round"/>
<path d="M221.352 155.456C222.949 157.43 224.293 159.57 225.355 161.831C226.05 163.493 226.315 165.074 225.478 165.991C222.591 169.166 219.06 168.231 216.583 165.593C216.461 165.465 216.338 165.327 216.216 165.188C213.725 162.245 207.333 155.062 207.333 155.062L202 152" stroke="#153C3C" stroke-width="3.39567" stroke-linecap="round" stroke-linejoin="round"/>
<path d="M193 141C193.111 142.065 193.4 143.109 193.856 144.092C194.211 144.472 198.942 148.415 202.476 151.614C203.739 152.707 204.925 153.873 206.027 155.107C207.477 156.934 213.18 162.317 215.742 166.007C216.4 166.806 216.833 167.743 217 168.735C216.946 169.461 216.706 170.164 216.3 170.787C215.893 171.409 215.332 171.933 214.663 172.316C213.994 172.698 213.237 172.928 212.452 172.986C211.668 173.043 210.88 172.927 210.154 172.648C210.064 172.613 209.978 172.571 209.897 172.521C207.728 171.279 197.055 162.428 195.399 160.985L195.391 160.977" stroke="#153C3C" stroke-width="3.39567" stroke-linecap="round" stroke-linejoin="round"/>
<path d="M210 173C209.883 173.629 209.623 174.222 209.242 174.73C208.86 175.239 208.368 175.65 207.804 175.93C207.002 176.444 206.105 176.783 205.169 176.924C204.232 177.066 203.278 177.008 202.364 176.753C201.546 176.348 200.756 175.886 200 175.369" stroke="#153C3C" stroke-width="3.39567" stroke-linecap="round" stroke-linejoin="round"/>
<path d="M202 177C200.811 178.386 199.186 179.381 197.359 179.843C196.974 179.973 196.564 180.023 196.157 179.99C195.749 179.956 195.354 179.839 195 179.647" stroke="#153C3C" stroke-width="3.39567" stroke-linecap="round" stroke-linejoin="round"/>
<path d="M188 129C188 129 189 127.088 189 126" stroke="#153C3C" stroke-width="3.39567" stroke-linecap="round" stroke-linejoin="round"/>
<path d="M180 130C180 129.009 180 127.991 180 127" stroke="#153C3C" stroke-width="3.39567" stroke-linecap="round" stroke-linejoin="round"/>
<path d="M162 141.855C161.999 141.98 162.034 142.102 162.1 142.213C162.894 143.604 168.459 143.155 170.243 140.836C172.167 138.331 169.817 135 169.817 135" stroke="#153C3C" stroke-width="3.39567" stroke-linecap="round" stroke-linejoin="round"/>
<path d="M163 134C163 134 164.292 134 166 134" stroke="#153C3C" stroke-width="3.39567" stroke-linecap="round" stroke-linejoin="round"/>
<path d="M221 166C222.118 165.806 223.145 165.464 224 165" stroke="#153C3C" stroke-width="3.39567" stroke-linecap="round" stroke-linejoin="round"/>
<path d="M217 166C217 166 216.019 166 216 166" stroke="#153C3C" stroke-width="3.39567" stroke-linecap="round" stroke-linejoin="round"/>
<path d="M145.177 158.227C146.072 157.595 147.07 157.102 148.133 156.768C148.395 156.694 148.665 156.649 148.939 156.632C150.604 156.544 153.76 156.234 155.873 159.202C156.794 160.582 157.168 162.22 156.93 163.832C156.832 164.456 156.566 165.047 156.158 165.551C155.75 166.054 155.212 166.453 154.596 166.712C153.388 167.225 152.113 167.586 150.804 167.786C147.895 168.243 144.87 167.997 143.541 166.775C141.31 164.719 138.91 159.992 144.121 155" stroke="#153C3C" stroke-width="3.39567" stroke-linecap="round" stroke-linejoin="round"/>
<path d="M166 163C164.722 163.843 163.658 164.558 163 165" stroke="#153C3C" stroke-width="3.39567" stroke-linecap="round" stroke-linejoin="round"/>
<path d="M151 168.149C151 168.149 152.532 173.947 155.742 174.75C158.687 175.667 161.773 176.085 164.865 175.986C166.491 175.869 168.078 175.449 169.54 174.75C169.54 174.75 180.209 169.247 181.813 166.71C182.647 165.542 183.062 164.142 182.992 162.725C182.891 161.79 182.477 160.912 181.813 160.224C179.361 157.567 176.038 157.436 172.911 159.061C170.497 160.401 168.168 161.878 165.936 163.486" stroke="#153C3C" stroke-width="3.39567" stroke-linecap="round" stroke-linejoin="round"/>
<path d="M166 163H165.996L157 164" stroke="#153C3C" stroke-width="3.39567" stroke-linecap="round" stroke-linejoin="round"/>
<path d="M173.152 163C172.402 163.912 171.993 165.069 172 166.263C172.056 166.765 172.231 167.246 172.51 167.663C172.789 168.08 173.164 168.419 173.6 168.652C174.037 168.886 174.523 169.005 175.015 169C175.507 168.995 175.991 168.865 176.423 168.624C178.47 167.46 181.748 165.104 180.846 163" stroke="#153C3C" stroke-width="3.39567" stroke-linecap="round" stroke-linejoin="round"/>
<path d="M174 161C174.825 160.493 175.831 160.148 176.913 160.002C177.674 159.979 178.419 160.157 179 160.5" stroke="#153C3C" stroke-width="3.39567" stroke-linecap="round" stroke-linejoin="round"/>
<path d="M193 158.838C190.564 157.365 187.897 157.919 185.595 159.834C183.055 161.956 184.169 160.703 183.07 161.921C183.048 161.945 183.026 161.972 183 162" stroke="#153C3C" stroke-width="3.39567" stroke-linecap="round" stroke-linejoin="round"/>
<path d="M165 176.018C165.621 178.052 167.001 179.752 168.837 180.747C170.763 181.677 172.018 183.031 177.377 180.739C179.97 179.573 182.482 178.226 184.896 176.707C184.896 176.707 193.343 169.961 195.147 166.816C195.235 166.666 195.311 166.509 195.375 166.347C195.766 165.545 195.979 164.665 195.999 163.77C196.018 162.874 195.844 161.985 195.489 161.167C195.186 160.587 194.768 160.08 194.262 159.676C193.956 159.424 193.63 159.197 193.288 159" stroke="#153C3C" stroke-width="3.39567" stroke-linecap="round" stroke-linejoin="round"/>
<path d="M186.623 164.346C186.076 165.381 185.88 166.596 186.071 167.774C186.201 168.261 186.437 168.705 186.758 169.067C187.079 169.43 187.476 169.7 187.915 169.854C188.353 170.008 188.818 170.041 189.271 169.95C189.723 169.859 190.148 169.647 190.509 169.333C192.219 167.824 194.872 164.922 193.718 163" stroke="#153C3C" stroke-width="3.39567" stroke-linecap="round" stroke-linejoin="round"/>
<path d="M187 163C187.716 162.131 188.658 161.464 189.73 161.07C190.506 160.906 191.317 161.033 192 161.426" stroke="#153C3C" stroke-width="3.39567" stroke-linecap="round" stroke-linejoin="round"/>
<path d="M177 181.986C177.231 182.782 177.634 183.514 178.18 184.128C178.727 184.741 179.401 185.22 180.153 185.528C182.58 186.699 185.589 185.79 192.374 181.702C192.374 181.702 192.814 181.391 193.502 180.879C195.575 179.371 197.55 177.727 199.416 175.959C199.971 175.434 200.46 174.841 200.876 174.195C202.435 171.499 202.381 169.829 200.661 168.425C200.015 167.799 199.22 167.356 198.355 167.144C197.49 166.931 196.585 166.955 195.733 167.213" stroke="#153C3C" stroke-width="3.39567" stroke-linecap="round" stroke-linejoin="round"/>
<path d="M193.544 170.964C193.065 171.701 192.895 172.568 193.063 173.408C193.176 173.756 193.382 174.073 193.663 174.333C193.944 174.592 194.292 174.785 194.676 174.896C195.06 175.006 195.468 175.029 195.864 174.964C196.26 174.899 196.632 174.747 196.948 174.522C198.443 173.445 200.768 171.375 199.751 170" stroke="#153C3C" stroke-width="3.39567" stroke-linecap="round" stroke-linejoin="round"/>
<path d="M195 170C195.43 169.565 195.998 169.231 196.642 169.035C197.106 168.953 197.592 169.017 198 169.215" stroke="#153C3C" stroke-width="3.39567" stroke-linecap="round" stroke-linejoin="round"/>
<path d="M189 154L190.344 156.515L192.985 158.987L193 159" stroke="#153C3C" stroke-width="3.39567" stroke-linecap="round" stroke-linejoin="round"/>
<path d="M154 166.98C152.795 166.446 151.695 165.711 150.751 164.81C150.11 164.003 149.666 163.066 149.452 162.07C149.407 161.845 149.302 161.635 149.147 161.461C148.992 161.287 148.794 161.154 148.57 161.077C148.347 161 148.106 160.98 147.873 161.02C147.639 161.06 147.419 161.158 147.237 161.304C146.656 161.719 146.249 162.323 146.091 163.005C145.908 163.787 146.002 164.607 146.359 165.331C146.716 166.056 147.314 166.644 148.058 167" stroke="#153C3C" stroke-width="3.39567" stroke-linecap="round" stroke-linejoin="round"/>
<path d="M188.416 84.6338L147.172 93L146.408 89.3401L134 30.0398L179.765 20.7527L183.483 20L195 75.0263" stroke="#153C3C" stroke-width="3.39567" stroke-linecap="round" stroke-linejoin="round"/>
<path d="M146.809 89.2473L143.107 90L142.343 86.3357L130 27.0407L175.533 17.7541L179.236 17L180 20.6613V20.6644" stroke="#153C3C" stroke-width="3.39567" stroke-linecap="round" stroke-linejoin="round"/>
<path d="M142.147 86.2429L138.37 87L125 24.0388L175.224 14L176 17.6642" stroke="#153C3C" stroke-width="3.39567" stroke-linecap="round" stroke-linejoin="round"/>
<path d="M143 36L178 30" stroke="#153C3C" stroke-width="3.39567" stroke-linecap="round" stroke-linejoin="round"/>
<path d="M147 43L181 36" stroke="#153C3C" stroke-width="3.39567" stroke-linecap="round" stroke-linejoin="round"/>
<path d="M144 49L182 40" stroke="#153C3C" stroke-width="3.39567" stroke-linecap="round" stroke-linejoin="round"/>
<path d="M145 56L172 50" stroke="#153C3C" stroke-width="3.39567" stroke-linecap="round" stroke-linejoin="round"/>
<path d="M151 59L184 52" stroke="#153C3C" stroke-width="3.39567" stroke-linecap="round" stroke-linejoin="round"/>
<path d="M148 67L185 59" stroke="#153C3C" stroke-width="3.39567" stroke-linecap="round" stroke-linejoin="round"/>
<path d="M150 74L187 66" stroke="#153C3C" stroke-width="3.39567" stroke-linecap="round" stroke-linejoin="round"/>
<path d="M163 84L166.722 83.3256L171.143 82.5208L180.328 80.8496L182.072 80.531L185 80" stroke="#153C3C" stroke-width="3.39567" stroke-linecap="round" stroke-linejoin="round"/>
<path d="M173.355 78.9426C173.241 79.358 172.532 81.9726 173.509 81.9999C174.563 82.0307 176.968 76 176.968 76C176.968 76 175.79 80.8964 177.215 80.9979C178.639 81.099 178.432 77.5146 179.667 77.1822C180.536 76.9466 179.816 79.5062 179.816 80.9399C179.816 81.5545 179.95 81.9647 180.395 81.8508C180.949 81.7141 181.284 81.1936 181.548 80.5825C181.981 79.5576 182.228 78.2809 183 78.0897" stroke="#153C3C" stroke-width="3.39567" stroke-linecap="round" stroke-linejoin="round"/>
<path d="M169 80.8857C169.549 82.153 170.373 83.1379 171.066 82.9842C172.645 82.6212 173.82 79.5131 173.987 79.0522C173.991 79.0384 173.995 79.0247 174 79.0119V79" stroke="#153C3C" stroke-width="3.39567" stroke-linecap="round" stroke-linejoin="round"/>
<path d="M168.643 81C169.953 78.5314 170.677 75.636 169.11 76.0376C167.589 76.4297 167.832 79.025 168.643 81Z" stroke="#153C3C" stroke-width="3.39567" stroke-linecap="round" stroke-linejoin="round"/>
<path d="M166 84C166.939 83.7803 168.099 82.4739 169 81" stroke="#153C3C" stroke-width="3.39567" stroke-linecap="round" stroke-linejoin="round"/>
<path d="M160 80L158.5 83.0019L157 86" stroke="#153C3C" stroke-width="3.39567" stroke-linecap="round" stroke-linejoin="round"/>
<path d="M156 81L158.502 83.002L161 85" stroke="#153C3C" stroke-width="3.39567" stroke-linecap="round" stroke-linejoin="round"/>
<path d="M188.251 84.6164C188.939 86.5177 189.947 88.2951 191.233 89.8753C193.876 93.2202 197.581 95.6218 201.772 96.7066L200.61 103.553C200.545 103.937 200.558 104.33 200.649 104.709C200.739 105.088 200.906 105.446 201.139 105.762C201.372 106.078 201.667 106.347 202.006 106.553C202.346 106.758 202.724 106.897 203.118 106.96C203.513 107.024 203.916 107.011 204.306 106.923C204.696 106.834 205.064 106.672 205.388 106.446C205.714 106.219 205.99 105.932 206.201 105.602C206.413 105.271 206.555 104.904 206.62 104.52L207.795 97.5884C209.547 97.6244 211.296 97.437 212.998 97.0309C215.62 96.4207 218.086 95.2944 220.244 93.7219C222.376 92.1543 224.192 90.2171 225.599 88.0069C227.076 85.6882 228.06 83.1056 228.494 80.4104C229.176 76.5809 228.811 72.6438 227.435 68.9944C226.059 65.34 222.96 62.1301 218.138 59.3652L214.632 57.3009L217.086 42.8258C217.536 43.1545 217.947 43.5296 218.314 43.9439C219.212 44.995 219.719 46.3099 219.752 47.6762C219.785 48.1905 219.996 48.6786 220.352 49.0605C220.708 49.4419 221.187 49.6941 221.71 49.7756L230.241 51.1464C230.566 51.1995 230.899 51.1855 231.218 51.1054C231.536 51.0252 231.834 50.8807 232.092 50.6812C232.35 50.4817 232.562 50.2318 232.713 49.9472C232.865 49.6626 232.954 49.3505 232.973 49.0303C233.068 47.2025 232.913 45.3706 232.512 43.5823C231.972 41.1105 230.952 38.7621 229.504 36.6641C228.069 34.612 226.203 32.8796 224.029 31.5809C222.566 30.6991 220.99 30.0088 219.341 29.5283L220.371 23.4472C220.436 23.063 220.423 22.6704 220.332 22.2912C220.241 21.912 220.074 21.554 219.841 21.2374C219.608 20.9213 219.313 20.6525 218.974 20.4471C218.634 20.2413 218.256 20.1031 217.862 20.0396C217.467 19.9761 217.063 19.9892 216.674 20.0774C216.284 20.1657 215.916 20.3278 215.591 20.5548C214.934 21.0127 214.491 21.7058 214.36 22.4812L213.326 28.5777C211.667 28.5272 210.007 28.6686 208.382 28.9987C205.84 29.5085 203.436 30.5312 201.326 32.001C199.116 33.4699 197.233 35.3568 195.788 37.5489C194.271 39.851 193.264 42.4354 192.831 45.1373C192.006 49.2235 192.639 53.461 194.623 57.1505C196.732 60.8224 199.865 63.8391 203.661 65.8525L206.719 67.5403L203.95 83.8689C202.801 83.3681 201.887 82.4688 201.383 81.3471C200.96 80.3969 200.656 79.4008 200.477 78.3799C200.35 77.6428 199.99 76.9628 199.447 76.4341C198.904 75.9054 198.206 75.5546 197.448 75.4303L194.891 75.021L191.286 74.4378C190.751 74.3527 190.203 74.3838 189.682 74.5279C189.16 74.6724 188.678 74.9269 188.269 75.2727C187.86 75.619 187.534 76.0491 187.315 76.5314C187.096 77.0141 186.988 77.5378 187.001 78.0652C187.026 79.6886 187.256 81.3025 187.685 82.8714C187.851 83.4699 188.04 84.0508 188.251 84.6164Z" stroke="#153C3C" stroke-width="3.39567" stroke-linecap="round" stroke-linejoin="round"/>
<path d="M205.565 50.8034C205.01 49.5406 204.861 48.1911 205.131 46.873C205.488 45.0835 206.672 43.4563 208.463 42.2961C209.469 41.6232 210.692 41.1751 212 41L209.236 54C207.615 53.2569 206.331 52.1397 205.565 50.8034Z" stroke="#153C3C" stroke-width="3.39567" stroke-linecap="round" stroke-linejoin="round"/>
<path d="M212.914 83.1535C212.314 83.5201 211.67 83.8046 211 84L213.07 71C213.966 71.6978 214.708 72.5845 215.248 73.6022C215.952 75.0855 216.169 76.7663 215.868 78.3893C215.763 79.3659 215.442 80.3041 214.93 81.1307C214.417 81.9568 213.728 82.6494 212.914 83.1535Z" stroke="#153C3C" stroke-width="3.39567" stroke-linecap="round" stroke-linejoin="round"/>
</g>
<defs>
<clipPath id="clip0_7_575">
<rect width="355" height="232" fill="white"/>
</clipPath>
</defs>
</svg>
