<svg width="1440" height="457" viewBox="0 0 1440 457" fill="none" xmlns="http://www.w3.org/2000/svg">
<g clip-path="url(#clip0_297_2)">
<g clip-path="url(#clip1_297_2)">
<rect y="265" width="1440" height="192" fill="#153C3C"/>
<path d="M1440 24.0909C1250.25 24.0909 1163.23 194.216 1022.92 194.216C802.178 194.216 785.813 49.1391 599.544 49.1391C428.594 49.1391 413.623 105.298 313.002 105.298C212.382 105.298 221.086 0 2.9105e-05 0V265H1440V24.0909Z" fill="#B6DBD2"/>
<path d="M29.8927 176.724C-110.219 176.724 302.996 176.724 29.8927 176.724C175.085 153.666 180.353 71.1297 437.436 71.1297C577.039 71.1297 636.033 113.069 749.954 113.069C863.874 113.069 978.232 3 1110.97 3C1237.35 3 1268.19 61.8333 1435 61.8333V225.999L29.8928 226L29.8927 176.724Z" fill="#7EC3B0"/>
<path d="M426.252 105.966C297.481 140.86 136.983 154.448 0 77.5556V265L1440 265V51L1439.14 51.5093C1370.1 92.581 1266.94 153.94 1117.51 105.966C967.465 57.7922 946.936 173.146 829.362 128.2C711.789 83.2533 555.023 71.0708 426.252 105.966Z" fill="#153C3C"/>
</g>
</g>
<defs>
<clipPath id="clip0_297_2">
<rect width="1440" height="457" fill="white"/>
</clipPath>
<clipPath id="clip1_297_2">
<rect width="1440" height="457" fill="white"/>
</clipPath>
</defs>
</svg>
