<svg width="1437" height="1163" viewBox="0 0 1437 1163" fill="none" xmlns="http://www.w3.org/2000/svg">
<path d="M0 135H671.775H1191.98H1440V50.4287C1334.48 53.16 1279.05 24.6551 1197.82 2.90392C1128.15 -15.7683 1091.85 61.8009 1029.45 59.5662C925.95 55.8913 854.175 27.585 779.625 27.585C709.5 27.585 559.575 58.275 489.525 58.275C421.95 58.275 322.65 18.5965 255.075 17.5537C137.775 15.7659 106.95 57.2321 0.075 59.2185L0 135Z" fill="#F4F4F4"/>
<path d="M1440 130.739H768.225H248.025H0V35.5699C0 35.5699 112.275 22.5966 187.725 24.9167C262.8 27.1894 343.65 64.9254 406.2 65.7303C480.75 66.7246 588.6 37.3691 663.225 37.3691C733.35 37.3691 877.275 70.4178 947.4 70.4178C1014.97 70.4178 1122.15 27.3788 1189.65 26.3844C1306.87 24.6326 1333.12 56.5449 1440 58.4388V130.739Z" fill="#B6DBD2"/>
<path d="M1440 135H768.225H248.025H0V49.7742C0 49.7742 112.275 36.801 187.725 39.121C262.875 41.3464 335.4 68.5712 397.875 69.3761C472.425 70.3704 575.025 54.9293 661.125 44.8027C747.225 34.6762 881.325 73.7676 937.5 76.0876C993.675 78.4077 1100.02 70.5658 1189.57 44.8027C1279.12 19.0397 1333.12 60.8062 1440 62.7002V135Z" fill="#7EC3B0"/>
<rect y="134" width="1440" height="1029" fill="url(#paint0_linear_204_4)"/>
<defs>
<linearGradient id="paint0_linear_204_4" x1="720" y1="134" x2="720" y2="1163" gradientUnits="userSpaceOnUse">
<stop stop-color="#7EC3B0"/>
<stop offset="1" stop-color="white" stop-opacity="0"/>
</linearGradient>
</defs>
</svg>
