<svg width="1440" height="1053" viewBox="0 0 1440 1053" fill="none" xmlns="http://www.w3.org/2000/svg">
<path d="M1451 15.1818C1259.8 15.1818 1172.11 122.393 1030.73 122.393C808.305 122.393 791.816 30.9669 604.124 30.9669C431.868 30.9669 416.782 66.3576 315.393 66.3576C214.004 66.3576 222.775 0 -2.62097e-05 0V167H1451V15.1818Z" fill="#F4F4F4"/>
<path d="M30.226 130.761C-111.448 130.761 306.374 130.761 30.226 130.761C177.037 113.804 182.364 53.1043 442.313 53.1043C583.473 53.1043 643.125 83.9476 758.315 83.9476C873.506 83.9476 989.139 3 1123.36 3C1251.15 3 1282.33 46.2675 1451 46.2675V166.999L30.2261 167L30.226 130.761Z" fill="#D2F1EA"/>
<path d="M431.876 80.7945C301.406 99.7094 138.79 107.075 0 65.3946V167L1459 167V51L1458.13 51.2761C1388.17 73.5393 1283.66 106.799 1132.26 80.7945C980.23 54.6818 959.431 117.21 840.305 92.8465C721.18 68.4831 562.347 61.8795 431.876 80.7945Z" fill="#B6DBD2"/>
<rect y="167" width="1459" height="886" fill="url(#paint0_linear_209_11)"/>
<defs>
<linearGradient id="paint0_linear_209_11" x1="729.5" y1="167" x2="729.5" y2="1053" gradientUnits="userSpaceOnUse">
<stop stop-color="#B6DBD2"/>
<stop offset="0.713542" stop-color="#B6DBD2" stop-opacity="0"/>
</linearGradient>
</defs>
</svg>
