<svg width="30" height="30" viewBox="0 0 30 30" fill="none" xmlns="http://www.w3.org/2000/svg">
<path d="M15.0001 0C6.72895 0 0 6.72895 0 15C0 23.271 6.72895 30 15.0001 30C23.2713 30 30.0002 23.271 30.0002 15C30.0002 6.72895 23.2713 0 15.0001 0ZM15.0001 28.1823C7.73133 28.1823 1.81765 22.2688 1.81765 15C1.81765 7.73121 7.73133 1.81765 15.0001 1.81765C22.2689 1.81765 28.1826 7.73121 28.1826 15C28.1826 22.2688 22.269 28.1823 15.0001 28.1823Z" fill="#153C3C"/>
<path d="M16.1223 14.9999L21.25 7.91962C21.5445 7.51307 21.4536 6.94487 21.047 6.65041C20.6404 6.35607 20.0724 6.44683 19.7778 6.85338L15.0002 13.4505L10.2222 6.8535C9.92773 6.44683 9.35941 6.35607 8.95298 6.65053C8.54655 6.94499 8.45567 7.51319 8.75001 7.91974L13.8779 15L8.75001 22.0803C8.45555 22.4869 8.54643 23.0551 8.95298 23.3496C9.11415 23.4662 9.30052 23.5224 9.48543 23.5224C9.76681 23.5224 10.0444 23.392 10.2222 23.1466L15.0002 16.5495L19.7782 23.1466C19.956 23.392 20.2335 23.5224 20.515 23.5224C20.6997 23.5224 20.8862 23.4662 21.0473 23.3496C21.4538 23.0551 21.5447 22.4869 21.2503 22.0803L16.1223 14.9999Z" fill="#153C3C"/>
</svg>
