<svg width="14" height="18" viewBox="0 0 14 18" fill="none" xmlns="http://www.w3.org/2000/svg">
<path d="M8.12229 8.99989L13.25 1.91965C13.5445 1.5131 13.4536 0.9449 13.047 0.65044C12.6404 0.356101 12.0724 0.446863 11.7778 0.853411L7.00019 7.45052L2.22219 0.853532C1.92773 0.446862 1.35941 0.356101 0.952982 0.650561C0.546554 0.945021 0.455671 1.51322 0.75001 1.91977L5.87785 9.00001L0.75001 16.0804C0.45555 16.4869 0.546433 17.0551 0.952982 17.3496C1.11415 17.4663 1.30052 17.5224 1.48543 17.5224C1.76681 17.5224 2.04442 17.392 2.22219 17.1466L7.00019 10.5495L11.7782 17.1466C11.956 17.392 12.2335 17.5224 12.515 17.5224C12.6997 17.5224 12.8862 17.4663 13.0473 17.3496C13.4538 17.0551 13.5447 16.4869 13.2503 16.0804L8.12229 8.99989Z" fill="#153C3C"/>
</svg>
