<?xml version="1.0" encoding="UTF-8"?>
<svg preserveAspectRatio="none" viewBox="-168.36 0 1440.6 321.88" xmlns="http://www.w3.org/2000/svg">
<path d="m1271.3 81.626c-189.75 0-276.77 170.12-417.08 170.12-220.74 0-237.11-145.08-423.38-145.08-170.95 0-185.92 56.159-286.54 56.159-100.62 0-91.916-105.3-313-105.3v265h1440v-240.91z" fill="#B6DBD2"/>
<path d="m-138.83 234.26c-140.11 0 273.1 0 0 0 145.19-23.058 150.46-105.59 407.54-105.59 139.6 0 198.6 41.939 312.52 41.939 113.92 0 228.28-110.07 361.02-110.07 126.38 0 157.22 58.833 324.03 58.833v164.17l-1405.1 1e-3v-49.276z" fill="#7EC3B0"/>
<path d="m257.53 163.5c-128.77 34.894-289.27 48.482-426.25-28.411v187.44h1440v-214l-0.86 0.509c-69.04 41.072-172.2 102.43-321.63 54.457-150.04-48.174-170.57 67.18-288.15 22.234-117.57-44.947-274.34-57.129-403.11-22.234z" fill="#153C3C"/>
</svg>
