<svg width="39" height="38" viewBox="0 0 39 38" fill="none" xmlns="http://www.w3.org/2000/svg">
<path fill-rule="evenodd" clip-rule="evenodd" d="M19.4823 1.07837e-06C14.8549 -0.00153783 10.378 1.64407 6.85322 4.6422C3.3284 7.64033 0.985833 11.7952 0.244921 16.3629C-0.495991 20.9307 0.413135 25.613 2.80953 29.5716C5.20593 33.5301 8.93311 36.5065 13.3238 37.9677C14.2916 38.1484 14.6529 37.5451 14.6529 37.0289C14.6529 36.5644 14.6368 35.032 14.6271 33.4028C9.20728 34.5804 8.06525 31.1059 8.06525 31.1059C7.17808 28.8476 5.90055 28.254 5.90055 28.254C4.13266 27.0442 6.03282 27.07 6.03282 27.07C7.99105 27.2088 9.02017 29.0767 9.02017 29.0767C10.759 32.0543 13.5786 31.1962 14.6884 30.6897C14.8658 29.4315 15.3691 28.5734 15.9272 28.0863C11.6139 27.5991 7.04904 25.928 7.04904 18.4629C7.02008 16.5239 7.73998 14.6485 9.05888 13.2269C8.85564 12.7366 8.18784 10.7558 9.246 8.0652C9.246 8.0652 10.8816 7.54258 14.6045 10.0621C17.7989 9.18893 21.169 9.18893 24.3634 10.0621C28.0669 7.55548 29.7155 8.0652 29.7155 8.0652C30.7736 10.7493 30.1091 12.7301 29.9058 13.2269C31.2211 14.6477 31.9386 16.5205 31.9092 18.4564C31.9092 25.9409 27.354 27.5862 23.0149 28.0701C23.7117 28.6734 24.3344 29.8606 24.3344 31.6769C24.3344 34.2836 24.315 36.3837 24.315 37.0225C24.315 37.5419 24.6634 38.1484 25.6506 37.9581C30.0349 36.4913 33.7547 33.5132 36.1452 29.5561C38.5357 25.5989 39.4411 20.9207 38.6996 16.3574C37.958 11.7941 35.6179 7.64322 32.0974 4.64663C28.5769 1.65005 24.1055 0.00304748 19.4823 1.07837e-06Z" fill="white" fill-opacity="0.5"/>
</svg>
