<svg width="135" height="40" viewBox="0 0 135 40" fill="none" xmlns="http://www.w3.org/2000/svg">
<g clip-path="url(#clip0_2_60)">
<path  d="M35.3594 10.0938H42.7832C44.3053 10.0938 45.6133 10.3216 46.707 10.7773C47.8099 11.2331 48.6576 11.9076 49.25 12.8008C49.8424 13.694 50.1387 14.7923 50.1387 16.0957C50.1387 17.1621 49.9564 18.0781 49.5918 18.8438C49.2363 19.6003 48.7305 20.2337 48.0742 20.7441C47.4271 21.2454 46.666 21.6465 45.791 21.9473L44.4922 22.6309H38.0391L38.0117 19.4316H42.8105C43.5306 19.4316 44.1276 19.304 44.6016 19.0488C45.0755 18.7936 45.431 18.4382 45.668 17.9824C45.9141 17.5267 46.0371 16.998 46.0371 16.3965C46.0371 15.7585 45.9186 15.207 45.6816 14.7422C45.4447 14.2773 45.0846 13.9219 44.6016 13.6758C44.1185 13.4297 43.5124 13.3066 42.7832 13.3066H39.4609V30H35.3594V10.0938ZM46.4883 30L41.9492 21.127L46.2832 21.0996L50.877 29.8086V30H46.4883ZM61.6602 24.791C61.6602 24.4355 61.6055 24.1165 61.4961 23.834C61.3958 23.5423 61.2044 23.278 60.9219 23.041C60.6393 22.7949 60.2428 22.5534 59.7324 22.3164C59.222 22.0794 58.5612 21.8333 57.75 21.5781C56.8477 21.2865 55.9909 20.9583 55.1797 20.5938C54.3776 20.2292 53.6667 19.8053 53.0469 19.3223C52.4362 18.8301 51.9531 18.2604 51.5977 17.6133C51.2513 16.9661 51.0781 16.2142 51.0781 15.3574C51.0781 14.528 51.2604 13.776 51.625 13.1016C51.9896 12.418 52.5 11.8346 53.1562 11.3516C53.8125 10.8594 54.5872 10.4811 55.4805 10.2168C56.3828 9.95247 57.3717 9.82031 58.4473 9.82031C59.9147 9.82031 61.1953 10.0846 62.2891 10.6133C63.3828 11.1419 64.2305 11.8665 64.832 12.7871C65.4427 13.7077 65.748 14.7604 65.748 15.9453H61.6738C61.6738 15.362 61.5508 14.8516 61.3047 14.4141C61.0677 13.9674 60.7031 13.6165 60.2109 13.3613C59.7279 13.1061 59.1172 12.9785 58.3789 12.9785C57.668 12.9785 57.0755 13.0879 56.6016 13.3066C56.1276 13.5163 55.7721 13.8034 55.5352 14.168C55.2982 14.5234 55.1797 14.9245 55.1797 15.3711C55.1797 15.7083 55.2617 16.0137 55.4258 16.2871C55.599 16.5605 55.8542 16.8158 56.1914 17.0527C56.5286 17.2897 56.9434 17.513 57.4355 17.7227C57.9277 17.9323 58.4974 18.1374 59.1445 18.3379C60.2292 18.666 61.1816 19.0352 62.002 19.4453C62.8314 19.8555 63.5241 20.3158 64.0801 20.8262C64.6361 21.3366 65.0553 21.9154 65.3379 22.5625C65.6204 23.2096 65.7617 23.9434 65.7617 24.7637C65.7617 25.6296 65.5931 26.4043 65.2559 27.0879C64.9186 27.7715 64.431 28.3503 63.793 28.8242C63.1549 29.2982 62.3939 29.6582 61.5098 29.9043C60.6257 30.1504 59.6367 30.2734 58.543 30.2734C57.5586 30.2734 56.5879 30.1458 55.6309 29.8906C54.6738 29.6263 53.8034 29.2298 53.0195 28.7012C52.2448 28.1725 51.625 27.498 51.1602 26.6777C50.6953 25.8574 50.4629 24.8867 50.4629 23.7656H54.5781C54.5781 24.3854 54.6738 24.9095 54.8652 25.3379C55.0566 25.7663 55.3255 26.1126 55.6719 26.377C56.0273 26.6413 56.4466 26.8327 56.9297 26.9512C57.4219 27.0697 57.9596 27.1289 58.543 27.1289C59.2539 27.1289 59.8372 27.0286 60.293 26.8281C60.7578 26.6276 61.0996 26.3496 61.3184 25.9941C61.5462 25.6387 61.6602 25.2376 61.6602 24.791ZM79.6855 10.0938V30H75.5977V10.0938H79.6855ZM85.8105 10.0938V13.3066H69.5684V10.0938H85.8105ZM91.8086 26.6641V20.0742C91.8086 19.6003 91.7311 19.1947 91.5762 18.8574C91.4212 18.5111 91.1797 18.2422 90.8516 18.0508C90.5326 17.8594 90.1178 17.7637 89.6074 17.7637C89.1699 17.7637 88.7917 17.8411 88.4727 17.9961C88.1536 18.1419 87.9076 18.3561 87.7344 18.6387C87.5612 18.9121 87.4746 19.2357 87.4746 19.6094H83.5371C83.5371 18.9805 83.6829 18.3835 83.9746 17.8184C84.2663 17.2533 84.6901 16.7565 85.2461 16.3281C85.8021 15.8906 86.4629 15.5488 87.2285 15.3027C88.0033 15.0566 88.8691 14.9336 89.8262 14.9336C90.9746 14.9336 91.9954 15.125 92.8887 15.5078C93.7819 15.8906 94.4837 16.4648 94.9941 17.2305C95.5137 17.9961 95.7734 18.9531 95.7734 20.1016V26.4316C95.7734 27.2428 95.8236 27.9082 95.9238 28.4277C96.0241 28.9382 96.1699 29.3848 96.3613 29.7676V30H92.3828C92.1914 29.599 92.0456 29.0977 91.9453 28.4961C91.8542 27.8854 91.8086 27.2747 91.8086 26.6641ZM92.3281 20.9902L92.3555 23.2188H90.1543C89.6348 23.2188 89.1836 23.278 88.8008 23.3965C88.418 23.515 88.1035 23.6836 87.8574 23.9023C87.6113 24.112 87.429 24.3581 87.3105 24.6406C87.2012 24.9232 87.1465 25.2331 87.1465 25.5703C87.1465 25.9076 87.224 26.2129 87.3789 26.4863C87.5339 26.7507 87.7572 26.9603 88.0488 27.1152C88.3405 27.2611 88.6823 27.334 89.0742 27.334C89.6667 27.334 90.1816 27.2155 90.6191 26.9785C91.0566 26.7415 91.3939 26.4499 91.6309 26.1035C91.877 25.7572 92.0046 25.429 92.0137 25.1191L93.0527 26.7871C92.9069 27.1608 92.7064 27.5482 92.4512 27.9492C92.2051 28.3503 91.8906 28.7285 91.5078 29.084C91.125 29.4303 90.6647 29.7174 90.127 29.9453C89.5892 30.1641 88.9512 30.2734 88.2129 30.2734C87.2741 30.2734 86.4219 30.0866 85.6562 29.7129C84.8997 29.3301 84.2982 28.806 83.8516 28.1406C83.4141 27.4661 83.1953 26.7005 83.1953 25.8438C83.1953 25.069 83.3411 24.3809 83.6328 23.7793C83.9245 23.1777 84.3529 22.6719 84.918 22.2617C85.4922 21.8424 86.2077 21.528 87.0645 21.3184C87.9212 21.0996 88.9147 20.9902 90.0449 20.9902H92.3281ZM104.807 25.9121C104.807 25.6296 104.725 25.3743 104.561 25.1465C104.396 24.9186 104.091 24.709 103.645 24.5176C103.207 24.3171 102.574 24.1348 101.744 23.9707C100.997 23.8066 100.299 23.6016 99.6523 23.3555C99.0143 23.1003 98.4583 22.7949 97.9844 22.4395C97.5195 22.084 97.1549 21.6647 96.8906 21.1816C96.6263 20.6895 96.4941 20.1289 96.4941 19.5C96.4941 18.8802 96.6263 18.2969 96.8906 17.75C97.1641 17.2031 97.5514 16.7201 98.0527 16.3008C98.5632 15.8724 99.1829 15.5397 99.9121 15.3027C100.65 15.0566 101.48 14.9336 102.4 14.9336C103.686 14.9336 104.788 15.1387 105.709 15.5488C106.639 15.959 107.35 16.5241 107.842 17.2441C108.343 17.9551 108.594 18.7663 108.594 19.6777H104.656C104.656 19.2949 104.574 18.9531 104.41 18.6523C104.255 18.3424 104.009 18.1009 103.672 17.9277C103.344 17.7454 102.915 17.6543 102.387 17.6543C101.949 17.6543 101.571 17.7318 101.252 17.8867C100.933 18.0326 100.687 18.2331 100.514 18.4883C100.35 18.7344 100.268 19.0078 100.268 19.3086C100.268 19.5365 100.313 19.7415 100.404 19.9238C100.505 20.097 100.664 20.2565 100.883 20.4023C101.102 20.5482 101.384 20.6849 101.73 20.8125C102.086 20.931 102.523 21.0404 103.043 21.1406C104.109 21.3594 105.062 21.6465 105.9 22.002C106.739 22.3483 107.404 22.8223 107.896 23.4238C108.389 24.0163 108.635 24.7956 108.635 25.7617C108.635 26.418 108.489 27.0195 108.197 27.5664C107.906 28.1133 107.486 28.5918 106.939 29.002C106.393 29.403 105.736 29.7174 104.971 29.9453C104.214 30.1641 103.362 30.2734 102.414 30.2734C101.038 30.2734 99.8711 30.0273 98.9141 29.5352C97.9661 29.043 97.2461 28.4186 96.7539 27.6621C96.2708 26.8965 96.0293 26.1126 96.0293 25.3105H99.7617C99.7799 25.8483 99.9167 26.2812 100.172 26.6094C100.436 26.9375 100.769 27.1745 101.17 27.3203C101.58 27.4661 102.022 27.5391 102.496 27.5391C103.007 27.5391 103.43 27.4707 103.768 27.334C104.105 27.1882 104.36 26.9967 104.533 26.7598C104.715 26.5137 104.807 26.2311 104.807 25.9121ZM113.129 8.98633V30H109.191V8.98633H113.129ZM122.453 15.207L116.027 22.5352L112.582 26.0215L111.146 23.1777L113.881 19.7051L117.723 15.207H122.453ZM118.365 30L113.99 23.1641L116.711 20.7852L122.904 30H118.365ZM130.146 25.9121C130.146 25.6296 130.064 25.3743 129.9 25.1465C129.736 24.9186 129.431 24.709 128.984 24.5176C128.547 24.3171 127.913 24.1348 127.084 23.9707C126.337 23.8066 125.639 23.6016 124.992 23.3555C124.354 23.1003 123.798 22.7949 123.324 22.4395C122.859 22.084 122.495 21.6647 122.23 21.1816C121.966 20.6895 121.834 20.1289 121.834 19.5C121.834 18.8802 121.966 18.2969 122.23 17.75C122.504 17.2031 122.891 16.7201 123.393 16.3008C123.903 15.8724 124.523 15.5397 125.252 15.3027C125.99 15.0566 126.82 14.9336 127.74 14.9336C129.025 14.9336 130.128 15.1387 131.049 15.5488C131.979 15.959 132.689 16.5241 133.182 17.2441C133.683 17.9551 133.934 18.7663 133.934 19.6777H129.996C129.996 19.2949 129.914 18.9531 129.75 18.6523C129.595 18.3424 129.349 18.1009 129.012 17.9277C128.684 17.7454 128.255 17.6543 127.727 17.6543C127.289 17.6543 126.911 17.7318 126.592 17.8867C126.273 18.0326 126.027 18.2331 125.854 18.4883C125.689 18.7344 125.607 19.0078 125.607 19.3086C125.607 19.5365 125.653 19.7415 125.744 19.9238C125.844 20.097 126.004 20.2565 126.223 20.4023C126.441 20.5482 126.724 20.6849 127.07 20.8125C127.426 20.931 127.863 21.0404 128.383 21.1406C129.449 21.3594 130.402 21.6465 131.24 22.002C132.079 22.3483 132.744 22.8223 133.236 23.4238C133.729 24.0163 133.975 24.7956 133.975 25.7617C133.975 26.418 133.829 27.0195 133.537 27.5664C133.245 28.1133 132.826 28.5918 132.279 29.002C131.732 29.403 131.076 29.7174 130.311 29.9453C129.554 30.1641 128.702 30.2734 127.754 30.2734C126.378 30.2734 125.211 30.0273 124.254 29.5352C123.306 29.043 122.586 28.4186 122.094 27.6621C121.611 26.8965 121.369 26.1126 121.369 25.3105H125.102C125.12 25.8483 125.257 26.2812 125.512 26.6094C125.776 26.9375 126.109 27.1745 126.51 27.3203C126.92 27.4661 127.362 27.5391 127.836 27.5391C128.346 27.5391 128.77 27.4707 129.107 27.334C129.445 27.1882 129.7 26.9967 129.873 26.7598C130.055 26.5137 130.146 26.2311 130.146 25.9121Z" fill="#84A17D"/>
<g clip-path="url(#clip1_2_60)">
<path d="M23.5181 7.16666H25.9866V32.8333H23.5181V7.16666Z" fill="#84A17D" stroke="#6d9f61"/>
<path d="M0.5 12.1667H19.0495V17.8333H0.5V12.1667Z" fill="#84A17D" stroke="#6d9f61"/>
<path d="M7.90991 22.1667H19.0495V27.8333H7.90991V22.1667Z" fill="#84A17D" stroke="#6d9f61"/>
</g>
</g>
<defs>
<clipPath id="clip0_2_60">
<rect width="135" height="40" fill="white"/>
</clipPath>
<clipPath id="clip1_2_60">
<rect width="27" height="28" fill="white" transform="translate(0 6)"/>
</clipPath>
</defs>
</svg>
