<svg width="50" height="50" viewBox="0 0 50 50" fill="none" xmlns="http://www.w3.org/2000/svg">
<g clip-path="url(#clip0_15_1552)">
<path d="M48.0313 15.2761C46.1299 10.7892 42.9595 6.97402 38.9702 4.27637C34.9821 1.57871 30.1653 -0.000683372 25 2.21814e-07C21.5572 -0.000195091 18.267 0.701172 15.2763 1.96855C10.7895 3.87012 6.97422 7.04033 4.27647 11.0296C1.57881 15.0175 -0.000683372 19.8344 2.218e-07 25C-0.000195091 28.4429 0.70127 31.7332 1.96865 34.7239C3.87012 39.2108 7.04063 43.026 11.0298 45.7236C15.0179 48.4213 19.8347 50.0007 25 50C28.4427 50.0002 31.733 49.2988 34.7237 48.0314C39.2105 46.13 43.0258 42.9597 45.7235 38.9704C48.4213 34.9824 50.0007 30.1654 50 25C50.0002 21.557 49.2987 18.2668 48.0313 15.2761ZM44.9622 33.4235C43.3166 37.3084 40.5633 40.623 37.1032 42.9622C33.642 45.3014 29.4841 46.6659 25.0001 46.6666C22.01 46.6664 19.1672 46.0594 16.5768 44.9621C12.6919 43.3165 9.37715 40.5633 7.03799 37.1032C4.69863 33.6421 3.33398 29.4841 3.3333 25C3.3335 22.0098 3.94063 19.1669 5.03779 16.5765C6.6834 12.6916 9.43672 9.37686 12.8968 7.03779C16.358 4.69853 20.516 3.33398 25 3.3333C27.9901 3.3335 30.8329 3.94053 33.4233 5.03779C37.3082 6.6833 40.6229 9.43662 42.9621 12.8967C45.3013 16.3579 46.6659 20.5158 46.6666 25.0001C46.6664 27.9902 46.0594 30.8331 44.9622 33.4235Z" fill="#153C3C"/>
<path d="M38.0461 23.3692H26.6306V11.9537C26.6306 11.0531 25.9004 10.3229 24.9998 10.3229C24.0992 10.3229 23.369 11.0531 23.369 11.9537V23.3692H11.9535C11.0529 23.3692 10.3228 24.0994 10.3228 25C10.3228 25.9006 11.0529 26.6308 11.9535 26.6308H23.369V38.0463C23.369 38.9469 24.0992 39.677 24.9998 39.677C25.9004 39.677 26.6306 38.9469 26.6306 38.0463V26.6308H38.0461C38.9467 26.6308 39.6769 25.9006 39.6769 25C39.6769 24.0994 38.9468 23.3692 38.0461 23.3692Z" fill="#153C3C"/>
</g>
<defs>
<clipPath id="clip0_15_1552">
<rect width="50" height="50" fill="white"/>
</clipPath>
</defs>
</svg>
