<svg width="181" height="65" viewBox="0 0 181 65" fill="none" xmlns="http://www.w3.org/2000/svg">
<path d="M102.316 0.544435C97.1535 1.73651 94.5898 4.44071 94.5645 8.72075C94.5354 13.7046 97.3436 15.9932 106.348 18.3269C110.725 19.4605 112.213 21.4253 110.142 23.3338C107.792 25.4987 103.194 24.0946 102.615 21.0334C102.328 19.5057 102.343 19.5101 97.5201 19.7768L93.2461 20.0124L93.4519 21.3504C93.7685 23.4131 95.4804 26.5973 96.9396 27.8391C101.263 31.5168 113.171 31.1397 117.247 27.193L118.44 26.0388L118.669 27.3805C119.507 32.317 124.55 36.9548 130.352 38.1261L132.215 38.5032L131.115 39.9368C127.482 44.6666 127.38 54.3395 130.909 59.3633C136.31 67.05 151.511 66.827 156.511 58.9885L157.443 57.5297V64.4873H181V57.0066H166.931V35.213H157.443L157.424 38.5469C157.408 41.2704 157.334 41.7645 157.016 41.2453C155.213 38.3054 151.702 35.8627 148.26 35.1567L146.406 34.7752L148.288 33.3689C154.144 28.9934 157.791 21.0104 156.855 14.6196C154.391 -2.17533 130.057 -2.43536 120.789 14.2321C120.19 15.3049 119.682 16.2177 119.656 16.2599C119.631 16.3021 118.797 15.5516 117.802 14.5952C115.737 12.6074 114.079 11.8799 108.443 10.4921C103.198 9.2001 102.125 8.29401 103.887 6.64555C105.565 5.0786 109.216 6.0936 110.037 8.35623C110.519 9.68164 110.432 9.66912 116.006 9.30234L119.231 9.0897L119.025 7.81243C118.073 1.89506 110.583 -1.36406 102.314 0.546661L102.316 0.544435ZM2.03378 15.3702V30.0062H11.5223V18.2958H12.4866C14.0084 18.2958 14.9288 19.4086 17.8628 24.8014L20.6069 29.8416L25.8824 29.9313C28.7837 29.9809 31.1558 29.9335 31.1558 29.8269C31.1558 28.1784 25.243 18.6663 23.602 17.675L22.7024 17.1312L24.5179 16.1873C31.2483 12.6844 29.9738 2.64927 22.5981 1.07639C21.6674 0.878578 16.9537 0.730397 11.5059 0.730397H2.03378V15.3664V15.3702ZM145.692 3.28197C160.501 7.12416 159.145 27.7783 143.588 35.3189C127.737 43.0019 113.613 30.3891 121.146 15.2819C125.541 6.46775 136.785 0.971179 145.69 3.2842L145.692 3.28197ZM18.0604 7.33087C21.3931 9.00598 19.1819 12.0984 14.4616 12.3651L11.523 12.5318V6.91227L14.3863 6.91672C16.0251 6.91893 17.5953 7.096 18.0604 7.32938V7.33087ZM140.455 9.9187C137.849 10.6063 135.2 13.2238 135.197 15.1116C135.193 18.1958 137.673 19.3079 141.575 17.9728C143.963 17.1563 144.57 17.1563 145.013 17.9751C145.761 19.3671 143.308 20.7859 141.877 19.788C141.158 19.2879 138.506 20.8652 138.479 21.8091C138.438 23.2301 142.056 23.7679 144.271 22.67C151.308 19.1842 149.31 11.7013 142.012 14.204C139.094 15.2042 138.467 15.2479 138.467 14.4433C138.467 13.1808 140.452 12.2681 141.318 13.1282C141.671 13.4802 144.354 11.7116 144.354 11.1256C144.354 10.2507 141.978 9.51278 140.452 9.91727L140.455 9.9187ZM129.893 16.9371C128.332 18.0602 128.258 17.7683 131.121 21.8091C132.883 24.2947 133.561 25.5224 133.494 26.1039C133.377 27.0982 132.255 27.3627 131.467 26.581C130.966 26.0832 130.836 26.1225 129.65 27.133C126.655 29.6839 131.208 31.8732 134.591 29.5105C138.307 26.9144 138.312 25.3038 134.618 19.9398C131.752 15.7783 131.62 15.6954 129.891 16.9393L129.893 16.9371ZM9.79107 34.8945C4.43795 35.7339 1.30419 38.8455 1.26245 43.3627C1.22071 47.9716 4.2263 50.5973 11.6714 52.4495C16.2344 53.5853 17.7369 54.4521 17.7369 55.9457C17.7369 60.1524 10.1622 59.7316 9.36105 55.4812C9.0801 53.998 9.11587 54.0061 4.28443 54.2661L0 54.4973L0.213886 55.8309C1.1909 61.9445 4.76661 64.4887 12.7333 64.7369C19.0508 64.9326 21.2224 64.3243 23.9806 61.5823L25.869 59.7049L26.5628 60.6362C30.5768 66.0328 44.1358 66.3957 48.5879 61.2237C49.8899 59.7131 51.3505 56.8666 51.4996 55.556C51.6046 54.6328 51.5748 54.6165 47.6071 53.42L43.6104 52.2139L43.0738 53.8186C41.2457 59.2886 34.344 59.3507 32.8282 53.9127C32.3124 52.0643 32.375 47.6494 32.9452 45.7468C34.3201 41.1482 40.1278 40.2043 42.4844 44.1983C43.4673 45.8653 43.2035 45.8342 47.6638 44.8318C51.9102 43.8775 51.7276 44.0465 50.7596 41.9728C46.9193 33.7587 34.0102 31.8316 27.1651 38.4469L25.2557 40.2932L24.4635 38.9492C22.4893 35.5983 16.2621 33.8772 9.79553 34.8945H9.79107ZM100.188 34.9026C96.5639 35.5279 92.9838 37.795 90.9612 40.7429C90.4202 41.5327 90.406 41.4683 90.3889 38.3818L90.3717 35.21H80.8832V45.2934H71.3948V35.21H61.9062V64.4843H71.3948V52.774H80.8832V64.4843H90.3717V57.866L91.3964 59.4019C95.66 65.7986 108.846 66.9218 114.846 61.3978C121.791 55.007 120.428 40.4688 112.509 36.4518C109.453 34.9011 104.09 34.2261 100.187 34.8996L100.188 34.9026ZM15.1113 40.9C15.6584 41.1816 16.3 41.9439 16.6481 42.7277L17.2458 44.0739L23.6385 43.7679L23.4291 45.4267C23.1526 47.6212 23.0289 47.7042 21.1949 46.8981C20.3311 46.5187 17.9142 45.7831 15.8209 45.26C10.868 44.0265 10.2516 43.762 9.99824 42.7596C9.52874 40.9052 12.8048 39.7131 15.1144 40.9007L15.1113 40.9ZM105.799 42.0498C110.645 43.3878 111.626 54.444 107.132 57.0733C103.776 59.0359 99.5301 57.3652 98.5344 53.6875C96.5557 46.3803 100.222 40.5103 105.799 42.0498ZM145.357 42.0417C150.986 43.5961 150.871 56.1731 145.215 57.6883C140.666 58.9048 137.64 55.7627 137.663 49.849C137.688 43.7042 140.616 40.7326 145.357 42.0431V42.0417Z" fill="white" fill-opacity="0.5"/>
</svg>
