<svg width="100" height="100" viewBox="0 0 100 100" fill="none" xmlns="http://www.w3.org/2000/svg">
<g clip-path="url(#clip0_15_1454)">
<path d="M96.2434 25.3207L92.0506 47.9009C91.464 47.5481 90.8548 47.2382 90.2262 46.9738C90.48 45.0567 90.3884 43.9923 89.9938 43.3884C90.0514 43.288 90.0913 43.1781 90.1115 43.064C90.1615 42.7947 90.1052 42.5162 89.9556 42.2897C89.806 42.0632 89.5749 41.9071 89.3136 41.8559C89.0518 41.8047 88.7812 41.8625 88.5615 42.0165C88.3413 42.1706 88.1896 42.4084 88.1401 42.6775C88.1346 42.7086 88.1296 42.7414 88.1258 42.7719C87.3493 43.1309 86.8401 44.355 86.327 45.8241L86.317 45.9313C83.1556 45.5434 79.9569 46.209 77.1905 47.8305C76.9775 43.9511 78.2934 38.8589 77.1321 37.1544C77.1913 37.0543 77.2321 36.9437 77.2518 36.8283C77.2796 36.6804 77.2754 36.5282 77.2396 36.3822C77.2039 36.2362 77.138 36.1 77.0455 35.9832C76.9535 35.8663 76.8375 35.7716 76.706 35.7056C76.5745 35.6397 76.4308 35.6041 76.2846 35.6014C76.1384 35.5987 75.9934 35.6289 75.8598 35.69C75.7262 35.751 75.6069 35.8414 75.5106 35.9548C75.4144 36.0682 75.3438 36.2019 75.3031 36.3465C75.2623 36.4911 75.2527 36.643 75.2749 36.7918C72.643 38.4168 72.2136 48.5468 68.7867 47.9773C65.3367 47.4022 70.4497 32.9763 67.8896 29.7177C67.9682 29.6014 68.0216 29.4689 68.0459 29.3293C68.0707 29.1961 68.0699 29.0592 68.043 28.9264C68.0165 28.7935 67.9644 28.6674 67.8905 28.5552C67.8165 28.443 67.722 28.3469 67.6119 28.2724C67.5014 28.1979 67.3783 28.1464 67.2489 28.1209C67.1195 28.0955 66.9863 28.0965 66.8573 28.1239C66.7283 28.1514 66.6056 28.2047 66.4968 28.2809C66.388 28.3571 66.2943 28.4547 66.222 28.568C66.1497 28.6814 66.0997 28.8083 66.0749 28.9415C66.0569 29.0358 66.0522 29.1322 66.0606 29.228C62.264 31.2044 62.0543 52.3116 56.5821 51.367C51.2085 50.4399 57.1581 33.7381 54.5262 30.4248C54.5455 30.3726 54.5602 30.3188 54.5703 30.2639C54.5951 30.1305 54.5943 29.9935 54.5674 29.8605C54.5405 29.7275 54.4888 29.6013 54.4148 29.489C54.3405 29.3767 54.2455 29.2805 54.1354 29.2059C54.0253 29.1313 53.9018 29.0798 53.772 29.0544C53.6426 29.0289 53.5094 29.03 53.3804 29.0575C53.251 29.085 53.1283 29.1384 53.0195 29.2147C52.9102 29.291 52.8169 29.3887 52.7443 29.5022C52.672 29.6156 52.622 29.7426 52.5972 29.876C52.5884 29.9251 52.5829 29.9748 52.5808 30.0246C48.8585 31.7081 46.7968 45.4996 44.6245 45.2022L50.0052 16.2226L96.2434 25.3207ZM62.267 21.1829C62.3073 20.9669 62.2842 20.7436 62.201 20.5411C62.1178 20.3386 61.9779 20.1661 61.7997 20.0453C61.6211 19.9245 61.4119 19.8609 61.198 19.8626C60.9846 19.8642 60.7762 19.931 60.5997 20.0545C60.4228 20.178 60.2859 20.3527 60.2056 20.5564C60.1254 20.7601 60.1056 20.9838 60.1489 21.1992C60.1917 21.4144 60.2964 21.6117 60.4485 21.766C60.6006 21.9203 60.7938 22.0247 61.0035 22.0659C61.2846 22.1202 61.5754 22.0579 61.8119 21.8924C62.0489 21.727 62.2123 21.472 62.267 21.1829ZM57.748 20.2923C57.7884 20.0764 57.7653 19.853 57.6821 19.6505C57.5989 19.448 57.4594 19.2755 57.2808 19.1547C57.1022 19.0339 56.893 18.9704 56.6796 18.972C56.4657 18.9736 56.2577 19.0404 56.0808 19.1639C55.9039 19.2874 55.7669 19.4621 55.6867 19.6659C55.6064 19.8696 55.5867 20.0933 55.63 20.3086C55.6733 20.5239 55.7775 20.7212 55.9296 20.8755C56.0817 21.0297 56.2749 21.1341 56.4846 21.1754C56.7661 21.2307 57.0573 21.1687 57.2943 21.0032C57.5312 20.8376 57.6943 20.5819 57.748 20.2923ZM53.2304 19.4044C53.2703 19.1886 53.2472 18.9654 53.164 18.7632C53.0804 18.5608 52.9409 18.3885 52.7623 18.2679C52.5842 18.1474 52.3749 18.0839 52.1615 18.0857C51.948 18.0874 51.7396 18.1543 51.5632 18.2778C51.3867 18.4014 51.2497 18.576 51.1695 18.7796C51.0896 18.9833 51.0699 19.2068 51.1132 19.422C51.1564 19.6371 51.2606 19.8342 51.4127 19.9884C51.5648 20.1426 51.7577 20.2468 51.9674 20.288C52.2489 20.3428 52.5396 20.2805 52.7762 20.1149C53.0132 19.9492 53.1762 19.6938 53.2304 19.4044Z" fill="white"/>
<path d="M95.0889 50.3124C97.881 53.1863 99.4499 57.0845 99.4499 61.1493C99.4499 65.2137 97.881 69.112 95.0889 71.9863C92.2965 74.8601 88.5095 76.4747 84.5608 76.4747C80.6116 76.4747 76.8247 74.8601 74.0322 71.9863L84.5608 61.1493L95.0889 50.3124Z" fill="#84A17D"/>
<path d="M95.0889 50.312L84.5608 61.1481L74.0322 50.3112C76.1116 48.1734 78.7579 46.7159 81.6394 46.1219C84.5209 45.5279 87.5087 45.824 90.2272 46.9725C90.8553 47.2373 91.465 47.5472 92.0511 47.8996C93.1608 48.5652 94.1818 49.3764 95.0889 50.312Z" fill="#B6DBD2"/>
<path d="M89.9967 43.3884C90.3913 43.9923 90.4828 45.0567 90.2291 46.9738C88.9782 46.4442 87.6631 46.0936 86.3198 45.9309L86.3303 45.8236C86.8434 44.3545 87.3526 43.1305 88.1291 42.7715C88.1072 43.006 88.1639 43.2417 88.29 43.4387C88.416 43.6356 88.6039 43.782 88.8219 43.8541C89.04 43.9262 89.2757 43.9193 89.4892 43.8344C89.703 43.7494 89.8824 43.5919 89.9971 43.388L89.9967 43.3884Z" fill="white"/>
<path d="M89.3162 41.8562C89.5775 41.9075 89.8086 42.0635 89.9582 42.2899C90.1078 42.5164 90.1636 42.7948 90.1141 43.064C90.0939 43.1786 90.054 43.2884 89.9964 43.3884C89.7485 43.0344 89.3784 42.7917 88.9615 42.7103C88.6851 42.6301 88.3901 42.652 88.1279 42.772C88.1313 42.7414 88.1368 42.7087 88.1422 42.6776C88.167 42.5442 88.2166 42.4171 88.2889 42.3036C88.3611 42.1901 88.4544 42.0923 88.5636 42.016C88.6725 41.9397 88.7952 41.8863 88.9241 41.8589C89.0536 41.8315 89.1868 41.8306 89.3162 41.8562Z" fill="#B6DBD2"/>
<path d="M89.9967 43.3884C89.8815 43.5927 89.7026 43.7502 89.4887 43.8348C89.2748 43.9197 89.0395 43.9266 88.8215 43.8545C88.603 43.7828 88.4156 43.636 88.2895 43.4391C88.1635 43.2421 88.1068 43.0069 88.1286 42.772C88.3908 42.6519 88.6862 42.6301 88.9626 42.7103C89.3786 42.7918 89.7488 43.0343 89.9967 43.3884Z" fill="#B6DBD2"/>
<path d="M84.561 61.1481L74.0324 71.985C72.6492 70.5622 71.5517 68.873 70.8034 67.0133C70.0547 65.1541 69.6689 63.1609 69.6689 61.1481C69.6689 59.1352 70.0547 57.1421 70.8034 55.2828C71.5517 53.4232 72.6492 51.7339 74.0324 50.3112L84.561 61.1481Z" fill="#7EC3B0"/>
<path d="M76.4566 35.6212C76.5861 35.6464 76.7096 35.6977 76.8197 35.7721C76.9302 35.8465 77.0251 35.9426 77.0991 36.0548C77.1735 36.167 77.2251 36.2932 77.252 36.4261C77.2785 36.5591 77.2793 36.696 77.2545 36.8293C77.2348 36.9448 77.194 37.0554 77.1348 37.1555C76.955 36.879 76.6772 36.6852 76.3613 36.6153C76.1785 36.5689 75.9882 36.5608 75.8024 36.5913C75.6163 36.6218 75.4382 36.6903 75.2781 36.7928C75.2533 36.6295 75.2672 36.4624 75.3184 36.3056C75.3693 36.1489 75.4566 36.0071 75.5722 35.8922C75.6877 35.7773 75.8281 35.6927 75.9823 35.6456C76.1361 35.5984 76.2991 35.59 76.4566 35.6212Z" fill="#B6DBD2"/>
<path d="M77.135 37.1555C78.2964 38.8583 76.9787 43.9507 77.1934 47.8313C75.2682 48.9618 73.6119 50.5198 72.3451 52.3919C71.0787 54.264 70.2333 56.4034 69.8712 58.6541L60.5989 56.8301L43.1035 53.388L44.4502 46.1356L44.6245 45.2039C46.7968 45.5009 48.8581 31.7098 52.5859 30.0268C52.5758 30.273 52.6514 30.5149 52.7989 30.7088C52.9468 30.9028 53.1569 31.0359 53.3918 31.0843C53.6266 31.1326 53.8703 31.0931 54.0791 30.9726C54.2884 30.8522 54.4485 30.6589 54.5308 30.4276C57.1632 33.7409 51.2136 50.4425 56.5871 51.3695C62.0598 52.3142 62.2682 31.207 66.0657 29.2307C66.0846 29.4419 66.1661 29.642 66.2997 29.8038C66.4329 29.9655 66.6115 30.081 66.8107 30.1346C67.0102 30.1881 67.2207 30.1771 67.414 30.103C67.6069 30.0289 67.7733 29.8953 67.8901 29.7205C70.4502 32.9791 65.3359 47.4052 68.7867 47.9803C72.214 48.5494 72.6439 38.4195 75.2758 36.7945C75.3073 37.0055 75.401 37.2013 75.5451 37.3549C75.6888 37.5086 75.8758 37.6125 76.0796 37.6522C76.2829 37.692 76.4939 37.6658 76.6825 37.5771C76.8712 37.4884 77.0283 37.3417 77.1325 37.1572L77.135 37.1555Z" fill="white"/>
<path d="M76.3615 36.6153C76.6775 36.6852 76.9548 36.879 77.135 37.1555C77.0308 37.3401 76.8737 37.4868 76.685 37.5755C76.4964 37.6641 76.2855 37.6904 76.0821 37.6506C75.8783 37.6108 75.6913 37.5069 75.5476 37.3533C75.4035 37.1996 75.3094 37.0038 75.2783 36.7929C75.4384 36.6903 75.6166 36.6217 75.8023 36.5913C75.9884 36.5608 76.1783 36.5689 76.3615 36.6153Z" fill="#B6DBD2"/>
<path d="M67.2531 28.1212C67.5145 28.1729 67.7456 28.3293 67.8951 28.5559C68.0447 28.7826 68.101 29.0611 68.0514 29.3304C68.0262 29.4701 67.972 29.6025 67.8926 29.7188C67.6464 29.3964 67.2943 29.1782 66.9023 29.1056C66.6174 29.0477 66.3216 29.0912 66.0636 29.229C66.0552 29.1333 66.0598 29.0369 66.0779 28.9425C66.1023 28.8091 66.1523 28.6819 66.2245 28.5683C66.2968 28.4547 66.3905 28.357 66.4998 28.2807C66.609 28.2044 66.7317 28.151 66.8611 28.1237C66.9901 28.0963 67.1233 28.0955 67.2531 28.1212Z" fill="#B6DBD2"/>
<path d="M67.8922 29.7189C67.7754 29.8937 67.609 30.0273 67.4162 30.1014C67.2229 30.1755 67.0124 30.1865 66.8128 30.133C66.6137 30.0794 66.4351 29.9639 66.3019 29.8022C66.1683 29.6404 66.0868 29.4403 66.0679 29.229C66.3259 29.0913 66.6217 29.0478 66.9065 29.1056C67.2969 29.1794 67.6473 29.3975 67.8922 29.7189Z" fill="#B6DBD2"/>
<path d="M61.4089 19.8804C61.6194 19.9215 61.8127 20.0258 61.9652 20.1802C62.1178 20.3346 62.2224 20.532 62.2657 20.7476C62.3094 20.9631 62.2896 21.1871 62.2094 21.3911C62.1291 21.5952 61.9917 21.7701 61.8148 21.8939C61.6379 22.0176 61.4295 22.0845 61.2157 22.0861C61.0018 22.0878 60.7921 22.0241 60.6136 21.9032C60.4346 21.7822 60.2951 21.6094 60.2115 21.4067C60.1283 21.2039 60.1056 20.9802 60.1459 20.764C60.2001 20.4749 60.364 20.2197 60.6005 20.0541C60.8371 19.8886 61.1278 19.8261 61.4089 19.8804Z" fill="#84A17D"/>
<path d="M56.8895 18.9919C57.0996 19.033 57.2929 19.1374 57.445 19.2916C57.5971 19.4458 57.7017 19.6431 57.745 19.8584C57.7882 20.0737 57.7685 20.2975 57.6882 20.5012C57.608 20.705 57.471 20.8798 57.2941 21.0033C57.1177 21.1269 56.9092 21.1937 56.6954 21.1954C56.4819 21.197 56.2727 21.1335 56.0941 21.0127C55.9155 20.8919 55.7761 20.7193 55.6929 20.5168C55.6097 20.3143 55.5866 20.0909 55.6265 19.8749C55.6807 19.5855 55.8437 19.3299 56.0807 19.1643C56.3172 18.9987 56.6084 18.9367 56.8895 18.9919Z" fill="#84A17D"/>
<path d="M53.3856 66.9833L56.5973 84.5069L54.0465 85.0022L50.8364 67.4786L53.3856 66.9833Z" fill="#7EC3B0"/>
<path d="M53.7767 29.0547C54.0385 29.1065 54.2696 29.2629 54.4191 29.4897C54.5687 29.7165 54.625 29.9951 54.5754 30.2645C54.5649 30.3194 54.5502 30.3732 54.5309 30.4255C54.3036 30.1299 53.9754 29.9347 53.6132 29.8793C53.2641 29.8235 52.9074 29.8741 52.5859 30.0247C52.588 29.9749 52.5935 29.9252 52.6019 29.8761C52.6523 29.6069 52.804 29.3692 53.0242 29.2152C53.2448 29.0612 53.5153 29.0035 53.7767 29.0547Z" fill="#B6DBD2"/>
<path d="M53.6132 29.8799C53.9754 29.9352 54.3036 30.1305 54.5309 30.426C54.4481 30.6573 54.288 30.8506 54.0792 30.9711C53.8704 31.0915 53.6263 31.1311 53.3918 31.0827C53.1569 31.0344 52.9464 30.9012 52.799 30.7073C52.6511 30.5134 52.5754 30.2715 52.5859 30.0253C52.9069 29.8746 53.2641 29.8241 53.6132 29.8799Z" fill="#B6DBD2"/>
<path d="M51.6447 57.4841L49.0947 57.9794L50.8367 67.4833L53.3867 66.988L51.6447 57.4841Z" fill="#84A17D"/>
<path d="M52.3723 18.1036C52.5824 18.1448 52.7756 18.2491 52.9277 18.4033C53.0798 18.5576 53.1845 18.7548 53.2277 18.9701C53.271 19.1855 53.2513 19.4092 53.171 19.613C53.0908 19.8167 52.9538 19.9915 52.7769 20.115C52.6004 20.2386 52.392 20.3054 52.1782 20.3071C51.9647 20.3088 51.7555 20.2452 51.5769 20.1244C51.3983 20.0036 51.2588 19.831 51.1756 19.6285C51.0924 19.426 51.0693 19.2026 51.1097 18.9867C51.1635 18.6974 51.3269 18.4421 51.5639 18.2766C51.8004 18.1111 52.0912 18.0489 52.3723 18.1036Z" fill="#84A17D"/>
<path d="M48.0334 78.5575L49.3805 85.9073V85.909L46.8313 86.4026L45.4834 79.0519L48.0334 78.5575Z" fill="#7EC3B0"/>
<path d="M44.4305 58.8837L41.8804 59.3789L45.4868 79.0549L48.0368 78.5596L44.4305 58.8837Z" fill="#84A17D"/>
<path d="M39.7422 74.0854L42.1648 87.309L39.615 87.8043L37.1909 74.5802L39.7401 74.0854H39.7422Z" fill="#7EC3B0"/>
<path d="M37.2124 60.2811L39.7423 74.0854H39.7402L37.191 74.5807L34.6611 60.7764L37.2124 60.2811Z" fill="#84A17D"/>
<path d="M36.3894 17.7883C37.1627 20.8046 36.9427 23.9996 35.7639 26.8735C33.7345 31.7295 33.1978 37.1085 34.2259 42.2877L34.2806 42.5602C34.4189 43.2348 34.3017 43.9378 33.9529 44.5262C33.6041 45.1146 33.0501 45.5438 32.4043 45.7253L31.9722 45.8412L31.967 45.8215L26.7805 25.4465C26.4037 27.528 25.2617 27.5173 24.2944 26.7845C24.9256 25.3156 24.7968 22.9401 23.4839 23.2936C22.0835 23.6692 23.0404 25.8344 24.2944 26.7845C23.8029 27.931 22.848 28.5254 21.6363 26.8338L26.8217 47.2116L26.8269 47.2296L26.4923 47.3206C26.2831 47.3738 26.0684 47.4013 25.8528 47.4022C25.2943 47.4009 24.7507 47.2163 24.3009 46.8756C23.8511 46.5348 23.5183 46.0554 23.351 45.5073C21.7835 40.3825 18.7287 35.875 14.5974 32.5913C12.8667 31.2083 11.4812 29.4207 10.5556 27.3765C9.63009 25.3324 9.19118 23.0906 9.2753 20.837C9.35942 18.5834 9.96417 16.3828 11.0394 14.4178C12.1146 12.4528 13.6293 10.7798 15.458 9.53761C17.2867 8.29538 19.3767 7.51967 21.5548 7.27478C23.7329 7.02989 25.9363 7.3228 27.9824 8.12937C30.0285 8.93589 31.8584 10.2328 33.3205 11.9125C34.7825 13.5922 35.8345 15.6065 36.3894 17.7883Z" fill="#E6FFA0"/>
<path d="M35.0589 49.2515C35.1036 49.424 35.1146 49.6043 35.0913 49.7811C35.0681 49.9584 35.011 50.1288 34.9234 50.2833C34.8358 50.4373 34.7194 50.5721 34.5809 50.6798C34.4425 50.788 34.2847 50.8661 34.1166 50.9107L27.564 52.6768C27.3962 52.7223 27.2214 52.733 27.0495 52.7086C26.8776 52.6841 26.7121 52.6249 26.5624 52.5348C26.4127 52.4446 26.2817 52.3249 26.1769 52.1824C26.0722 52.0399 25.9958 51.8777 25.952 51.7047C25.923 51.5927 25.9082 51.4768 25.9082 51.3605C25.9086 51.0601 26.0056 50.7678 26.1841 50.53C26.3626 50.2923 26.6124 50.1219 26.8948 50.0455L33.4469 48.2794C33.7333 48.2026 34.0365 48.2262 34.3084 48.3464C34.4922 48.4288 34.6553 48.5528 34.7854 48.7099C34.9154 48.8665 35.009 49.0519 35.0589 49.2515Z" fill="#7EC3B0"/>
<path d="M34.408 85.7605L31.8579 86.2553L32.3988 89.2081L34.9489 88.7133L34.408 85.7605Z" fill="#7EC3B0"/>
<path d="M34.4094 50.8545C34.4663 51.0802 34.4952 51.3124 34.4954 51.5455C34.4945 52.1463 34.3005 52.7305 33.9436 53.206C33.5866 53.6815 33.0868 54.0219 32.5221 54.1742L30.3112 54.7691C29.9754 54.8601 29.6257 54.882 29.2818 54.8335C28.9378 54.785 28.6066 54.6674 28.307 54.4867C28.0074 54.3064 27.7453 54.0669 27.5357 53.7824C27.326 53.4974 27.1731 53.1729 27.0854 52.827L34.4094 50.8545Z" fill="#7EC3B0"/>
<path d="M29.9956 61.6828L34.4071 85.7583L31.8579 86.2536L27.4443 62.1781L29.9956 61.6828Z" fill="#84A17D"/>
<path d="M34.3866 46.5982C34.4145 46.7107 34.4286 46.8266 34.4288 46.9433C34.4289 47.2442 34.3321 47.5364 34.1536 47.7746C33.9751 48.0128 33.7249 48.1832 33.4422 48.2596L26.8901 50.0257C26.6906 50.0802 26.4813 50.0854 26.2795 50.0403C26.0777 49.9957 25.889 49.9025 25.7289 49.7682C25.5754 49.6403 25.4514 49.4785 25.366 49.2952C25.2806 49.1116 25.236 48.9111 25.2354 48.7077C25.2358 48.4073 25.3327 48.115 25.5112 47.8772C25.6897 47.6395 25.9396 47.4691 26.222 47.3927L26.4935 47.3201L26.8281 47.2296L31.9724 45.8437L32.4045 45.7279L32.774 45.6283C33.1128 45.5373 33.4728 45.5879 33.7751 45.7699C34.0774 45.9519 34.2973 46.2498 34.3866 46.5982Z" fill="#7EC3B0"/>
<path d="M31.9654 45.824L31.9706 45.8438L26.8264 47.2296L26.8212 47.2116L21.6357 26.8337C22.8481 28.5252 23.8029 27.9308 24.2939 26.7843C25.2612 27.5172 26.4031 27.5279 26.78 25.4464L31.9654 45.824Z" fill="#E6FFA0"/>
<path d="M23.4835 23.2935C24.7964 22.94 24.9251 25.3155 24.294 26.7844C23.04 25.8343 22.083 23.6707 23.4835 23.2935Z" fill="#84A17D"/>
<path d="M17.2188 89.097L17.7598 92.0476L12.9272 92.9871L12.3862 90.0343L17.2188 89.097Z" fill="#B6DBD2"/>
<path d="M16.4137 84.6974L16.9547 87.6481L12.1201 88.5876L11.5796 85.6352L16.4137 84.6974Z" fill="#B6DBD2"/>
<path d="M16.194 54.6686C16.2409 54.927 16.2124 55.194 16.112 55.436C16.0115 55.6777 15.8438 55.8832 15.6298 56.027C15.4158 56.1708 15.1652 56.2459 14.9098 56.2433C14.6543 56.2403 14.4053 56.1596 14.1943 56.0116C13.9834 55.8631 13.8198 55.6536 13.7244 55.4099C13.629 55.1656 13.6059 54.8983 13.6582 54.6408C13.7104 54.3832 13.8356 54.1476 14.0179 53.9635C14.2002 53.7794 14.4315 53.6549 14.6825 53.6056C14.8496 53.5734 15.0212 53.5751 15.1876 53.6107C15.354 53.6468 15.5119 53.7159 15.6523 53.8146C15.7927 53.9133 15.9127 54.0395 16.0057 54.1858C16.0987 54.3326 16.1627 54.4965 16.194 54.6686Z" fill="#84A17D"/>
<path d="M15.6071 80.2983L16.1481 83.2485L11.3134 84.1875L10.7729 81.2356L15.6071 80.2983Z" fill="#B6DBD2"/>
<path d="M10.781 55.7185C10.8284 55.9768 10.8002 56.2442 10.7001 56.4863C10.6 56.7284 10.4324 56.9344 10.2185 57.0781C10.0047 57.2223 9.75415 57.2979 9.49856 57.2953C9.24301 57.2927 8.9939 57.2125 8.78276 57.0644C8.57158 56.9159 8.4078 56.7069 8.31217 56.4627C8.21654 56.2189 8.19331 55.9511 8.24541 55.6936C8.29751 55.4361 8.42259 55.2005 8.6049 55.0159C8.78717 54.8314 9.01848 54.7069 9.26957 54.658C9.43646 54.6253 9.60797 54.6266 9.77427 54.6627C9.94058 54.6983 10.0984 54.7674 10.2388 54.8657C10.3791 54.9644 10.4993 55.0902 10.5923 55.2365C10.6854 55.3829 10.7495 55.5468 10.781 55.7185Z" fill="#84A17D"/>
<path d="M5.36884 56.7704C5.41578 57.0287 5.3872 57.2957 5.28678 57.5378C5.18636 57.7794 5.01855 57.9854 4.80456 58.1292C4.59061 58.2725 4.34006 58.3481 4.08456 58.345C3.82907 58.3425 3.58012 58.2618 3.36915 58.1133C3.15818 57.9652 2.99465 57.7558 2.89922 57.5116C2.80378 57.2678 2.78073 57 2.83297 56.7429C2.88521 56.4854 3.0104 56.2493 3.19272 56.0652C3.37504 55.8811 3.60632 55.7566 3.85734 55.7077C4.02441 55.6751 4.19608 55.6764 4.36254 55.7124C4.52897 55.748 4.68691 55.8176 4.82733 55.9163C4.96775 56.015 5.08783 56.1412 5.18078 56.2875C5.27367 56.4343 5.33758 56.5983 5.36884 56.7704Z" fill="#84A17D"/>
<path d="M32.4028 45.7279C33.0487 45.5459 33.6027 45.1172 33.9514 44.5287C34.3002 43.9403 34.4174 43.2369 34.2791 42.5627L34.2244 42.2902C33.1963 37.111 33.733 31.7319 35.7625 26.876C36.7586 24.4344 37.071 21.7546 36.6646 19.1397C36.258 16.5248 35.1488 14.0792 33.4623 12.0794C31.7758 10.0796 29.5793 8.60552 27.1212 7.82376C24.6632 7.042 22.0417 6.98385 19.5531 7.65582C17.0646 8.32775 14.8084 9.70308 13.0398 11.6262C11.2711 13.5493 10.0604 15.9434 9.54485 18.5378C9.02922 21.1322 9.22922 23.8234 10.1221 26.3069C11.0151 28.7905 12.5653 30.9672 14.5975 32.5911C18.7278 35.8752 21.7817 40.3826 23.3485 45.5069C23.5158 46.0554 23.8485 46.5348 24.2984 46.8755C24.7482 47.2159 25.2918 47.4004 25.8503 47.4017C26.0659 47.4013 26.2806 47.3738 26.4898 47.3202" stroke="#153C3C" stroke-width="2" stroke-linecap="round" stroke-linejoin="round"/>
<path d="M25.7275 49.7695C25.5739 49.6412 25.4499 49.4798 25.3645 49.2961C25.2792 49.1129 25.2345 48.912 25.2339 48.7086C25.2343 48.4082 25.3313 48.1163 25.5098 47.8785C25.6882 47.6408 25.9381 47.4704 26.2205 47.394L26.492 47.3215L26.8267 47.2309L31.9709 45.8451L32.403 45.7292L32.7725 45.6292C32.9405 45.5837 33.1155 45.5725 33.2876 45.597C33.4597 45.621 33.6256 45.6798 33.7756 45.77C33.9257 45.8597 34.057 45.9794 34.1621 46.1219C34.2672 46.264 34.3441 46.4262 34.3883 46.5991C34.4161 46.712 34.4303 46.8279 34.4304 46.9442C34.4306 47.2451 34.3338 47.5373 34.1553 47.7755C33.9767 48.0137 33.7265 48.1846 33.4438 48.261L26.8902 50.0258C26.6907 50.0803 26.4814 50.0854 26.2796 50.0404C26.0778 49.9957 25.8891 49.9026 25.729 49.7682" stroke="#153C3C" stroke-width="2" stroke-linecap="round" stroke-linejoin="round"/>
<path d="M26.7808 25.4464L31.9657 45.824" stroke="#153C3C" stroke-width="2" stroke-linecap="round" stroke-linejoin="round"/>
<path d="M24.2944 26.7843C25.2618 27.5172 26.4037 27.5279 26.7806 25.4464" stroke="#153C3C" stroke-width="2" stroke-linecap="round" stroke-linejoin="round"/>
<path d="M24.294 26.7844C24.9251 25.3155 24.7964 22.94 23.4835 23.2935C22.083 23.6707 23.04 25.8343 24.294 26.7844Z" stroke="#153C3C" stroke-width="2" stroke-linecap="round" stroke-linejoin="round"/>
<path d="M26.8212 47.2112L21.6357 26.8337C22.8481 28.5252 23.8029 27.9308 24.2939 26.7844" stroke="#153C3C" stroke-width="2" stroke-linecap="round" stroke-linejoin="round"/>
<path d="M34.3084 48.3464C34.5604 48.4592 34.7719 48.6502 34.9137 48.8927C35.0554 49.1352 35.1202 49.4167 35.0991 49.6991C35.078 49.9811 34.972 50.2494 34.796 50.4665C34.6199 50.6837 34.3824 50.8391 34.1166 50.9107L27.564 52.6768C27.3962 52.7223 27.2214 52.733 27.0495 52.7086C26.8776 52.6841 26.7121 52.6249 26.5624 52.5348C26.4127 52.4446 26.2817 52.3249 26.1769 52.1824C26.0722 52.0399 25.9958 51.8777 25.952 51.7047C25.923 51.5927 25.9082 51.4768 25.9082 51.3605C25.9086 51.0601 26.0056 50.7678 26.1841 50.53C26.3626 50.2923 26.6124 50.1219 26.8948 50.0455L33.4469 48.2794C33.7333 48.2026 34.0365 48.2262 34.3084 48.3464Z" stroke="#153C3C" stroke-width="2" stroke-linecap="round" stroke-linejoin="round"/>
<path d="M32.5221 54.1747L30.3112 54.7699C29.9754 54.8605 29.6257 54.8824 29.2818 54.8339C28.9378 54.7854 28.6066 54.6678 28.307 54.4875C28.0074 54.3069 27.7453 54.0674 27.5357 53.7828C27.326 53.4978 27.1731 53.1734 27.0854 52.8279L34.4094 50.8545C34.4663 51.0802 34.4952 51.3124 34.4954 51.5455C34.4947 52.1468 34.3007 52.7305 33.9437 53.206C33.5868 53.682 33.0869 54.0223 32.5221 54.1747Z" stroke="#153C3C" stroke-width="2" stroke-linecap="round" stroke-linejoin="round"/>
<path d="M92.0505 47.9026C95.3509 49.8854 97.7745 53.1103 98.8098 56.897C99.8446 60.6837 99.411 64.7365 97.5993 68.2C95.7879 71.6639 92.7404 74.2682 89.0993 75.4639C85.4585 76.6596 81.5089 76.3532 78.0833 74.609C74.6577 72.8652 72.0236 69.8202 70.7371 66.1159C69.4505 62.412 69.6114 58.3382 71.1862 54.7541C72.7614 51.1699 75.627 48.3553 79.1791 46.9038C82.7312 45.4523 86.6921 45.4772 90.2266 46.9738C90.8547 47.2386 91.4644 47.548 92.0505 47.9008" stroke="#153C3C" stroke-width="2" stroke-linecap="round" stroke-linejoin="round"/>
<path d="M34.2329 48.118L34.2663 48.1112L44.4495 46.1343" stroke="#153C3C" stroke-width="2" stroke-linecap="round" stroke-linejoin="round"/>
<path d="M60.599 56.8283L66.3086 87.991L8.57772 99.2017L0.42041 54.6828L25.7273 49.7682H25.7289" stroke="#153C3C" stroke-width="2" stroke-linecap="round" stroke-linejoin="round"/>
<path d="M7.67871 60.1433L42.0144 53.4755" stroke="#153C3C" stroke-width="2" stroke-linecap="round" stroke-linejoin="round"/>
<path d="M69.8712 58.6524L60.5989 56.8284L43.1035 53.3863L44.4502 46.1339L44.6245 45.2022L50.0048 16.2226L96.2439 25.3208L92.0506 47.9009V47.9022" stroke="#153C3C" stroke-width="2" stroke-linecap="round" stroke-linejoin="round"/>
<path d="M54.1821 22.3304L90.9704 29.5681" stroke="#153C3C" stroke-width="2" stroke-linecap="round" stroke-linejoin="round"/>
<path d="M89.9961 43.3884C90.3906 43.9927 90.4822 45.0571 90.2285 46.9738" stroke="#153C3C" stroke-width="2" stroke-linecap="round" stroke-linejoin="round"/>
<path d="M86.3296 45.824C86.8426 44.3549 87.3519 43.1309 88.1283 42.772" stroke="#153C3C" stroke-width="2" stroke-linecap="round" stroke-linejoin="round"/>
<path d="M77.1348 37.1557C78.2957 38.8585 76.978 43.9506 77.1927 47.8318" stroke="#153C3C" stroke-width="2" stroke-linecap="round" stroke-linejoin="round"/>
<path d="M67.8924 29.7189C70.4525 32.9775 65.3382 47.4034 68.789 47.9785C72.2159 48.5476 72.6462 38.418 75.2781 36.793" stroke="#153C3C" stroke-width="2" stroke-linecap="round" stroke-linejoin="round"/>
<path d="M54.5308 30.426C57.1631 33.7393 51.2136 50.4408 56.5871 51.3678C62.0598 52.3129 62.2682 31.2055 66.0657 29.2291" stroke="#153C3C" stroke-width="2" stroke-linecap="round" stroke-linejoin="round"/>
<path d="M44.6245 45.2021C46.7968 45.4991 48.8581 31.708 52.5859 30.0251" stroke="#153C3C" stroke-width="2" stroke-linecap="round" stroke-linejoin="round"/>
<path d="M56.5977 84.5069L61.9166 83.4738L57.0699 57.0258" stroke="#153C3C" stroke-width="2" stroke-linecap="round" stroke-linejoin="round"/>
<path d="M49.3809 85.9073L54.0468 85.0021" stroke="#153C3C" stroke-width="2" stroke-linecap="round" stroke-linejoin="round"/>
<path d="M46.8315 86.4021L49.3807 85.9086" stroke="#153C3C" stroke-width="2" stroke-linecap="round" stroke-linejoin="round"/>
<path d="M42.1646 87.309L46.8314 86.4039" stroke="#153C3C" stroke-width="2" stroke-linecap="round" stroke-linejoin="round"/>
<path d="M34.9482 88.7108L39.615 87.8043" stroke="#153C3C" stroke-width="2" stroke-linecap="round" stroke-linejoin="round"/>
<path d="M27.5718 90.1433L32.3991 89.206" stroke="#153C3C" stroke-width="2" stroke-linecap="round" stroke-linejoin="round"/>
<path d="M34.9481 88.7107L32.3989 89.206L31.8579 86.2536L27.4443 62.1781L29.9956 61.6828L34.4071 85.7583L34.9481 88.7107Z" stroke="#153C3C" stroke-width="2" stroke-linecap="round" stroke-linejoin="round"/>
<path d="M42.1648 87.309L39.6151 87.8043L37.191 74.5807L34.6611 60.7764L37.2124 60.2811L39.7423 74.0854L42.1648 87.309Z" stroke="#153C3C" stroke-width="2" stroke-linecap="round" stroke-linejoin="round"/>
<path d="M49.3806 85.9086L46.8314 86.4038V86.4021L45.4835 79.0519L41.8774 59.376L44.4268 58.8807L48.0335 78.5575L49.3806 85.9073V85.9086Z" stroke="#153C3C" stroke-width="2" stroke-linecap="round" stroke-linejoin="round"/>
<path d="M56.5975 84.5068L54.0467 85.0021L50.8366 67.4785L49.0938 57.9742L51.6433 57.4789L53.3858 66.9832L56.5975 84.5068Z" stroke="#153C3C" stroke-width="2" stroke-linecap="round" stroke-linejoin="round"/>
<path d="M31.8579 86.2536L34.4071 85.7588" stroke="#153C3C" stroke-width="2" stroke-linecap="round" stroke-linejoin="round"/>
<path d="M37.1909 74.5802L39.7401 74.0854" stroke="#153C3C" stroke-width="2" stroke-linecap="round" stroke-linejoin="round"/>
<path d="M45.4834 79.0519L48.0334 78.5575" stroke="#153C3C" stroke-width="2" stroke-linecap="round" stroke-linejoin="round"/>
<path d="M50.8364 67.4786L53.3856 66.9833" stroke="#153C3C" stroke-width="2" stroke-linecap="round" stroke-linejoin="round"/>
<path d="M95 50L85 60.5002L75 71" stroke="#153C3C" stroke-width="2" stroke-linecap="round" stroke-linejoin="round"/>
<path d="M74.0342 50.3124L84.5611 61.1481" stroke="#153C3C" stroke-width="2" stroke-linecap="round" stroke-linejoin="round"/>
<path d="M18.6937 5.28971L17.4199 0.429199" stroke="#153C3C" stroke-width="2" stroke-linecap="round" stroke-linejoin="round"/>
<path d="M24.2134 5.28976L24.7278 0.931946" stroke="#153C3C" stroke-width="2" stroke-linecap="round" stroke-linejoin="round"/>
<path d="M13.8202 8.63354L11.0156 5.28967" stroke="#153C3C" stroke-width="2" stroke-linecap="round" stroke-linejoin="round"/>
</g>
<defs>
<clipPath id="clip0_15_1454">
<rect width="100" height="100" fill="white"/>
</clipPath>
</defs>
</svg>
